SplineFontDB: 3.0
FontName: VerilySerifMono
FullName: Verily Serif Mono
FamilyName: Verily Serif Mono
Weight: Book
Copyright: Copyright (c) 2003 by Bitstream, Inc. All Rights Reserved.\nModification and conversion to monospace Copyright (c) 2006 by Stephen G. Hartke.  Changes released under the Vera license (with the expception that the name does not need to be changed from Verily).
Version: Release 1.10
ItalicAngle: 0
UnderlinePosition: -72
UnderlineWidth: 64
Ascent: 760
Descent: 240
sfntRevision: 0x00011999
LayerCount: 2
Layer: 0 0 "Back"  1
Layer: 1 0 "Fore"  0
NeedsXUIDChange: 1
XUID: [1021 939 1839761920 12454532]
UniqueID: 4218876
FSType: 4
OS2Version: 2
OS2_WeightWidthSlopeOnly: 0
OS2_UseTypoMetrics: 1
CreationTime: 1153642332
ModificationTime: 1365716941
PfmFamily: 17
TTFWeight: 400
TTFWidth: 5
LineGap: 97
VLineGap: 0
Panose: 2 6 6 3 5 6 5 2 2 4
OS2TypoAscent: 0
OS2TypoAOffset: 1
OS2TypoDescent: 0
OS2TypoDOffset: 1
OS2TypoLinegap: 0
OS2WinAscent: 0
OS2WinAOffset: 1
OS2WinDescent: 0
OS2WinDOffset: 1
HheadAscent: 0
HheadAOffset: 1
HheadDescent: 0
HheadDOffset: 1
OS2SubXSize: 659
OS2SubYSize: 599
OS2SubXOff: 0
OS2SubYOff: -217
OS2SupXSize: 659
OS2SupYSize: 599
OS2SupXOff: 0
OS2SupYOff: 290
OS2StrikeYSize: 64
OS2StrikeYPos: 299
OS2FamilyClass: 1282
OS2Vendor: 'Bits'
OS2CodePages: 00000011.81d40000
OS2UnicodeRanges: 8000002f.4000004a.00000000.00000000
Lookup: 4 0 1 "'liga' Standard Ligatures in Latin lookup 0"  {"'liga' Standard Ligatures in Latin lookup 0 subtable"  } ['liga' ('latn' <'dflt' > ) ]
DEI: 91125

StartChar: .notdef
Encoding: 256 -1 0
Width: 600
Flags: HMW
HStem: -177 56<95 405 95 450> 649 56<95 405 95 95>
VStem: 50 45<-121 -121 -121 649> 405 45<-121 649 649 649>
LayerCount: 2
Fore
SplineSet
50 -177 m 1
 50 705 l 1
 450 705 l 1
 450 -177 l 1
 50 -177 l 1
95 -121 m 1
 405 -121 l 1
 405 649 l 1
 95 649 l 1
 95 -121 l 1
EndSplineSet
EndChar

StartChar: exclam
Encoding: 33 33 2
Width: 600
GlyphClass: 2
Flags: HMW
HStem: 709 20G<150.666 250.666 250.666 250.666>
VStem: 176.666 48<205 328 205 328>
LayerCount: 2
Fore
SplineSet
148.667 51 m 0
 148.667 69 153.667 84 163.667 97 c 0
 173.667 110 186.667 116 200.667 116 c 0
 214.667 116 227.667 110 237.667 97 c 0
 247.667 84 252.667 69 252.667 51 c 0
 252.667 33 247.667 18 237.667 5 c 0
 227.667 -8 214.667 -14 200.667 -14 c 0
 186.667 -14 173.667 -8 163.667 5 c 1
 153.667 17 148.667 33 148.667 51 c 0
150.667 729 m 1
 250.667 729 l 1
 224.667 328 l 1
 224.667 205 l 1
 176.667 205 l 1
 176.667 328 l 1
 150.667 729 l 1
EndSplineSet
EndChar

StartChar: quotedbl
Encoding: 34 34 3
Width: 600
GlyphClass: 2
Flags: HMW
HStem: 709 20G<112.666 175.666 175.666 175.666 261.666 324.666 324.666 324.666>
VStem: 112.666 62<458 729 458 729> 261.666 62<458 729 458 729>
LayerCount: 2
Fore
SplineSet
175.667 729 m 1
 175.667 458 l 1
 112.667 458 l 1
 112.667 729 l 1
 175.667 729 l 1
324.667 729 m 1
 324.667 458 l 1
 261.667 458 l 1
 261.667 729 l 1
 324.667 729 l 1
EndSplineSet
EndChar

StartChar: numbersign
Encoding: 35 35 4
Width: 600
GlyphClass: 2
Flags: HMW
HStem: 0 21G<83.6663 145.666 83.6663 83.6663 241.666 304.666 241.666 241.666> 202 75<23.6663 124.666 23.6663 139.666 201.666 282.666 23.6663 186.666 360.666 457.666> 440 75<68.6663 172.666 68.6663 186.666 68.6663 234.666 248.666 330.666 407.666 502.666>
LayerCount: 2
Fore
SplineSet
289.667 718 m 1
 248.667 515 l 1
 344.667 515 l 1
 385.667 718 l 1
 448.667 718 l 1
 407.667 515 l 1
 502.667 515 l 1
 502.667 440 l 1
 392.667 440 l 1
 360.667 277 l 1
 457.667 277 l 1
 457.667 202 l 1
 344.667 202 l 1
 304.667 0 l 1
 241.667 0 l 1
 282.667 202 l 1
 186.667 202 l 1
 145.667 0 l 1
 83.667 0 l 1
 124.667 202 l 1
 23.667 202 l 1
 23.667 277 l 1
 139.667 277 l 1
 172.667 440 l 1
 68.667 440 l 1
 68.667 515 l 1
 186.667 515 l 1
 227.667 718 l 1
 289.667 718 l 1
330.667 440 m 1
 234.667 440 l 1
 201.667 277 l 1
 297.667 277 l 1
 330.667 440 l 1
EndSplineSet
EndChar

StartChar: dollar
Encoding: 36 36 5
Width: 600
GlyphClass: 2
Flags: HMW
HStem: -15 48<220.667 220.667> 740 20G<220.667 259.667 259.667 259.667>
VStem: 58.6667 78<469 476> 59.6667 42<35 170 170 170> 220.667 39<-147 -15 -147 -15 33 254 375 580 629 760> 350.667 82<144 152> 364.667 42<453 581>
LayerCount: 2
Fore
SplineSet
259.667 33 m 1xcc
 289.667 36 312.667 47 327.667 65 c 0
 343.667 83 350.667 107 350.667 138 c 0
 350.667 166 343.667 190 327.667 209 c 1
 312.667 229 289.667 244 259.667 254 c 1
 259.667 33 l 1xcc
220.667 580 m 1
 194.667 577 173.667 568 158.667 551 c 0
 143.667 533 135.667 511 135.667 482 c 0xe8
 135.667 456 142.667 434 156.667 417 c 0
 170.667 400 191.667 386 220.667 375 c 1
 220.667 580 l 1
59.667 35 m 1xdc
 59.667 170 l 1
 101.667 170 l 1xdc
 102.667 125 112.667 92 132.667 69 c 0
 151.667 46 181.667 34 220.667 33 c 1
 220.667 270 l 1
 160.667 291 119.667 315 94.667 342 c 0
 70.667 369 58.667 405 58.667 450 c 0xe8
 58.667 502 72.667 544 101.667 576 c 0
 129.667 607 169.667 625 220.667 629 c 1
 220.667 760 l 1
 259.667 760 l 1
 259.667 629 l 1
 285.667 626 310.667 621 335.667 613 c 0
 359.667 605 384.667 594 407.667 581 c 1
 407.667 453 l 1
 364.667 453 l 1xda
 361.667 491 350.667 521 332.667 542 c 1
 314.667 564 289.667 577 259.667 580 c 1
 259.667 359 l 1
 323.667 337 368.667 312 394.667 284 c 0
 420.667 256 432.667 218 432.667 171 c 0
 432.667 117 417.667 74 387.667 41 c 0
 357.667 8 314.667 -10 259.667 -15 c 1
 259.667 -147 l 1
 220.667 -147 l 1
 220.667 -15 l 1
 195.667 -14 169.667 -10 143.667 -2 c 0
 116.667 7 88.667 19 59.667 35 c 1xdc
EndSplineSet
EndChar

StartChar: percent
Encoding: 37 37 6
Width: 600
GlyphClass: 2
Flags: HMW
HStem: -14 36 268 35 424 35 706 36<145 162>
VStem: 51.9997 47<564 602 564 608> 208 47<564 602> 244 47<125 164 125 169> 400 47<125 164>
LayerCount: 2
Fore
SplineSet
154 706 m 0xfd
 137 706 124 695 114 673 c 0
 104 651 99 621 99 583 c 0
 99 545 104 514 114 492 c 1
 124 470 137 460 154 460 c 0
 171 460 183 470 193 492 c 0
 203 514 208 545 208 583 c 0
 208 621 203 651 193 673 c 0
 183 695 171 706 154 706 c 0xfd
346 268 m 0
 329 268 316 258 306 236 c 0
 296 214 291 183 291 144 c 0xfb
 291 106 296 77 306 55 c 1
 316 33 329 22 346 22 c 0
 363 22 375 33 385 55 c 0
 395 77 400 106 400 144 c 0
 400 182 395 214 385 236 c 0
 375 258 363 268 346 268 c 0
346 304 m 0
 377 304 401 289 420 260 c 0
 438 231 447 193 447 144 c 0
 447 95 438 57 419 28 c 0
 401 0 377 -14 346 -14 c 0
 315 -14 290 0 272 28 c 0
 253 57 244 95 244 144 c 0
 244 193 253 232 272 260 c 1
 290 289 315 304 346 304 c 0
407 742 m 1
 466 742 l 1
 101 0 l 1
 42 0 l 1
 407 742 l 1
153 742 m 0
 184 742 209 728 227 700 c 0
 246 671 255 633 255 584 c 0xfd
 255 534 246 496 227 467 c 0
 209 439 184 424 153 424 c 0
 122 424 97 439 79 468 c 0
 61 496 52 535 52 584 c 0
 52 632 61 671 80 699 c 1
 98 728 122 742 153 742 c 0
EndSplineSet
EndChar

StartChar: ampersand
Encoding: 38 38 7
Width: 600
GlyphClass: 2
Flags: HMW
HStem: -14 59<204.334 222.334> 0 52<453.334 479.334 453.334 479.334> 362 52<399.334 424.334 399.334 483.334 461.334 461.334 461.334 483.334> 690 52<219.334 239.334 211.334 242.334>
VStem: 33.3337 63 99.3337 60 309.334 35
LayerCount: 2
Fore
SplineSet
333.333 113 m 1xbe
 151.333 412 l 1
 133.333 387 119.333 359 110.333 330 c 0
 101.333 300 97.333 269 97.333 236 c 0
 97.333 182 108.333 136 132.333 100 c 0
 156.333 63 186.333 45 222.333 45 c 0
 243.333 45 263.333 51 282.333 62 c 0
 301.333 74 318.333 91 333.333 113 c 1xbe
479.333 0 m 1x7e
 401.333 0 l 1x7e
 358.333 71 l 1
 336.333 42 313.333 21 289.333 7 c 0
 264.333 -7 237.333 -14 208.333 -14 c 0xbe
 154.333 -14 112.333 7 81.333 50 c 0
 49.333 93 33.333 152 33.333 225 c 0
 33.333 268 41.333 309 57.333 346 c 0
 73.333 384 97.333 419 129.333 452 c 1
 119.333 472 110.333 492 106.333 511 c 0
 101.333 531 99.333 552 99.333 573 c 0
 99.333 625 110.333 666 134.333 697 c 0
 158.333 727 191.333 742 232.333 742 c 0
 246.333 742 261.333 739 280.333 734 c 0
 299.333 728 320.333 720 344.333 709 c 1
 344.333 583 l 1
 309.333 583 l 1
 306.333 618 298.333 644 285.333 663 c 0
 272.333 681 253.333 690 230.333 690 c 0
 208.333 690 191.333 681 178.333 662 c 0
 165.333 644 158.333 620 158.333 591 c 0
 158.333 571 162.333 551 169.333 531 c 0
 176.333 512 191.333 484 213.333 447 c 2
 374.333 181 l 1
 388.333 207 400.333 235 408.333 265 c 0
 416.333 295 422.333 328 424.333 362 c 1
 399.333 362 l 1
 399.333 414 l 1
 483.333 414 l 1
 483.333 362 l 1
 461.333 362 l 1
 458.333 319 451.333 280 441.333 243 c 0
 431.333 206 416.333 172 399.333 141 c 1
 453.333 52 l 1
 479.333 52 l 1
 479.333 0 l 1x7e
EndSplineSet
EndChar

StartChar: quotesingle
Encoding: 39 39 8
Width: 600
GlyphClass: 2
Flags: HMW
HStem: 709 20G<162.666 224.666 224.666 224.666>
VStem: 162.666 62<458 729 458 729>
LayerCount: 2
Fore
SplineSet
224.667 729 m 1
 224.667 458 l 1
 162.667 458 l 1
 162.667 729 l 1
 224.667 729 l 1
EndSplineSet
EndChar

StartChar: parenleft
Encoding: 40 40 9
Width: 600
GlyphClass: 2
Flags: HMW
VStem: 119.334 79<245 358 245 360>
LayerCount: 2
Fore
SplineSet
311.333 -156 m 1
 248.333 -120 200.333 -64 168.333 13 c 0
 135.333 90 119.333 186 119.333 302 c 0
 119.333 418 135.333 514 168.333 591 c 0
 200.333 668 248.333 724 311.333 760 c 1
 311.333 712 l 1
 271.333 677 243.333 629 225.333 566 c 0
 207.333 503 198.333 415 198.333 302 c 0
 198.333 188 207.333 101 225.333 38 c 0
 243.333 -25 271.333 -73 311.333 -108 c 1
 311.333 -156 l 1
EndSplineSet
EndChar

StartChar: parenright
Encoding: 41 41 10
Width: 600
GlyphClass: 2
Flags: HMW
VStem: 232.334 79<245 358>
LayerCount: 2
Fore
SplineSet
119.333 -156 m 1
 119.333 -108 l 1
 159.333 -73 187.333 -25 205.333 38 c 0
 223.333 101 232.333 188 232.333 302 c 0
 232.333 415 223.333 503 205.333 566 c 0
 187.333 629 159.333 677 119.333 712 c 1
 119.333 760 l 1
 182.333 724 230.333 668 262.333 591 c 0
 295.333 514 311.333 418 311.333 302 c 0
 311.333 186 295.333 90 262.333 13 c 0
 230.333 -64 182.333 -120 119.333 -156 c 1
EndSplineSet
EndChar

StartChar: asterisk
Encoding: 42 42 11
Width: 600
GlyphClass: 2
Flags: HMW
HStem: 722 20G<219.666 271.666 271.666 271.666>
VStem: 223.666 43<473 473>
LayerCount: 2
Fore
SplineSet
432.667 604 m 1
 279.667 515 l 1
 432.667 425 l 1
 403.667 367 l 1
 267.667 473 l 1
 271.667 287 l 1
 219.667 287 l 1
 223.667 473 l 1
 87.667 367 l 1
 58.667 425 l 1
 211.667 514 l 1
 58.667 604 l 1
 87.667 662 l 1
 223.667 556 l 1
 219.667 742 l 1
 271.667 742 l 1
 267.667 556 l 1
 403.667 662 l 1
 432.667 604 l 1
EndSplineSet
EndChar

StartChar: plus
Encoding: 43 43 12
Width: 600
GlyphClass: 2
Flags: HMW
HStem: 272 83<46 219 46 219 285 458 46 285>
VStem: 219 66<55 272 55 272 355 572>
LayerCount: 2
Fore
SplineSet
285 572 m 1
 285 355 l 1
 458 355 l 1
 458 272 l 1
 285 272 l 1
 285 55 l 1
 219 55 l 1
 219 272 l 1
 46 272 l 1
 46 355 l 1
 219 355 l 1
 219 572 l 1
 285 572 l 1
EndSplineSet
EndChar

StartChar: comma
Encoding: 44 44 13
Width: 600
GlyphClass: 2
Flags: HMW
VStem: 205 77<93 111 111 111>
LayerCount: 2
Fore
SplineSet
134 -97 m 1
 159 -75 176 -48 188 -18 c 1
 199 13 205 49 205 93 c 2
 205 111 l 1
 282 111 l 1
 280 55 269 7 251 -32 c 0
 232 -72 203 -107 165 -136 c 1
 134 -97 l 1
EndSplineSet
EndChar

StartChar: hyphen
Encoding: 45 45 14
Width: 600
GlyphClass: 2
Flags: HMW
HStem: 234 80<115.334 319.334 115.334 319.334>
LayerCount: 2
Fore
SplineSet
115.333 314 m 1
 319.333 314 l 1
 319.333 234 l 1
 115.333 234 l 1
 115.333 314 l 1
EndSplineSet
EndChar

StartChar: period
Encoding: 46 46 15
Width: 600
GlyphClass: 2
Flags: HW
LayerCount: 2
Fore
SplineSet
148.667 51 m 0
 148.667 69 153.667 84 163.667 97 c 0
 173.667 110 186.667 116 200.667 116 c 0
 214.667 116 227.667 110 237.667 97 c 0
 247.667 84 252.667 69 252.667 51 c 0
 252.667 33 247.667 18 237.667 5 c 0
 227.667 -8 214.667 -14 200.667 -14 c 0
 186.667 -14 173.667 -8 163.667 5 c 1
 153.667 17 148.667 33 148.667 51 c 0
EndSplineSet
EndChar

StartChar: slash
Encoding: 47 47 16
Width: 600
GlyphClass: 2
Flags: HMW
HStem: 709 20G<363.333 437.333 437.333 437.333>
LayerCount: 2
Fore
SplineSet
363.333 729 m 1
 437.333 729 l 1
 130.333 -93 l 1
 56.333 -93 l 1
 363.333 729 l 1
EndSplineSet
EndChar

StartChar: zero
Encoding: 48 48 17
Width: 600
GlyphClass: 2
Flags: HMW
HStem: -14 48<227.334 264.334 227.334 275.334> 694 48<227.334 264.334>
VStem: 58.3337 77 356.334 77
LayerCount: 2
Fore
SplineSet
194.333 366 m 0
 194.333 384 199.333 399 209.333 412 c 0
 219.333 425 231.333 432 245.333 432 c 0
 259.333 432 272.333 425 282.333 412 c 0
 292.333 399 298.333 384 298.333 366 c 0
 298.333 348 293.333 333 283.333 320 c 0
 273.333 307 260.333 301 245.333 301 c 0
 230.333 301 218.333 308 208.333 320 c 0
 198.333 332 194.333 347 194.333 366 c 0
245.333 34 m 0
 282.333 34 310.333 62 329.333 116 c 1
 347.333 171 356.333 253 356.333 364 c 0
 356.333 474 347.333 557 329.333 612 c 0
 310.333 667 282.333 694 245.333 694 c 0
 208.333 694 181.333 667 162.333 612 c 0
 143.333 557 135.333 474 135.333 364 c 0
 135.333 253 143.333 171 162.333 116 c 0
 181.333 62 208.333 34 245.333 34 c 0
245.333 -14 m 0
 186.333 -14 141.333 19 108.333 85 c 0
 75.333 152 58.333 245 58.333 364 c 0
 58.333 483 75.333 576 108.333 643 c 0
 141.333 709 186.333 742 245.333 742 c 0
 304.333 742 350.333 709 383.333 643 c 0
 416.333 576 433.333 483 433.333 364 c 0
 433.333 245 416.333 152 383.333 85 c 0
 350.333 19 304.333 -14 245.333 -14 c 0
EndSplineSet
EndChar

StartChar: one
Encoding: 49 49 18
Width: 600
GlyphClass: 2
Flags: HMW
HStem: 0 52<99.9997 202 99.9997 202 280 382> 722 20G<227 280 280 280>
VStem: 202 78<52 658 658 658>
LayerCount: 2
Fore
SplineSet
100 0 m 1
 100 52 l 1
 202 52 l 1
 202 658 l 1
 84 563 l 1
 84 627 l 1
 227 742 l 1
 280 742 l 1
 280 52 l 1
 382 52 l 1
 382 0 l 1
 100 0 l 1
EndSplineSet
EndChar

StartChar: two
Encoding: 50 50 19
Width: 600
GlyphClass: 2
Flags: HMW
HStem: 0 80<145.334 386.334 145.334 431.334> 694 48<215.334 245.334>
VStem: 63.3337 44<555 685> 342.334 82<514 562> 386.334 45<80 170 0 170>
LayerCount: 2
Fore
SplineSet
106.333 555 m 1xf0
 63.333 555 l 1
 63.333 685 l 1
 91.333 704 118.333 718 146.333 728 c 1
 175.333 737 201.333 742 228.333 742 c 0
 288.333 742 336.333 724 371.333 687 c 0
 406.333 650 423.333 600 423.333 537 c 0xf0
 423.333 466 383.333 381 304.333 281 c 2
 291.333 264 l 1
 145.333 80 l 1
 386.333 80 l 1
 386.333 170 l 1
 431.333 170 l 1
 431.333 0 l 1xe8
 59.333 0 l 1
 59.333 53 l 1
 234.333 274 l 2
 273.333 323 300.333 368 317.333 408 c 1
 333.333 449 342.333 492 342.333 537 c 0
 342.333 586 332.333 625 311.333 652 c 1
 291.333 680 264.333 694 228.333 694 c 0
 191.333 694 162.333 682 142.333 659 c 0
 121.333 636 109.333 601 106.333 555 c 1xf0
EndSplineSet
EndChar

StartChar: three
Encoding: 51 51 20
Width: 600
GlyphClass: 2
Flags: HMW
HStem: -14 48<212 246 208 258> 370 50<183 201 201 217 183 201> 694 48<222 243>
VStem: 63.0003 41 78.0003 41 328 74 348 77
LayerCount: 2
Fore
SplineSet
78 698 m 1xec
 106 713 134 723 160 731 c 0
 186 738 211 742 233 742 c 0
 286 742 327 727 357 696 c 0
 387 665 402 623 402 568 c 0xec
 402 524 391 487 371 458 c 0
 350 428 322 408 284 398 c 1
 329 389 362 368 387 333 c 0
 412 298 424 252 424 197 c 0
 424 129 407 77 373 40 c 0
 340 4 290 -14 226 -14 c 0
 198 -14 171 -10 143 -2 c 0
 116 6 90 19 63 35 c 1
 63 177 l 1
 104 177 l 1
 106 130 118 94 139 70 c 0
 161 46 189 34 228 34 c 0
 265 34 294 49 316 77 c 0
 338 106 348 146 348 196 c 0xf2
 348 253 337 296 315 326 c 1
 293 355 259 370 217 370 c 2
 183 370 l 1
 183 420 l 1
 201 420 l 2
 243 420 275 432 296 455 c 0
 318 479 328 514 328 562 c 0
 328 605 319 637 302 660 c 0
 285 683 260 694 227 694 c 0
 194 694 169 683 151 663 c 0
 132 642 122 611 119 570 c 1
 78 570 l 1
 78 698 l 1xec
EndSplineSet
EndChar

StartChar: four
Encoding: 52 52 21
Width: 600
GlyphClass: 2
Flags: HMW
HStem: 0 52<243.333 297.333 375.333 429.333 243.333 297.333> 195 52<98.3333 297.333 98.3333 297.333 375.333 463.333> 722 20G<298.333 375.333 375.333 375.333>
VStem: 297.333 78<52 195 52 195 247 635 635 635>
LayerCount: 2
Fore
SplineSet
297.333 247 m 1
 297.333 635 l 1
 98.333 247 l 1
 297.333 247 l 1
429.333 0 m 1
 243.333 0 l 1
 243.333 52 l 1
 297.333 52 l 1
 297.333 195 l 1
 43.333 195 l 1
 43.333 248 l 1
 298.333 742 l 1
 375.333 742 l 1
 375.333 247 l 1
 463.333 247 l 1
 463.333 195 l 1
 375.333 195 l 1
 375.333 52 l 1
 429.333 52 l 1
 429.333 0 l 1
EndSplineSet
EndChar

StartChar: five
Encoding: 53 53 22
Width: 600
GlyphClass: 2
Flags: HMW
HStem: -14 48<213 245 208 257> 427 48<221 246> 649 80<129 396 129 129>
VStem: 61.9997 44<35 177 177 177> 86.9997 42 347 78
LayerCount: 2
Fore
SplineSet
396 729 m 1xec
 396 649 l 1
 129 649 l 1
 129 440 l 1xec
 143 452 157 460 174 466 c 0
 191 472 211 475 232 475 c 0
 292 475 339 453 374 410 c 1
 408 366 426 306 426 231 c 0
 426 154 408 94 373 51 c 0
 338 7 289 -14 226 -14 c 0
 200 -14 175 -10 148 -2 c 0
 121 6 92 19 62 35 c 1
 62 177 l 1
 106 177 l 1xf4
 108 131 121 95 141 71 c 0
 162 46 190 34 226 34 c 0
 265 34 295 51 316 85 c 0
 337 119 347 167 347 231 c 0
 347 294 337 343 316 376 c 0
 295 410 266 427 226 427 c 0
 204 427 184 422 167 411 c 1
 150 401 135 385 121 363 c 1
 87 363 l 1
 87 729 l 1
 396 729 l 1xec
EndSplineSet
EndChar

StartChar: six
Encoding: 54 54 23
Width: 600
GlyphClass: 2
Flags: HMW
HStem: -14 48<233.667 268.667 233.667 276.667> 426 48<246.667 268.667> 694 48<249.667 286.667>
VStem: 57.6667 75 357.667 77 364.667 41
LayerCount: 2
Fore
SplineSet
250.667 34 m 0xf8
 284.667 34 310.667 51 329.667 85 c 0
 348.667 118 357.667 167 357.667 230 c 0
 357.667 293 348.667 342 329.667 375 c 0
 310.667 409 284.667 426 250.667 426 c 0
 216.667 426 190.667 410 172.667 377 c 0
 153.667 344 144.667 297 144.667 236 c 0
 144.667 171 153.667 121 172.667 86 c 0
 191.667 52 216.667 34 250.667 34 c 0xf8
132.667 401 m 1
 148.667 426 167.667 444 188.667 456 c 0
 209.667 468 233.667 474 259.667 474 c 0
 313.667 474 356.667 452 387.667 409 c 0
 418.667 365 434.667 306 434.667 230 c 0xf8
 434.667 156 417.667 97 383.667 52 c 0
 350.667 8 305.667 -14 248.667 -14 c 0
 187.667 -14 139.667 17 106.667 78 c 0
 73.667 139 57.667 227 57.667 341 c 0
 57.667 468 77.667 567 116.667 637 c 0
 155.667 707 209.667 742 280.667 742 c 0
 299.667 742 320.667 740 341.667 735 c 0
 363.667 730 383.667 723 405.667 713 c 1
 405.667 593 l 1
 364.667 593 l 1xf4
 361.667 626 352.667 651 336.667 668 c 0
 320.667 685 300.667 694 273.667 694 c 0
 226.667 694 191.667 670 168.667 622 c 0
 145.667 574 133.667 501 132.667 401 c 1
EndSplineSet
EndChar

StartChar: seven
Encoding: 55 55 24
Width: 600
GlyphClass: 2
Flags: HMW
HStem: 0 21G<154.666 209.666 154.666 154.666> 649 80<104.666 360.666 104.666 104.666>
VStem: 61.6663 43
LayerCount: 2
Fore
SplineSet
426.667 679 m 1
 209.667 0 l 1
 154.667 0 l 1
 360.667 649 l 1
 104.667 649 l 1
 104.667 559 l 1
 61.667 559 l 1
 61.667 729 l 1
 426.667 729 l 1
 426.667 679 l 1
EndSplineSet
EndChar

StartChar: eight
Encoding: 56 56 25
Width: 600
GlyphClass: 2
Flags: HMW
HStem: -14 48<228.333 264.333 228.333 276.333> 364 48<231.333 261.333 231.333 264.333> 694 48<231.333 261.333>
VStem: 57.333 77 75.333 74 342.333 74 357.333 77
LayerCount: 2
Fore
SplineSet
357.333 199 m 0xf2
 357.333 251 348.333 292 328.333 321 c 0
 308.333 349 281.333 364 246.333 364 c 0
 211.333 364 184.333 349 164.333 321 c 0
 144.333 292 135.333 251 135.333 199 c 0
 135.333 147 144.333 106 164.333 77 c 0
 184.333 49 211.333 34 246.333 34 c 0
 281.333 34 308.333 49 328.333 77 c 0
 348.333 106 357.333 147 357.333 199 c 0xf2
342.333 553 m 0xec
 342.333 597 334.333 632 317.333 657 c 0
 300.333 681 276.333 694 246.333 694 c 0
 216.333 694 192.333 681 175.333 657 c 0
 158.333 632 150.333 597 150.333 553 c 0
 150.333 509 158.333 474 175.333 449 c 0
 192.333 424 216.333 412 246.333 412 c 0
 276.333 412 300.333 424 317.333 449 c 0
 334.333 474 342.333 509 342.333 553 c 0xec
302.333 388 m 1
 343.333 381 376.333 360 399.333 327 c 0
 422.333 294 435.333 251 435.333 199 c 0
 435.333 131 418.333 78 386.333 41 c 0
 354.333 4 307.333 -14 246.333 -14 c 0
 185.333 -14 139.333 4 106.333 41 c 0
 74.333 78 57.333 131 57.333 199 c 0xf2
 57.333 251 69.333 294 92.333 327 c 0
 115.333 360 149.333 381 190.333 388 c 1
 153.333 397 125.333 416 105.333 444 c 0
 85.333 473 75.333 509 75.333 553 c 0
 75.333 612 90.333 658 120.333 692 c 1
 151.333 725 193.333 742 246.333 742 c 0
 299.333 742 341.333 725 371.333 692 c 0
 402.333 658 417.333 612 417.333 553 c 0
 417.333 509 407.333 473 387.333 444 c 1
 367.333 416 339.333 397 302.333 388 c 1
EndSplineSet
EndChar

StartChar: nine
Encoding: 57 57 26
Width: 600
GlyphClass: 2
Flags: HMW
HStem: -14 48<204.666 241.666 204.666 246.666> 254 48<223.666 244.666> 694 48<223.666 257.666>
VStem: 57.6663 77 85.6663 41 358.666 75
LayerCount: 2
Fore
SplineSet
358.667 327 m 1xec
 342.667 302 324.667 284 303.667 272 c 0
 281.667 260 257.667 254 231.667 254 c 0
 177.667 254 135.667 276 104.667 319 c 0
 73.667 363 57.667 423 57.667 498 c 0xf4
 57.667 572 75.667 631 108.667 676 c 1
 142.667 720 186.667 742 243.667 742 c 0
 304.667 742 351.667 712 384.667 650 c 0
 417.667 589 434.667 501 434.667 387 c 0
 434.667 260 414.667 161 375.667 91 c 0
 336.667 21 281.667 -14 210.667 -14 c 0
 191.667 -14 171.667 -12 150.667 -7 c 0
 129.667 -2 107.667 5 85.667 15 c 1
 85.667 136 l 1
 126.667 136 l 1
 129.667 103 139.667 78 155.667 61 c 0
 171.667 43 191.667 34 218.667 34 c 0
 265.667 34 300.667 58 323.667 106 c 0
 346.667 153 357.667 227 358.667 327 c 1xec
240.667 694 m 0
 206.667 694 179.667 677 161.667 643 c 1
 142.667 610 134.667 561 134.667 498 c 0
 134.667 435 142.667 386 161.667 353 c 1
 179.667 319 206.667 302 240.667 302 c 0
 274.667 302 301.667 318 319.667 351 c 0
 338.667 384 346.667 431 346.667 492 c 0
 346.667 557 338.667 607 319.667 642 c 0
 300.667 676 274.667 694 240.667 694 c 0
EndSplineSet
EndChar

StartChar: colon
Encoding: 58 58 27
Width: 600
GlyphClass: 2
Flags: HMW
VStem: 148.666 104<42 60 360 378>
LayerCount: 2
Fore
SplineSet
148.667 51 m 0
 148.667 69 153.667 84 163.667 97 c 0
 173.667 110 186.667 116 200.667 116 c 0
 214.667 116 227.667 110 237.667 97 c 0
 247.667 84 252.667 69 252.667 51 c 0
 252.667 33 247.667 17 237.667 5 c 1
 227.667 -8 215.667 -14 200.667 -14 c 0
 185.667 -14 173.667 -8 163.667 5 c 1
 153.667 17 148.667 33 148.667 51 c 0
148.667 369 m 0
 148.667 387 153.667 403 163.667 415 c 1
 173.667 428 186.667 434 200.667 434 c 0
 215.667 434 227.667 428 237.667 416 c 0
 247.667 403 252.667 388 252.667 369 c 0
 252.667 351 247.667 335 237.667 323 c 1
 227.667 310 215.667 304 200.667 304 c 0
 186.667 304 173.667 310 163.667 323 c 0
 153.667 336 148.667 351 148.667 369 c 0
EndSplineSet
EndChar

StartChar: semicolon
Encoding: 59 59 28
Width: 600
GlyphClass: 2
Flags: HMW
VStem: 201 77<93 111 111 111>
LayerCount: 2
Fore
SplineSet
130 -97 m 1
 155 -75 172 -48 184 -18 c 1
 195 13 201 49 201 93 c 2
 201 111 l 1
 278 111 l 1
 276 55 265 7 247 -32 c 0
 228 -72 199 -107 161 -136 c 1
 130 -97 l 1
186 369 m 0
 186 387 191 403 201 415 c 1
 211 428 224 434 238 434 c 0
 252 434 265 428 275 415 c 0
 285 402 290 387 290 369 c 0
 290 351 285 336 275 323 c 0
 265 310 252 304 238 304 c 0
 224 304 211 310 201 323 c 0
 191 336 186 351 186 369 c 0
EndSplineSet
EndChar

StartChar: less
Encoding: 60 60 29
Width: 600
GlyphClass: 2
Flags: HW
LayerCount: 2
Fore
SplineSet
458 469 m 1
 126 313 l 1
 458 158 l 1
 458 69 l 1
 46 273 l 1
 46 354 l 1
 458 558 l 1
 458 469 l 1
EndSplineSet
EndChar

StartChar: equal
Encoding: 61 61 30
Width: 600
GlyphClass: 2
Flags: HMW
HStem: 172 84<46 458 46 458> 371 83<46 458 46 458>
LayerCount: 2
Fore
SplineSet
46 256 m 1
 458 256 l 1
 458 172 l 1
 46 172 l 1
 46 256 l 1
46 454 m 1
 458 454 l 1
 458 371 l 1
 46 371 l 1
 46 454 l 1
EndSplineSet
EndChar

StartChar: greater
Encoding: 62 62 31
Width: 600
GlyphClass: 2
Flags: HW
LayerCount: 2
Fore
SplineSet
46 469 m 1
 46 558 l 1
 458 354 l 1
 458 273 l 1
 46 69 l 1
 46 158 l 1
 378 313 l 1
 46 469 l 1
EndSplineSet
EndChar

StartChar: question
Encoding: 63 63 32
Width: 600
GlyphClass: 2
Flags: HMW
HStem: 694 48<209.334 235.334>
VStem: 185.334 48<194 318 194 354 194 354> 325.334 82<524 572>
LayerCount: 2
Fore
SplineSet
157.333 51 m 0
 157.333 69 163.333 84 173.333 97 c 0
 183.333 110 195.333 116 209.333 116 c 0
 223.333 116 236.333 110 246.333 97 c 0
 256.333 84 261.333 69 261.333 51 c 0
 261.333 33 256.333 18 246.333 5 c 0
 236.333 -8 223.333 -14 209.333 -14 c 0
 195.333 -14 183.333 -8 173.333 5 c 1
 163.333 17 157.333 33 157.333 51 c 0
71.333 697 m 1
 98.333 712 124.333 723 149.333 731 c 0
 174.333 738 198.333 742 220.333 742 c 0
 278.333 742 323.333 725 357.333 690 c 0
 391.333 655 407.333 608 407.333 549 c 0
 407.333 488 393.333 439 364.333 400 c 0
 335.333 362 291.333 334 233.333 318 c 1
 233.333 194 l 1
 185.333 194 l 1
 185.333 354 l 1
 231.333 368 266.333 391 289.333 424 c 0
 312.333 457 325.333 499 325.333 550 c 0
 325.333 594 315.333 630 296.333 655 c 0
 277.333 681 251.333 694 218.333 694 c 0
 188.333 694 163.333 683 145.333 662 c 0
 126.333 641 115.333 610 109.333 570 c 1
 71.333 570 l 1
 71.333 697 l 1
EndSplineSet
EndChar

StartChar: at
Encoding: 64 64 33
Width: 600
GlyphClass: 2
Flags: HMW
HStem: -174 51 42 57 425 57 640 50
VStem: 31.0003 59 186 62 427 61<42 121 121 121 237 288 288 309 403 472 42 472 42 496>
LayerCount: 2
Fore
SplineSet
488 472 m 2
 488 42 l 1
 427 42 l 1
 427 121 l 1
 412 94 398 75 381 62 c 0
 364 49 344 42 323 42 c 0
 282 42 250 62 224 103 c 0
 199 144 186 197 186 262 c 0
 186 328 199 381 224 421 c 0
 250 462 282 482 323 482 c 0
 344 482 364 475 381 462 c 0
 398 449 412 430 427 403 c 1
 427 472 l 2
 427 519 413 581 392 606 c 0
 373 629 347 640 319 640 c 0
 295 640 268 632 243 616 c 0
 196 587 156 539 130 478 c 0
 104 416 90 346 90 265 c 0
 90 211 97 161 108 115 c 0
 120 69 136 30 158 -4 c 0
 184 -43 214 -72 248 -93 c 1
 283 -113 320 -123 360 -123 c 0
 390 -123 418 -117 444 -104 c 1
 449 -151 l 1
 418 -166 383 -174 345 -174 c 0
 302 -174 262 -163 224 -141 c 0
 186 -120 151 -89 122 -49 c 0
 92 -7 70 40 54 93 c 0
 39 146 31 204 31 265 c 0
 31 325 39 382 55 435 c 0
 70 488 92 535 122 576 c 0
 151 617 195 659 226 671 c 0
 261 684 292 690 320 690 c 0
 369 690 406 672 432 646 c 0
 479 598 488 523 488 472 c 2
427 237 m 2
 427 288 l 2
 427 329 418 362 402 387 c 0
 386 412 363 425 337 425 c 0
 309 425 288 411 272 382 c 0
 256 354 248 314 248 262 c 0
 248 210 256 170 272 142 c 0
 288 113 310 99 338 99 c 0
 364 99 386 112 402 137 c 0
 418 163 427 196 427 237 c 2
EndSplineSet
EndChar

StartChar: A
Encoding: 65 65 34
Width: 600
GlyphClass: 2
Flags: HMW
HStem: 0 52<28.6667 55.6667 104.667 144.667 28.6667 55.6667 328.667 369.667 458.667 492.667> 212 52<153.667 317.667 153.667 330.667 141.667 317.667> 709 20G<219.667 285.667 285.667 285.667>
LayerCount: 2
Fore
SplineSet
104.667 52 m 1
 144.667 52 l 1
 144.667 0 l 1
 28.667 0 l 1
 28.667 52 l 1
 55.667 52 l 1
 219.667 729 l 1
 285.667 729 l 1
 458.667 52 l 1
 492.667 52 l 1
 492.667 0 l 1
 328.667 0 l 1
 328.667 52 l 1
 369.667 52 l 1
 330.667 212 l 1
 141.667 212 l 1
 104.667 52 l 1
153.667 264 m 1
 317.667 264 l 1
 232.667 611 l 1
 153.667 264 l 1
EndSplineSet
EndChar

StartChar: B
Encoding: 66 66 35
Width: 600
GlyphClass: 2
Flags: HMW
HStem: 0 52<39.6667 89.6667 39.6667 89.6667 169.667 245.667> 369 52<169.667 228.667 228.667 245.667 169.667 228.667> 677 52<39.6667 89.6667 39.6667 263.667 169.667 228.667 169.667 169.667>
VStem: 89.6667 79<52 369 421 677> 351.667 90<527 571> 381.667 90<183 238 175 238>
LayerCount: 2
Fore
SplineSet
169.667 52 m 1xf4
 245.667 52 l 2
 292.667 52 326.667 65 348.667 90 c 0
 370.667 115 381.667 156 381.667 211 c 0
 381.667 266 370.667 306 348.667 331 c 0
 326.667 356 292.667 369 245.667 369 c 2
 169.667 369 l 1
 169.667 52 l 1xf4
169.667 421 m 1
 228.667 421 l 2
 271.667 421 301.667 432 321.667 452 c 0
 341.667 472 351.667 504 351.667 549 c 0xf8
 351.667 594 341.667 626 321.667 646 c 0
 301.667 666 271.667 677 228.667 677 c 2
 169.667 677 l 1
 169.667 421 l 1
39.667 0 m 1
 39.667 52 l 1
 89.667 52 l 1
 89.667 677 l 1
 39.667 677 l 1
 39.667 729 l 1
 263.667 729 l 2
 322.667 729 366.667 714 396.667 684 c 0
 426.667 654 441.667 609 441.667 549 c 0xf8
 441.667 506 431.667 472 410.667 446 c 0
 389.667 420 359.667 404 319.667 398 c 1
 369.667 390 406.667 370 432.667 338 c 0
 458.667 306 470.667 264 470.667 211 c 0xf4
 470.667 139 452.667 86 415.667 52 c 0
 378.667 18 322.667 0 245.667 0 c 2
 39.667 0 l 1
EndSplineSet
EndChar

StartChar: C
Encoding: 67 67 36
Width: 600
GlyphClass: 2
Flags: HMW
HStem: -14 52<248.334 277.334 243.334 285.334> 690 52<243.334 279.334 235.334 279.334>
VStem: 54.3337 90 376.334 52
LayerCount: 2
Fore
SplineSet
441.333 193 m 1
 429.333 125 406.333 73 376.333 38 c 0
 346.333 3 308.333 -14 262.333 -14 c 0
 233.333 -14 207.333 -6 183.333 10 c 1
 159.333 27 138.333 50 119.333 82 c 0
 98.333 118 81.333 160 70.333 206 c 0
 59.333 253 54.333 305 54.333 364 c 0
 54.333 477 74.333 568 113.333 638 c 1
 152.333 707 203.333 742 267.333 742 c 0
 291.333 742 315.333 737 342.333 727 c 0
 369.333 716 398.333 700 429.333 679 c 1
 429.333 511 l 1
 376.333 511 l 1
 370.333 572 359.333 618 340.333 646 c 1
 322.333 675 296.333 690 263.333 690 c 0
 224.333 690 194.333 662 174.333 607 c 0
 154.333 552 144.333 471 144.333 364 c 0
 144.333 257 154.333 176 174.333 121 c 0
 194.333 66 224.333 38 263.333 38 c 0
 290.333 38 312.333 51 330.333 77 c 0
 348.333 103 361.333 141 369.333 193 c 1
 441.333 193 l 1
EndSplineSet
EndChar

StartChar: D
Encoding: 68 68 37
Width: 600
GlyphClass: 2
Flags: HMW
HStem: 0 52<41.9997 41.9997 41.9997 83.9997 164 200 200 205> 677 52<41.9997 83.9997 41.9997 205 164 200 164 164>
VStem: 83.9997 79 376 90
LayerCount: 2
Fore
SplineSet
164 52 m 1
 200 52 l 2
 270 52 376 98 376 365 c 0
 376 633 270 677 200 677 c 2
 164 677 l 1
 164 52 l 1
42 0 m 1
 42 52 l 1
 84 52 l 1
 84 677 l 1
 42 677 l 1
 42 729 l 1
 205 729 l 2
 362 729 466 567 466 365 c 0
 466 164 362 0 205 0 c 2
 42 0 l 1
EndSplineSet
EndChar

StartChar: E
Encoding: 69 69 38
Width: 600
GlyphClass: 2
Flags: HMW
HStem: 0 52<48.6663 98.6663 48.6663 98.6663 48.6663 452.666> 0 60<177.666 404.666 177.666 452.666> 365 60<177.666 320.666 177.666 320.666> 669 60<177.666 397.666 177.666 177.666> 677 52<48.6663 98.6663 48.6663 445.666>
VStem: 98.6663 79<60 365 425 669> 320.666 48<274 365 365 365 425 516 274 516> 397.666 48<567 669 669 669> 404.666 48<60 162 0 162>
LayerCount: 2
Fore
SplineSet
48.667 0 m 1xa680
 48.667 52 l 1
 98.667 52 l 1
 98.667 677 l 1
 48.667 677 l 1
 48.667 729 l 1xae80
 445.667 729 l 1
 445.667 567 l 1
 397.667 567 l 1
 397.667 669 l 1x37
 177.667 669 l 1
 177.667 425 l 1
 320.667 425 l 1
 320.667 516 l 1
 368.667 516 l 1
 368.667 274 l 1
 320.667 274 l 1
 320.667 365 l 1
 177.667 365 l 1
 177.667 60 l 1
 404.667 60 l 1
 404.667 162 l 1
 452.667 162 l 1
 452.667 0 l 1x7680
 48.667 0 l 1xa680
EndSplineSet
EndChar

StartChar: F
Encoding: 70 70 39
Width: 600
GlyphClass: 2
Flags: HMW
HStem: 0 52<52 103 52 103 182 275> 365 60<182 321 182 321> 669 60<182 398 182 182> 677 52<52 103 52 446>
VStem: 103 79<52 365 425 669> 321 48<274 365 365 365 425 516 274 516> 398 48<567 669 669 669>
LayerCount: 2
Fore
SplineSet
52 0 m 1xee
 52 52 l 1
 103 52 l 1
 103 677 l 1
 52 677 l 1
 52 729 l 1xde
 446 729 l 1
 446 567 l 1
 398 567 l 1
 398 669 l 1
 182 669 l 1
 182 425 l 1
 321 425 l 1
 321 516 l 1
 369 516 l 1
 369 274 l 1
 321 274 l 1
 321 365 l 1
 182 365 l 1
 182 52 l 1
 275 52 l 1
 275 0 l 1
 52 0 l 1xee
EndSplineSet
EndChar

StartChar: G
Encoding: 71 71 40
Width: 600
GlyphClass: 2
Flags: HMW
HStem: -14 52<246 275 246 284> 281 52<298 365 298 444> 690 52<245 281>
VStem: 52.9997 90 365 79 374 55
LayerCount: 2
Fore
SplineSet
444 333 m 1xf8
 444 61 l 1xf8
 419 36 391 17 362 5 c 0
 333 -8 301 -14 267 -14 c 0
 202 -14 151 20 112 89 c 0
 73 158 53 250 53 364 c 0
 53 479 73 571 112 639 c 1
 151 708 204 742 270 742 c 0
 294 742 320 737 346 728 c 0
 372 718 400 704 429 684 c 1
 429 511 l 1
 374 511 l 1xf4
 369 572 357 617 339 646 c 0
 321 675 296 690 265 690 c 0
 224 690 193 663 173 609 c 0
 153 555 142 473 142 364 c 0
 142 257 153 176 174 121 c 0
 195 66 225 38 266 38 c 0
 284 38 302 43 318 52 c 0
 335 61 350 75 365 93 c 1
 365 281 l 1
 298 281 l 1
 298 333 l 1
 444 333 l 1xf8
EndSplineSet
EndChar

StartChar: H
Encoding: 72 72 41
Width: 600
GlyphClass: 2
Flags: HMW
HStem: 0 52<30 73 30 73 152 194 326 368 447 490> 365 60<152 368 152 368> 677 52<30 73 30 194 152 152 152 194 326 368 447 447 447 490>
VStem: 73 79<52 365 425 677> 368 79<52 365 365 365 425 677 52 677>
LayerCount: 2
Fore
SplineSet
30 0 m 1
 30 52 l 1
 73 52 l 1
 73 677 l 1
 30 677 l 1
 30 729 l 1
 194 729 l 1
 194 677 l 1
 152 677 l 1
 152 425 l 1
 368 425 l 1
 368 677 l 1
 326 677 l 1
 326 729 l 1
 490 729 l 1
 490 677 l 1
 447 677 l 1
 447 52 l 1
 490 52 l 1
 490 0 l 1
 326 0 l 1
 326 52 l 1
 368 52 l 1
 368 365 l 1
 152 365 l 1
 152 52 l 1
 194 52 l 1
 194 0 l 1
 30 0 l 1
EndSplineSet
EndChar

StartChar: I
Encoding: 73 73 42
Width: 600
GlyphClass: 2
Flags: HMW
HStem: 0 52<80.6663 194.666 274.666 388.666 80.6663 194.666> 677 52<80.6663 194.666 80.6663 388.666 274.666 274.666 274.666 388.666>
VStem: 194.666 79<52 677>
LayerCount: 2
Fore
SplineSet
274.667 52 m 1
 388.667 52 l 1
 388.667 0 l 1
 80.667 0 l 1
 80.667 52 l 1
 194.667 52 l 1
 194.667 677 l 1
 80.667 677 l 1
 80.667 729 l 1
 388.667 729 l 1
 388.667 677 l 1
 274.667 677 l 1
 274.667 52 l 1
EndSplineSet
EndChar

StartChar: J
Encoding: 74 74 43
Width: 600
GlyphClass: 2
Flags: HMW
HStem: -14 52<165.667 190.667 163.667 203.667> 677 52<136.667 258.667 136.667 428.667 337.667 337.667 337.667 428.667>
VStem: 258.667 79<218 677>
LayerCount: 2
Fore
SplineSet
60.667 19 m 1
 60.667 134 l 1
 105.667 134 l 1
 106.667 102 112.667 78 124.667 62 c 0
 135.667 46 152.667 38 175.667 38 c 0
 206.667 38 228.667 50 240.667 75 c 0
 252.667 99 258.667 147 258.667 218 c 2
 258.667 677 l 1
 136.667 677 l 1
 136.667 729 l 1
 428.667 729 l 1
 428.667 677 l 1
 337.667 677 l 1
 337.667 214 l 2
 337.667 134 325.667 76 299.667 40 c 0
 273.667 4 232.667 -14 174.667 -14 c 0
 156.667 -14 136.667 -11 118.667 -6 c 0
 99.667 0 79.667 8 60.667 19 c 1
EndSplineSet
EndChar

StartChar: K
Encoding: 75 75 44
Width: 600
GlyphClass: 2
Flags: HMW
HStem: 0 52<27.6667 70.6667 27.6667 70.6667 149.667 191.667 451.667 494.667> 677 52<27.6667 70.6667 27.6667 191.667 149.667 149.667 149.667 191.667 355.667 386.667 451.667 451.667 451.667 484.667>
VStem: 70.6667 79<52 346 401 677>
LayerCount: 2
Fore
SplineSet
27.667 0 m 1
 27.667 52 l 1
 70.667 52 l 1
 70.667 677 l 1
 27.667 677 l 1
 27.667 729 l 1
 191.667 729 l 1
 191.667 677 l 1
 149.667 677 l 1
 149.667 401 l 1
 386.667 677 l 1
 355.667 677 l 1
 355.667 729 l 1
 484.667 729 l 1
 484.667 677 l 1
 451.667 677 l 1
 215.667 402 l 1
 451.667 52 l 1
 494.667 52 l 1
 494.667 0 l 1
 383.667 0 l 1
 149.667 346 l 1
 149.667 52 l 1
 191.667 52 l 1
 191.667 0 l 1
 27.667 0 l 1
EndSplineSet
EndChar

StartChar: L
Encoding: 76 76 45
Width: 600
GlyphClass: 2
Flags: HMW
HStem: 0 52<46 97 46 97 46 458> 0 60<176 410 176 458> 677 52<46 97 46 226 176 176 176 226>
VStem: 97 79<60 677 60 677 60 677> 410 48<60 182 0 182>
LayerCount: 2
Fore
SplineSet
46 0 m 1xb8
 46 52 l 1
 97 52 l 1xb8
 97 677 l 1
 46 677 l 1
 46 729 l 1
 226 729 l 1
 226 677 l 1
 176 677 l 1
 176 60 l 1
 410 60 l 1
 410 182 l 1
 458 182 l 1
 458 0 l 1x78
 46 0 l 1xb8
EndSplineSet
EndChar

StartChar: M
Encoding: 77 77 46
Width: 600
GlyphClass: 2
Flags: HMW
HStem: 0 52<25 60 25 60 108 150 348 390 465 500> 677 52<25 60 25 151 465 465 465 500>
VStem: 60 48<52 615 52 677> 390 75<52 605 605 605>
LayerCount: 2
Fore
SplineSet
25 0 m 1
 25 52 l 1
 60 52 l 1
 60 677 l 1
 25 677 l 1
 25 729 l 1
 151 729 l 1
 264 315 l 1
 388 729 l 1
 500 729 l 1
 500 677 l 1
 465 677 l 1
 465 52 l 1
 500 52 l 1
 500 0 l 1
 348 0 l 1
 348 52 l 1
 390 52 l 1
 390 605 l 1
 271 202 l 1
 216 202 l 1
 108 615 l 1
 108 52 l 1
 150 52 l 1
 150 0 l 1
 25 0 l 1
EndSplineSet
EndChar

StartChar: N
Encoding: 78 78 47
Width: 600
GlyphClass: 2
Flags: HMW
HStem: 0 52<28 75 28 75 123 193> 677 52<28 75 28 146 353 399 447 447 447 494>
VStem: 75 48<52 580 52 677> 399 48<174 677 -14 677>
LayerCount: 2
Fore
SplineSet
28 0 m 1
 28 52 l 1
 75 52 l 1
 75 677 l 1
 28 677 l 1
 28 729 l 1
 146 729 l 1
 399 174 l 1
 399 677 l 1
 353 677 l 1
 353 729 l 1
 494 729 l 1
 494 677 l 1
 447 677 l 1
 447 -14 l 1
 400 -14 l 1
 123 580 l 1
 123 52 l 1
 193 52 l 1
 193 0 l 1
 28 0 l 1
EndSplineSet
EndChar

StartChar: O
Encoding: 79 79 48
Width: 600
GlyphClass: 2
Flags: HMW
HStem: -14 52<211 287 211 319> 690 52<202 296>
VStem: 53 90 355 89
LayerCount: 2
Fore
SplineSet
249 38 m 0
 326 38 355 129 355 364 c 0
 355 556 343 690 249 690 c 0
 156 690 143 557 143 364 c 0
 143 129 172 38 249 38 c 0
249 -14 m 0
 109 -14 53 141 53 364 c 0
 53 586 108 742 249 742 c 0
 390 742 444 595 444 364 c 0
 444 142 390 -14 249 -14 c 0
EndSplineSet
EndChar

StartChar: P
Encoding: 80 80 49
Width: 600
GlyphClass: 2
Flags: HMW
HStem: 0 52<43.9997 94.9997 43.9997 94.9997 174 240> 319 52<174 253 253 272 174 253> 677 52<43.9997 94.9997 43.9997 272 174 253 174 174>
VStem: 94.9997 79<52 319 52 371 371 677> 372 90<499 549>
LayerCount: 2
Fore
SplineSet
174 371 m 1
 253 371 l 2
 291 371 321 384 342 410 c 1
 362 437 372 474 372 524 c 0
 372 574 362 612 342 638 c 0
 321 664 291 677 253 677 c 2
 174 677 l 1
 174 371 l 1
44 0 m 1
 44 52 l 1
 95 52 l 1
 95 677 l 1
 44 677 l 1
 44 729 l 1
 272 729 l 2
 330 729 377 711 411 674 c 0
 445 637 462 587 462 524 c 0
 462 461 445 412 411 375 c 1
 377 337 330 319 272 319 c 2
 174 319 l 1
 174 52 l 1
 240 52 l 1
 240 0 l 1
 44 0 l 1
EndSplineSet
EndChar

StartChar: Q
Encoding: 81 81 50
Width: 600
GlyphClass: 2
Flags: HMW
HStem: -160 90<427 439> -14 52<211 249 249 249> 690 52<202 296>
VStem: 53 90 355 89
LayerCount: 2
Fore
SplineSet
249 38 m 0
 326 38 355 129 355 364 c 0
 355 556 343 690 249 690 c 0
 156 690 143 557 143 364 c 0
 143 129 172 38 249 38 c 0
303 -5 m 1
 317 -26 335 -44 354 -54 c 0
 374 -65 399 -70 427 -70 c 2
 439 -70 l 1
 439 -160 l 1
 395 -157 357 -144 326 -120 c 0
 295 -95 269 -60 249 -14 c 1
 249 -14 l 2
 109 -14 53 141 53 364 c 0
 53 586 108 742 249 742 c 0
 390 742 444 595 444 364 c 0
 444 173 404 31 303 -5 c 1
EndSplineSet
EndChar

StartChar: R
Encoding: 82 82 51
Width: 600
GlyphClass: 2
Flags: HMW
HStem: 0 52<28.667 70.667 150.667 200.667 28.667 70.667 462.667 492.667> 339 52<150.667 197.667 150.667 225.667> 677 52<28.667 70.667 28.667 252.667 150.667 150.667 150.667 225.667>
VStem: 70.667 79<52 339 391 677> 340.667 90<510 558>
LayerCount: 2
Fore
SplineSet
295.667 362 m 1
 313.667 356 328.667 345 342.667 330 c 0
 355.667 316 368.667 295 378.667 268 c 2
 462.667 52 l 1
 492.667 52 l 1
 492.667 0 l 1
 396.667 0 l 1
 305.667 232 l 2
 287.667 277 271.667 306 257.667 319 c 0
 243.667 332 223.667 339 197.667 339 c 2
 150.667 339 l 1
 150.667 52 l 1
 200.667 52 l 1
 200.667 0 l 1
 28.667 0 l 1
 28.667 52 l 1
 70.667 52 l 1
 70.667 677 l 1
 28.667 677 l 1
 28.667 729 l 1
 252.667 729 l 2
 309.667 729 353.667 712 383.667 678 c 0
 414.667 644 430.667 596 430.667 534 c 0
 430.667 484 418.667 445 396.667 416 c 0
 374.667 387 340.667 369 295.667 362 c 1
150.667 391 m 1
 225.667 391 l 2
 264.667 391 294.667 403 312.667 426 c 0
 330.667 449 340.667 485 340.667 534 c 0
 340.667 583 330.667 619 312.667 642 c 0
 294.667 665 264.667 677 225.667 677 c 2
 150.667 677 l 1
 150.667 391 l 1
EndSplineSet
EndChar

StartChar: S
Encoding: 83 83 52
Width: 600
GlyphClass: 2
Flags: HMW
HStem: -14 52<232.667 267.667 219.667 284.667> 690 52<223.667 256.667 211.667 268.667>
VStem: 42.6667 76<550 578> 49.6667 45<35 201 201 201> 386.667 78<164 190> 391.667 44<544 699>
LayerCount: 2
Fore
SplineSet
49.667 35 m 1xd8
 49.667 201 l 1
 94.667 201 l 1
 96.667 145 108.667 104 132.667 78 c 0
 156.667 51 193.667 38 243.667 38 c 0
 289.667 38 325.667 50 350.667 73 c 0
 374.667 95 386.667 129 386.667 173 c 0xd8
 386.667 208 378.667 235 364.667 254 c 0
 349.667 273 318.667 291 271.667 309 c 2
 194.667 338 l 2
 138.667 359 98.667 385 76.667 417 c 0
 53.667 449 42.667 492 42.667 547 c 0
 42.667 609 60.667 657 95.667 691 c 0
 130.667 725 180.667 742 243.667 742 c 0
 270.667 742 299.667 739 331.667 731 c 1
 364.667 724 399.667 713 435.667 699 c 1
 435.667 544 l 1
 391.667 544 l 1
 386.667 595 372.667 633 350.667 656 c 1
 327.667 678 291.667 690 244.667 690 c 0
 202.667 690 172.667 679 150.667 658 c 0
 129.667 637 118.667 607 118.667 567 c 0xe4
 118.667 532 126.667 505 142.667 485 c 0
 159.667 465 192.667 445 245.667 426 c 2
 317.667 399 l 2
 370.667 379 408.667 354 431.667 323 c 0
 453.667 292 464.667 251 464.667 199 c 0
 464.667 129 446.667 75 410.667 40 c 0
 374.667 4 319.667 -14 248.667 -14 c 0
 216.667 -14 184.667 -10 150.667 -2 c 0
 117.667 6 83.667 19 49.667 35 c 1xd8
EndSplineSet
EndChar

StartChar: T
Encoding: 84 84 53
Width: 600
GlyphClass: 2
Flags: HMW
HStem: 0 52<144 218 144 218 297 372> 671 58<83 218 83 83 297 297 297 432>
VStem: 35 48<557 671 557 729 557 729> 218 79<52 671 52 671>
LayerCount: 2
Fore
SplineSet
144 0 m 1
 144 52 l 1
 218 52 l 1
 218 671 l 1
 83 671 l 1
 83 557 l 1
 35 557 l 1
 35 729 l 1
 480 729 l 1
 480 557 l 1
 432 557 l 1
 432 671 l 1
 297 671 l 1
 297 52 l 1
 372 52 l 1
 372 0 l 1
 144 0 l 1
EndSplineSet
EndChar

StartChar: U
Encoding: 85 85 54
Width: 600
GlyphClass: 2
Flags: HMW
HStem: -14 64<232.334 324.334 232.334 331.334> 677 52<27.3337 78.3337 27.3337 207.334 157.334 157.334 157.334 207.334 346.334 396.334 444.334 444.334 444.334 495.334>
VStem: 78.3337 79<290 300 300 677> 396.334 48
LayerCount: 2
Fore
SplineSet
78.333 677 m 1
 27.333 677 l 1
 27.333 729 l 1
 207.333 729 l 1
 207.333 677 l 1
 157.333 677 l 1
 157.333 300 l 2
 157.333 119 187.333 50 277.333 50 c 0
 372.333 50 396.333 134 396.333 300 c 2
 396.333 677 l 1
 346.333 677 l 1
 346.333 729 l 1
 495.333 729 l 1
 495.333 677 l 1
 444.333 677 l 1
 444.333 290 l 2
 444.333 80 399.333 -14 262.333 -14 c 0
 125.333 -14 78.333 80 78.333 290 c 2
 78.333 677 l 1
EndSplineSet
EndChar

StartChar: V
Encoding: 86 86 55
Width: 600
GlyphClass: 2
Flags: HMW
HStem: 0 21G<228.666 295.666 228.666 228.666> 677 52<24.6663 59.6663 24.6663 189.666 148.666 189.666 148.666 148.666 376.666 418.666 467.666 467.666 467.666 500.666>
LayerCount: 2
Fore
SplineSet
148.667 677 m 1
 282.667 117 l 1
 418.667 677 l 1
 376.667 677 l 1
 376.667 729 l 1
 500.667 729 l 1
 500.667 677 l 1
 467.667 677 l 1
 295.667 0 l 1
 228.667 0 l 1
 59.667 677 l 1
 24.667 677 l 1
 24.667 729 l 1
 189.667 729 l 1
 189.667 677 l 1
 148.667 677 l 1
EndSplineSet
EndChar

StartChar: W
Encoding: 87 87 56
Width: 600
GlyphClass: 2
Flags: HMW
HStem: 0 21G<112.334 176.334 112.334 112.334 331.334 395.334 331.334 331.334> 506 20G<243.334 306.334 306.334 306.334> 677 52<25.3337 51.3337 25.3337 152.334 117.334 117.334 117.334 152.334 395.334 430.334 473.334 473.334 473.334 499.334>
LayerCount: 2
Fore
SplineSet
395.333 0 m 1
 331.333 0 l 1
 256.333 390 l 1
 176.333 0 l 1
 112.333 0 l 1
 51.333 677 l 1
 25.333 677 l 1
 25.333 729 l 1
 152.333 729 l 1
 152.333 677 l 1
 117.333 677 l 1
 162.333 141 l 1
 243.333 526 l 1
 306.333 526 l 1
 372.333 162 l 1
 430.333 677 l 1
 395.333 677 l 1
 395.333 729 l 1
 499.333 729 l 1
 499.333 677 l 1
 473.333 677 l 1
 395.333 0 l 1
EndSplineSet
EndChar

StartChar: X
Encoding: 88 88 57
Width: 600
GlyphClass: 2
Flags: HMW
HStem: 0 52<26.6663 69.6663 119.666 171.666 313.666 359.666 458.666 496.666> 677 52<28.6663 67.6663 67.6663 67.6663 167.666 211.666 28.6663 211.666 337.666 388.666 388.666 388.666 439.666 480.666>
LayerCount: 2
Fore
SplineSet
69.667 52 m 1
 26.667 52 l 1
 26.667 0 l 1
 171.667 0 l 1
 171.667 52 l 1
 119.667 52 l 1
 244.667 297 l 1
 359.667 52 l 1
 313.667 52 l 1
 313.667 0 l 1
 496.667 0 l 1
 496.667 52 l 1
 458.667 52 l 1
 299.667 388 l 1
 439.667 677 l 1
 480.667 677 l 1
 480.667 729 l 1
 337.667 729 l 1
 337.667 677 l 1
 388.667 677 l 1
 275.667 440 l 1
 167.667 677 l 1
 211.667 677 l 1
 211.667 729 l 1
 28.667 729 l 1
 28.667 677 l 1
 67.667 677 l 1
 220.667 348 l 1
 69.667 52 l 1
EndSplineSet
EndChar

StartChar: Y
Encoding: 89 89 58
Width: 600
GlyphClass: 2
Flags: HMW
HStem: 0 52<168.666 219.666 168.666 219.666 298.666 348.666> 677 52<32.6663 63.6663 32.6663 201.666 157.666 157.666 157.666 201.666 362.666 404.666 452.666 452.666 452.666 484.666>
VStem: 219.666 79<52 314 314 314>
LayerCount: 2
Fore
SplineSet
168.667 0 m 1
 168.667 52 l 1
 219.667 52 l 1
 219.667 314 l 1
 63.667 677 l 1
 32.667 677 l 1
 32.667 729 l 1
 201.667 729 l 1
 201.667 677 l 1
 157.667 677 l 1
 279.667 382 l 1
 404.667 677 l 1
 362.667 677 l 1
 362.667 729 l 1
 484.667 729 l 1
 484.667 677 l 1
 452.667 677 l 1
 298.667 323 l 1
 298.667 52 l 1
 348.667 52 l 1
 348.667 0 l 1
 168.667 0 l 1
EndSplineSet
EndChar

StartChar: Z
Encoding: 90 90 59
Width: 600
GlyphClass: 2
Flags: HMW
HStem: 0 60<146.333 415.333 146.333 463.333> 669 60<104.333 346.333 104.333 104.333>
VStem: 56.3333 48<560 669 560 729> 415.333 48<60 162 0 162>
LayerCount: 2
Fore
SplineSet
43.333 0 m 1
 43.333 35 l 1
 346.333 669 l 1
 104.333 669 l 1
 104.333 560 l 1
 56.333 560 l 1
 56.333 729 l 1
 449.333 729 l 1
 449.333 694 l 1
 146.333 60 l 1
 415.333 60 l 1
 415.333 162 l 1
 463.333 162 l 1
 463.333 0 l 1
 43.333 0 l 1
EndSplineSet
EndChar

StartChar: bracketleft
Encoding: 91 91 60
Width: 600
GlyphClass: 2
Flags: HMW
HStem: -132 52<197.666 304.666 197.666 304.666> 708 52<197.666 304.666 197.666 197.666>
VStem: 122.666 74<-80 708 -80 760 -80 760>
LayerCount: 2
Fore
SplineSet
122.667 760 m 1
 304.667 760 l 1
 304.667 708 l 1
 197.667 708 l 1
 197.667 -80 l 1
 304.667 -80 l 1
 304.667 -132 l 1
 122.667 -132 l 1
 122.667 760 l 1
EndSplineSet
EndChar

StartChar: backslash
Encoding: 92 92 61
Width: 600
GlyphClass: 2
Flags: HMW
HStem: 709 20G<93.3337 156.334 156.334 156.334>
LayerCount: 2
Fore
SplineSet
156.333 729 m 1
 363.333 -93 l 1
 300.333 -93 l 1
 93.333 729 l 1
 156.333 729 l 1
EndSplineSet
EndChar

StartChar: bracketright
Encoding: 93 93 62
Width: 600
GlyphClass: 2
Flags: HMW
HStem: -132 52<122.666 229.666 122.666 304.666 122.666 229.666> 708 52<122.666 229.666 122.666 304.666>
VStem: 229.666 74<-80 708 708 708>
LayerCount: 2
Fore
SplineSet
304.667 760 m 1
 304.667 -132 l 1
 122.667 -132 l 1
 122.667 -80 l 1
 229.667 -80 l 1
 229.667 708 l 1
 122.667 708 l 1
 122.667 760 l 1
 304.667 760 l 1
EndSplineSet
EndChar

StartChar: asciicircum
Encoding: 94 94 63
Width: 600
GlyphClass: 2
Flags: HMW
HStem: 709 20G<220.334 288.334 288.334 288.334>
LayerCount: 2
Fore
SplineSet
288.333 729 m 1
 467.333 457 l 1
 397.333 457 l 1
 254.333 650 l 1
 111.333 457 l 1
 41.333 457 l 1
 220.333 729 l 1
 288.333 729 l 1
EndSplineSet
EndChar

StartChar: underscore
Encoding: 95 95 64
Width: 600
GlyphClass: 2
Flags: HMW
HStem: -236 39<50 450 50 450>
LayerCount: 2
Fore
SplineSet
450 -197 m 1
 450 -236 l 1
 50 -236 l 1
 50 -197 l 1
 450 -197 l 1
EndSplineSet
EndChar

StartChar: grave
Encoding: 96 96 65
Width: 600
GlyphClass: 2
Flags: HW
LayerCount: 2
Fore
SplineSet
201 799 m 1
 302 615 l 1
 257 615 l 1
 124 799 l 1
 201 799 l 1
EndSplineSet
EndChar

StartChar: a
Encoding: 97 97 66
Width: 600
GlyphClass: 2
Flags: HMW
HStem: -14 52<215 216> 0 52<402 446 402 446> 273 52<229 237 237 330> 485 48<214 238>
VStem: 51.9997 80<138 176 138 182> 330 72<52 56 56 56 163 273 273 273 52 361 52 380>
LayerCount: 2
Fore
SplineSet
330 163 m 2xbc
 330 273 l 1
 237 273 l 2
 202 273 175 263 158 244 c 0
 140 225 132 195 132 156 c 0
 132 120 140 91 158 70 c 0
 176 49 200 38 230 38 c 0
 260 38 285 50 303 73 c 0
 321 96 330 126 330 163 c 2xbc
402 324 m 2
 402 52 l 1
 446 52 l 1
 446 0 l 1
 330 0 l 1x7c
 330 56 l 1
 314 32 296 14 275 3 c 0
 254 -8 230 -14 202 -14 c 0
 156 -14 119 1 93 32 c 1
 66 62 52 104 52 156 c 0
 52 209 67 251 98 281 c 0
 129 310 172 325 229 325 c 2
 330 325 l 1
 330 361 l 2
 330 400 320 431 301 452 c 0
 282 474 256 485 221 485 c 0
 192 485 170 477 153 460 c 0
 136 444 125 420 121 388 c 1
 84 388 l 1
 84 493 l 1
 109 507 133 517 157 523 c 1
 180 530 203 533 225 533 c 0
 283 533 327 515 357 480 c 0
 387 444 402 392 402 324 c 2
EndSplineSet
EndChar

StartChar: b
Encoding: 98 98 67
Width: 600
GlyphClass: 2
Flags: HMW
HStem: -14 56<278.667 289.667 255.667 317.667> 0 52<47.6667 96.6667 47.6667 168.667 47.6667 96.6667> 477 56<278.667 289.667> 708 52<47.6667 96.6667 47.6667 168.667>
VStem: 96.6667 72<52 81 202 234 234 285 438 708 708 708> 376.667 78
LayerCount: 2
Fore
SplineSet
96.667 52 m 1x7c
 96.667 708 l 1
 47.667 708 l 1
 47.667 760 l 1
 168.667 760 l 1
 168.667 438 l 1
 182.667 471 198.667 495 218.667 510 c 0
 238.667 525 263.667 533 293.667 533 c 0
 341.667 533 379.667 508 409.667 458 c 0
 440.667 407 454.667 341 454.667 260 c 0
 454.667 178 440.667 112 409.667 62 c 1
 379.667 11 341.667 -14 293.667 -14 c 0xbc
 263.667 -14 238.667 -6 218.667 9 c 0
 198.667 24 182.667 49 168.667 81 c 1
 168.667 0 l 1
 47.667 0 l 1
 47.667 52 l 1
 96.667 52 l 1x7c
168.667 234 m 2
 168.667 171 177.667 124 195.667 91 c 0
 213.667 58 238.667 42 272.667 42 c 0
 306.667 42 332.667 60 349.667 97 c 0
 367.667 134 376.667 188 376.667 260 c 0
 376.667 332 367.667 386 349.667 422 c 1
 332.667 459 306.667 477 272.667 477 c 0
 238.667 477 213.667 461 195.667 428 c 0
 177.667 395 168.667 347 168.667 285 c 2
 168.667 234 l 2
EndSplineSet
EndChar

StartChar: c
Encoding: 99 99 68
Width: 600
GlyphClass: 2
Flags: HMW
HStem: -14 48<241.334 276.334 241.334 283.334> 485 48<241.334 273.334 230.334 278.334>
VStem: 59.3337 84<222 298 222 302>
LayerCount: 2
Fore
SplineSet
431.333 156 m 1
 421.333 100 401.333 58 372.333 29 c 0
 343.333 0 306.333 -14 260.333 -14 c 0
 199.333 -14 152.333 11 115.333 61 c 0
 78.333 111 59.333 177 59.333 260 c 0
 59.333 343 78.333 409 115.333 459 c 0
 152.333 508 199.333 533 260.333 533 c 0
 286.333 533 313.333 529 339.333 522 c 1
 365.333 514 391.333 502 417.333 487 c 1
 417.333 354 l 1
 375.333 354 l 1
 369.333 400 357.333 433 339.333 454 c 0
 321.333 474 295.333 485 261.333 485 c 0
 222.333 485 193.333 466 173.333 428 c 0
 153.333 391 143.333 335 143.333 260 c 0
 143.333 185 153.333 129 173.333 91 c 0
 192.333 53 222.333 34 261.333 34 c 0
 291.333 34 316.333 44 335.333 64 c 1
 353.333 85 366.333 115 373.333 156 c 1
 431.333 156 l 1
EndSplineSet
EndChar

StartChar: d
Encoding: 100 100 69
Width: 600
GlyphClass: 2
Flags: HMW
HStem: -14 56<212.666 223.666> 0 52<405.666 454.666 405.666 454.666> 477 56<212.666 223.666 184.666 246.666> 740 20G<285.666 405.666 405.666 405.666>
VStem: 47.6663 78 333.666 72<438 708 708 708>
LayerCount: 2
Fore
SplineSet
405.667 52 m 1x7c
 454.667 52 l 1
 454.667 0 l 1
 333.667 0 l 1x7c
 333.667 81 l 1
 319.667 49 303.667 24 283.667 9 c 0
 263.667 -6 238.667 -14 208.667 -14 c 0xbc
 160.667 -14 122.667 11 92.667 62 c 1
 61.667 112 47.667 178 47.667 260 c 0
 47.667 341 61.667 407 91.667 458 c 1
 122.667 508 160.667 533 208.667 533 c 0
 238.667 533 263.667 525 283.667 510 c 0
 303.667 495 319.667 471 333.667 438 c 1
 333.667 708 l 1
 285.667 708 l 1
 285.667 760 l 1
 405.667 760 l 1
 405.667 52 l 1x7c
333.667 234 m 2
 333.667 285 l 2
 333.667 347 324.667 395 306.667 428 c 0
 288.667 461 263.667 477 229.667 477 c 0
 195.667 477 169.667 459 151.667 422 c 0
 134.667 386 125.667 332 125.667 260 c 0
 125.667 188 134.667 134 151.667 97 c 0
 169.667 60 195.667 42 229.667 42 c 0xbc
 263.667 42 288.667 58 306.667 91 c 0
 324.667 124 333.667 171 333.667 234 c 2
EndSplineSet
EndChar

StartChar: e
Encoding: 101 101 70
Width: 600
GlyphClass: 2
Flags: HMW
HStem: -14 48<241 277 241 279> 250 52<136 361 136 446 136 361> 485 48<233 267>
VStem: 52 84<218 246 246 250 211 301>
LayerCount: 2
Fore
SplineSet
446 250 m 1
 136 250 l 1
 136 246 l 2
 136 176 146 123 167 88 c 0
 189 52 220 34 261 34 c 0
 292 34 319 45 339 65 c 0
 359 86 373 117 381 157 c 1
 439 157 l 1
 428 100 405 57 375 29 c 0
 344 0 304 -14 254 -14 c 0
 193 -14 144 11 107 61 c 0
 70 111 52 177 52 260 c 0
 52 342 70 408 107 458 c 0
 143 508 190 533 249 533 c 0
 311 533 360 509 394 461 c 0
 428 412 444 342 446 250 c 1
361 302 m 1
 359 362 349 408 331 439 c 1
 312 469 284 485 249 485 c 0
 216 485 190 469 171 438 c 0
 152 408 140 362 136 302 c 1
 361 302 l 1
EndSplineSet
EndChar

StartChar: f
Encoding: 102 102 71
Width: 600
GlyphClass: 2
Flags: HMW
HStem: 0 52<82.3337 166.334 238.334 354.334 82.3337 166.334> 467 52<68.3337 166.334 68.3337 166.334 238.334 394.334> 712 48<298.334 318.334 286.334 322.334>
VStem: 166.334 72<52 467 52 467 519 584 584 586>
LayerCount: 2
Fore
SplineSet
413.333 637 m 1
 375.333 637 l 1
 374.333 662 369.333 680 358.333 693 c 0
 348.333 706 332.333 712 311.333 712 c 0
 285.333 712 265.333 703 254.333 684 c 0
 244.333 666 238.333 633 238.333 586 c 2
 238.333 519 l 1
 394.333 519 l 1
 394.333 467 l 1
 238.333 467 l 1
 238.333 52 l 1
 354.333 52 l 1
 354.333 0 l 1
 82.333 0 l 1
 82.333 52 l 1
 166.333 52 l 1
 166.333 467 l 1
 68.333 467 l 1
 68.333 519 l 1
 166.333 519 l 1
 166.333 584 l 2
 166.333 642 178.333 686 202.333 715 c 0
 226.333 745 263.333 760 309.333 760 c 0
 327.333 760 343.333 758 361.333 754 c 0
 379.333 750 396.333 744 413.333 736 c 1
 413.333 637 l 1
EndSplineSet
EndChar

StartChar: g
Encoding: 103 103 72
Width: 600
GlyphClass: 2
Flags: HMW
HStem: -222 48<202.666 232.666 195.666 246.666> -14 56<212.666 223.666> 467 52<405.666 405.666 405.666 454.666> 477 56<212.666 223.666 184.666 246.666>
VStem: 47.6663 78 333.666 72<11 81 81 81 438 467>
LayerCount: 2
Fore
SplineSet
405.667 467 m 1xec
 405.667 11 l 2
 405.667 -63 389.667 -121 356.667 -161 c 0
 323.667 -202 277.667 -222 216.667 -222 c 0
 189.667 -222 162.667 -219 137.667 -213 c 0
 112.667 -207 88.667 -197 65.667 -185 c 1
 65.667 -76 l 1
 103.667 -76 l 1
 108.667 -110 119.667 -135 136.667 -150 c 0
 154.667 -166 179.667 -174 211.667 -174 c 0
 253.667 -174 285.667 -159 304.667 -129 c 0
 324.667 -99 333.667 -53 333.667 11 c 2
 333.667 81 l 1
 319.667 49 303.667 24 283.667 9 c 0
 263.667 -6 238.667 -14 208.667 -14 c 0
 160.667 -14 122.667 11 92.667 62 c 1
 61.667 112 47.667 178 47.667 260 c 0
 47.667 341 61.667 407 91.667 458 c 1
 122.667 508 160.667 533 208.667 533 c 0xdc
 238.667 533 263.667 525 283.667 510 c 0
 303.667 495 319.667 471 333.667 438 c 1
 333.667 519 l 1
 454.667 519 l 1
 454.667 467 l 1
 405.667 467 l 1xec
333.667 285 m 2
 333.667 347 325.667 395 307.667 428 c 0
 289.667 461 263.667 477 229.667 477 c 0
 195.667 477 169.667 459 151.667 422 c 0
 134.667 386 125.667 332 125.667 260 c 0
 125.667 188 134.667 134 151.667 97 c 0
 169.667 60 195.667 42 229.667 42 c 0
 263.667 42 286.667 58 305.667 91 c 0
 324.667 124 333.667 171 333.667 234 c 2
 333.667 285 l 2
EndSplineSet
EndChar

StartChar: h
Encoding: 104 104 73
Width: 600
GlyphClass: 2
Flags: HMW
HStem: 0 52<46.0003 91.0003 46.0003 91.0003 163 205 308 350 422 466> 467 66<274 281> 708 52<42.0003 91.0003 42.0003 163>
VStem: 91.0003 72<52 289 427 708 708 708> 350 72<52 302 302 330 52 334>
LayerCount: 2
Fore
SplineSet
46 0 m 1
 46 52 l 1
 91 52 l 1
 91 708 l 1
 42 708 l 1
 42 760 l 1
 163 760 l 1
 163 427 l 1
 177 462 193 488 215 506 c 0
 236 524 260 533 288 533 c 0
 334 533 368 517 390 484 c 0
 412 451 422 400 422 330 c 2
 422 52 l 1
 466 52 l 1
 466 0 l 1
 308 0 l 1
 308 52 l 1
 350 52 l 1
 350 302 l 2
 350 365 344 409 332 432 c 0
 319 455 297 467 265 467 c 0
 231 467 206 452 189 421 c 1
 171 391 163 347 163 289 c 2
 163 52 l 1
 205 52 l 1
 205 0 l 1
 46 0 l 1
EndSplineSet
EndChar

StartChar: i
Encoding: 105 105 74
Width: 600
GlyphClass: 2
Flags: HMW
HStem: 0 52<76.6667 192.667 264.667 396.667 76.6667 192.667> 467 52<108.667 192.667 108.667 264.667> 716 20G<211.667 223.667>
VStem: 192.667 72<52 467 467 467>
LayerCount: 2
Fore
SplineSet
172.667 680 m 0
 172.667 695 177.667 708 186.667 719 c 0
 194.667 730 205.667 736 217.667 736 c 0
 229.667 736 239.667 730 248.667 719 c 0
 257.667 708 261.667 695 261.667 680 c 0
 261.667 665 257.667 652 248.667 641 c 0
 239.667 630 229.667 625 217.667 625 c 0
 205.667 625 194.667 630 186.667 641 c 0
 177.667 652 172.667 665 172.667 680 c 0
264.667 52 m 1
 396.667 52 l 1
 396.667 0 l 1
 76.667 0 l 1
 76.667 52 l 1
 192.667 52 l 1
 192.667 467 l 1
 108.667 467 l 1
 108.667 519 l 1
 264.667 519 l 1
 264.667 52 l 1
EndSplineSet
EndChar

StartChar: j
Encoding: 106 106 75
Width: 600
GlyphClass: 2
Flags: HMW
HStem: -222 48<195.333 218.333 195.333 226.333> 467 52<159.333 275.333 159.333 347.333> 716 20G<296.333 308.333>
VStem: 101.333 37<-190 -83 -83 -83> 275.333 72<-51 467 467 467>
LayerCount: 2
Fore
SplineSet
258.333 680 m 0
 258.333 695 262.333 708 270.333 719 c 0
 279.333 730 289.333 736 302.333 736 c 0
 314.333 736 325.333 730 334.333 719 c 0
 342.333 708 346.333 695 346.333 680 c 0
 346.333 665 343.333 652 334.333 641 c 0
 325.333 630 314.333 625 302.333 625 c 0
 289.333 625 279.333 630 270.333 641 c 0
 262.333 652 258.333 665 258.333 680 c 0
275.333 467 m 1
 159.333 467 l 1
 159.333 519 l 1
 347.333 519 l 1
 347.333 -51 l 2
 347.333 -104 335.333 -146 309.333 -177 c 0
 284.333 -207 249.333 -222 204.333 -222 c 0
 186.333 -222 167.333 -219 150.333 -214 c 0
 133.333 -209 117.333 -201 101.333 -190 c 1
 101.333 -83 l 1
 138.333 -83 l 1
 140.333 -114 147.333 -137 157.333 -152 c 0
 168.333 -167 184.333 -174 206.333 -174 c 0
 230.333 -174 247.333 -164 258.333 -144 c 0
 269.333 -124 275.333 -93 275.333 -51 c 2
 275.333 467 l 1
EndSplineSet
EndChar

StartChar: k
Encoding: 107 107 76
Width: 600
GlyphClass: 2
Flags: HMW
HStem: 0 52<44.6667 89.6667 161.667 206.667 44.6667 89.6667 303.667 342.667 428.667 468.667> 467 52<296.667 336.667 296.667 444.667 393.667 393.667 393.667 444.667> 708 52<40.6667 89.6667 40.6667 161.667>
VStem: 89.6667 72<52 199 265 708 708 708>
LayerCount: 2
Fore
SplineSet
206.667 0 m 1
 44.667 0 l 1
 44.667 52 l 1
 89.667 52 l 1
 89.667 708 l 1
 40.667 708 l 1
 40.667 760 l 1
 161.667 760 l 1
 161.667 265 l 1
 336.667 467 l 1
 296.667 467 l 1
 296.667 519 l 1
 444.667 519 l 1
 444.667 467 l 1
 393.667 467 l 1
 270.667 324 l 1
 428.667 52 l 1
 468.667 52 l 1
 468.667 0 l 1
 303.667 0 l 1
 303.667 52 l 1
 342.667 52 l 1
 218.667 265 l 1
 161.667 199 l 1
 161.667 52 l 1
 206.667 52 l 1
 206.667 0 l 1
EndSplineSet
EndChar

StartChar: l
Encoding: 108 108 77
Width: 600
GlyphClass: 2
Flags: HMW
HStem: 0 52<76.6663 200.666 272.666 396.666 76.6663 200.666> 708 52<100.666 200.666 100.666 272.666>
VStem: 200.666 72<52 708 708 708>
LayerCount: 2
Fore
SplineSet
272.667 52 m 1
 396.667 52 l 1
 396.667 0 l 1
 76.667 0 l 1
 76.667 52 l 1
 200.667 52 l 1
 200.667 708 l 1
 100.667 708 l 1
 100.667 760 l 1
 272.667 760 l 1
 272.667 52 l 1
EndSplineSet
EndChar

StartChar: m
Encoding: 109 109 78
Width: 600
GlyphClass: 2
Flags: HMW
HStem: 0 52<33.0003 58.0003 130 152 299 321 467 492> 467 66<192 203>
VStem: 58.0003 72<52 289 289 344 427 468 52 289> 227 66 227 72<0 289 52 289 289 323> 292 6 395 72<52 320 0 330>
LayerCount: 2
Fore
SplineSet
227 0 m 1xea
 321 0 l 1
 321 52 l 1
 299 52 l 1xea
 299 289 l 2xe6
 299 399 321 467 355 467 c 0
 387 467 395 439 395 320 c 2
 395 0 l 1
 492 0 l 1
 492 52 l 1
 467 52 l 1
 467 330 l 2
 467 480 445 532 379 533 c 0
 331 534 293 466 292 418 c 1
 290 482 266 533 216 533 c 0
 168 533 140 492 130 427 c 1
 130 519 l 1
 29 519 l 1
 29 468 l 1
 58 468 l 1
 58 52 l 1
 33 52 l 1
 33 0 l 1
 152 0 l 1
 152 52 l 1
 130 52 l 1
 130 289 l 2
 130 399 153 467 187 467 c 0
 219 467 227 442 227 323 c 2xf2
 227 0 l 1xea
EndSplineSet
EndChar

StartChar: n
Encoding: 110 110 79
Width: 600
GlyphClass: 2
Flags: HMW
HStem: 0 52<46.0003 91.0003 46.0003 91.0003 163 205 308 350 422 466> 467 52<42.0003 91.0003 42.0003 163> 468 65<274 281>
VStem: 91.0003 72<52 289 427 467 467 467> 350 72<52 302 302 330 52 334>
LayerCount: 2
Fore
SplineSet
46 0 m 1xb8
 46 52 l 1
 91 52 l 1
 91 467 l 1
 42 467 l 1
 42 519 l 1
 163 519 l 1xd8
 163 427 l 1
 177 462 193 488 215 506 c 0
 236 524 260 533 288 533 c 0
 334 533 368 517 390 484 c 0
 412 451 422 400 422 330 c 2
 422 52 l 1
 466 52 l 1
 466 0 l 1
 308 0 l 1
 308 52 l 1
 350 52 l 1
 350 302 l 2
 350 365 344 409 331 432 c 1
 319 456 296 468 265 468 c 0
 231 468 206 453 189 422 c 1
 171 392 163 347 163 289 c 2
 163 52 l 1
 205 52 l 1
 205 0 l 1
 46 0 l 1xb8
EndSplineSet
EndChar

StartChar: o
Encoding: 111 111 80
Width: 600
GlyphClass: 2
Flags: HMW
HStem: -14 48<229 265 229 276> 485 48<229 265>
VStem: 56 80 358 80
LayerCount: 2
Fore
SplineSet
247 34 m 0
 283 34 311 53 330 91 c 0
 348 129 358 186 358 260 c 0
 358 334 348 390 330 428 c 0
 311 466 283 485 247 485 c 0
 211 485 182 466 164 428 c 0
 145 390 136 334 136 260 c 0
 136 186 145 129 164 91 c 0
 183 53 211 34 247 34 c 0
247 -14 m 0
 189 -14 144 11 109 61 c 0
 74 111 56 177 56 260 c 0
 56 342 74 409 108 458 c 0
 143 508 189 533 247 533 c 0
 305 533 350 508 385 458 c 0
 420 409 438 342 438 260 c 0
 438 177 420 111 385 61 c 0
 350 11 305 -14 247 -14 c 0
EndSplineSet
EndChar

StartChar: p
Encoding: 112 112 81
Width: 600
GlyphClass: 2
Flags: HMW
HStem: -208 52<47.6663 96.6663 168.666 216.666 47.6663 96.6663> -14 56<278.666 289.666 255.666 317.666> 467 52<47.6663 96.6663 47.6663 168.666> 477 56<278.666 289.666>
VStem: 96.6663 72<-156 81 202 234 234 285 438 467 467 467> 376.666 78
LayerCount: 2
Fore
SplineSet
168.667 285 m 2xdc
 168.667 234 l 2
 168.667 171 177.667 124 195.667 91 c 0
 213.667 58 238.667 42 272.667 42 c 0
 306.667 42 332.667 60 349.667 97 c 0
 367.667 134 376.667 188 376.667 260 c 0
 376.667 332 367.667 386 349.667 422 c 1
 332.667 459 306.667 477 272.667 477 c 0
 238.667 477 213.667 461 195.667 428 c 0
 177.667 395 168.667 347 168.667 285 c 2xdc
96.667 467 m 1xec
 47.667 467 l 1
 47.667 519 l 1
 168.667 519 l 1xec
 168.667 438 l 1
 182.667 471 198.667 495 218.667 510 c 0
 238.667 525 263.667 533 293.667 533 c 0xdc
 341.667 533 379.667 508 409.667 458 c 0
 440.667 407 454.667 341 454.667 260 c 0
 454.667 178 440.667 112 409.667 62 c 1
 379.667 11 341.667 -14 293.667 -14 c 0
 263.667 -14 238.667 -6 218.667 9 c 0
 198.667 24 182.667 49 168.667 81 c 1
 168.667 -156 l 1
 216.667 -156 l 1
 216.667 -208 l 1
 47.667 -208 l 1
 47.667 -156 l 1
 96.667 -156 l 1
 96.667 467 l 1xec
EndSplineSet
EndChar

StartChar: q
Encoding: 113 113 82
Width: 600
GlyphClass: 2
Flags: HMW
HStem: -208 52<285.667 333.667 405.667 454.667 285.667 333.667> -14 56<212.667 223.667> 467 52<405.667 405.667 405.667 454.667> 477 56<212.667 223.667 184.667 246.667>
VStem: 47.667 78 333.667 72<467 467 467 519 467 519>
LayerCount: 2
Fore
SplineSet
405.667 467 m 1xec
 405.667 -156 l 1
 454.667 -156 l 1
 454.667 -208 l 1
 285.667 -208 l 1
 285.667 -156 l 1
 333.667 -156 l 1
 333.667 81 l 1
 319.667 49 303.667 24 283.667 9 c 0
 263.667 -6 238.667 -14 208.667 -14 c 0
 160.667 -14 122.667 11 92.667 62 c 1
 61.667 112 47.667 178 47.667 260 c 0
 47.667 341 61.667 407 91.667 458 c 1
 122.667 508 160.667 533 208.667 533 c 0xdc
 238.667 533 263.667 525 283.667 510 c 0
 303.667 495 319.667 471 333.667 438 c 1
 333.667 519 l 1
 454.667 519 l 1
 454.667 467 l 1
 405.667 467 l 1xec
333.667 285 m 2
 333.667 347 324.667 395 306.667 428 c 0
 288.667 461 263.667 477 229.667 477 c 0
 195.667 477 169.667 459 151.667 422 c 0
 134.667 386 125.667 332 125.667 260 c 0
 125.667 188 134.667 134 151.667 97 c 0
 169.667 60 195.667 42 229.667 42 c 0
 263.667 42 288.667 58 306.667 91 c 0
 324.667 124 333.667 171 333.667 234 c 2
 333.667 285 l 2
EndSplineSet
EndChar

StartChar: r
Encoding: 114 114 83
Width: 600
GlyphClass: 2
Flags: HMW
HStem: 0 52<69.3337 134.334 206.334 289.334 69.3337 134.334> 467 66<325.334 326.334> 468 51<65.3337 134.334 65.3337 206.334>
VStem: 134.334 72<52 289 427 468 468 468>
LayerCount: 2
Fore
SplineSet
419.333 520 m 1xd0
 419.333 390 l 1
 377.333 390 l 1
 376.333 416 370.333 435 360.333 448 c 1
 350.333 460 336.333 467 316.333 467 c 0xd0
 281.333 467 253.333 451 234.333 421 c 1
 216.333 390 206.333 346 206.333 289 c 2
 206.333 52 l 1
 289.333 52 l 1
 289.333 0 l 1
 69.333 0 l 1
 69.333 52 l 1
 134.333 52 l 1
 134.333 468 l 1
 65.333 468 l 1
 65.333 519 l 1
 206.333 519 l 1xb0
 206.333 427 l 1
 220.333 463 238.333 490 260.333 507 c 0
 282.333 524 309.333 533 341.333 533 c 0
 353.333 533 365.333 532 378.333 530 c 0
 391.333 528 405.333 524 419.333 520 c 1xd0
EndSplineSet
EndChar

StartChar: s
Encoding: 115 115 84
Width: 600
GlyphClass: 2
Flags: HMW
HStem: -14 48<216.334 243.334 209.334 256.334> 485 48<220.334 244.334 208.334 251.334>
VStem: 75.3337 42<29 150 150 150> 75.3337 68<394 404> 326.334 74<120 134> 335.334 42<378 491>
LayerCount: 2
Fore
SplineSet
75.333 29 m 1xe8
 75.333 150 l 1
 116.333 150 l 1
 117.333 111 127.333 82 145.333 63 c 0
 163.333 44 191.333 34 227.333 34 c 0
 259.333 34 283.333 42 300.333 57 c 0
 318.333 72 326.333 94 326.333 123 c 0xe8
 326.333 146 319.333 164 307.333 178 c 0
 294.333 192 269.333 207 229.333 223 c 2
 177.333 245 l 1
 141.333 259 115.333 277 99.333 299 c 0
 83.333 320 75.333 348 75.333 381 c 0
 75.333 428 90.333 466 117.333 493 c 0
 145.333 520 183.333 533 233.333 533 c 0
 255.333 533 278.333 530 302.333 522 c 1
 327.333 515 351.333 505 377.333 491 c 1
 377.333 378 l 1
 335.333 378 l 1
 334.333 411 325.333 438 307.333 457 c 0
 289.333 475 265.333 485 235.333 485 c 0
 205.333 485 183.333 478 167.333 465 c 1
 152.333 451 143.333 431 143.333 405 c 0xd4
 143.333 383 149.333 365 161.333 352 c 0
 173.333 339 196.333 326 231.333 312 c 2
 288.333 290 l 2
 327.333 275 356.333 256 373.333 233 c 0
 391.333 210 399.333 180 399.333 144 c 0
 399.333 95 385.333 56 355.333 28 c 0
 325.333 0 283.333 -14 230.333 -14 c 0
 203.333 -14 177.333 -11 151.333 -3 c 0
 125.333 4 101.333 14 75.333 29 c 1xe8
EndSplineSet
EndChar

StartChar: t
Encoding: 116 116 85
Width: 600
GlyphClass: 2
Flags: HMW
HStem: -14 48<290 308 290 311> 467 52<68 179 68 179 251 414>
VStem: 179 72<137 467 519 680> 353 54<106 122>
LayerCount: 2
Fore
SplineSet
179 467 m 1
 68 467 l 1
 68 519 l 1
 179 519 l 1
 179 680 l 1
 251 680 l 1
 251 519 l 1
 414 519 l 1
 414 467 l 1
 251 467 l 1
 251 137 l 2
 251 93 254 65 261 53 c 1
 267 40 281 34 299 34 c 0
 317 34 331 41 340 55 c 0
 349 69 353 91 353 122 c 1
 408 122 l 1
 406 75 396 40 377 19 c 1
 359 -3 331 -14 293 -14 c 0
 251 -14 223 -3 205 20 c 0
 188 43 179 82 179 137 c 2
 179 467 l 1
EndSplineSet
EndChar

StartChar: u
Encoding: 117 117 86
Width: 600
GlyphClass: 2
Flags: HMW
HStem: -14 66<228 235> 0 52<418 466> 467 52<42 87 42 159 304 346>
VStem: 87 72<189 217 217 467 467 467> 346 72<52 92 92 92 231 467 467 467>
LayerCount: 2
Fore
SplineSet
304 519 m 1xb8
 418 519 l 1
 418 52 l 1
 466 52 l 1
 466 0 l 1
 346 0 l 1x78
 346 92 l 1
 333 57 316 31 295 13 c 0
 273 -5 249 -14 221 -14 c 0
 175 -14 142 2 120 35 c 0
 98 68 87 119 87 189 c 2
 87 467 l 1
 42 467 l 1
 42 519 l 1
 159 519 l 1
 159 217 l 2
 159 154 165 110 177 87 c 0
 190 63 212 52 244 52 c 0
 278 52 303 67 320 98 c 1
 338 128 346 173 346 231 c 2
 346 467 l 1
 304 467 l 1
 304 519 l 1xb8
EndSplineSet
EndChar

StartChar: v
Encoding: 118 118 87
Width: 600
GlyphClass: 2
Flags: HMW
HStem: 0 21G<232.666 232.666 232.666 285.666> 467 52<32.6663 79.6663 32.6663 223.666 157.666 157.666 157.666 223.666 328.666 390.666 438.666 438.666 438.666 484.666>
LayerCount: 2
Fore
SplineSet
232.667 0 m 1
 79.667 467 l 1
 32.667 467 l 1
 32.667 519 l 1
 223.667 519 l 1
 223.667 467 l 1
 157.667 467 l 1
 274.667 110 l 1
 390.667 467 l 1
 328.667 467 l 1
 328.667 519 l 1
 484.667 519 l 1
 484.667 467 l 1
 438.667 467 l 1
 285.667 0 l 1
 232.667 0 l 1
EndSplineSet
EndChar

StartChar: w
Encoding: 119 119 88
Width: 600
GlyphClass: 2
Flags: HMW
HStem: 0 21G<134.667 192.667 134.667 134.667 319.667 379.667 319.667 319.667> 467 52<28.6667 50.6667 28.6667 148.667 113.667 113.667 113.667 148.667 390.667 426.667 470.667 470.667 470.667 492.667>
LayerCount: 2
Fore
SplineSet
296.667 389 m 1
 354.667 102 l 1
 426.667 467 l 1
 390.667 467 l 1
 390.667 519 l 1
 492.667 519 l 1
 492.667 467 l 1
 470.667 467 l 1
 379.667 0 l 1
 319.667 0 l 1
 254.667 258 l 1
 192.667 0 l 1
 134.667 0 l 1
 50.667 467 l 1
 28.667 467 l 1
 28.667 519 l 1
 148.667 519 l 1
 148.667 467 l 1
 113.667 467 l 1
 175.667 102 l 1
 246.667 389 l 1
 296.667 389 l 1
EndSplineSet
EndChar

StartChar: x
Encoding: 120 120 89
Width: 600
GlyphClass: 2
Flags: HMW
HStem: 0 52<47.3337 102.334 151.334 205.334 47.3337 102.334 279.334 332.334 417.334 471.334> 467 52<39.3337 90.3337 39.3337 225.334 175.334 175.334 175.334 225.334 293.334 349.334 398.334 398.334 398.334 453.334>
LayerCount: 2
Fore
SplineSet
262.333 317 m 1
 349.333 467 l 1
 293.333 467 l 1
 293.333 519 l 1
 453.333 519 l 1
 453.333 467 l 1
 398.333 467 l 1
 287.333 275 l 1
 417.333 52 l 1
 471.333 52 l 1
 471.333 0 l 1
 279.333 0 l 1
 279.333 52 l 1
 332.333 52 l 1
 241.333 207 l 1
 151.333 52 l 1
 205.333 52 l 1
 205.333 0 l 1
 47.333 0 l 1
 47.333 52 l 1
 102.333 52 l 1
 217.333 249 l 1
 90.333 467 l 1
 39.333 467 l 1
 39.333 519 l 1
 225.333 519 l 1
 225.333 467 l 1
 175.333 467 l 1
 262.333 317 l 1
EndSplineSet
EndChar

StartChar: y
Encoding: 121 121 90
Width: 600
GlyphClass: 2
Flags: HMW
HStem: -222 52<135 149> 467 52<38 77 38 213 155 155 155 213 334 388 436 436 436 474>
LayerCount: 2
Fore
SplineSet
205 -95 m 2
 232 -9 l 1
 77 467 l 1
 38 467 l 1
 38 519 l 1
 213 519 l 1
 213 467 l 1
 155 467 l 1
 272 110 l 1
 388 467 l 1
 334 467 l 1
 334 519 l 1
 474 519 l 1
 474 467 l 1
 436 467 l 1
 245 -117 l 2
 232 -158 218 -185 202 -200 c 0
 186 -215 164 -222 135 -222 c 0
 123 -222 110 -221 97 -218 c 0
 84 -216 72 -212 58 -207 c 1
 58 -108 l 1
 95 -108 l 1
 97 -130 101 -146 108 -156 c 0
 115 -165 128 -170 143 -170 c 0
 157 -170 168 -165 177 -155 c 0
 186 -145 195 -125 205 -95 c 2
EndSplineSet
EndChar

StartChar: z
Encoding: 122 122 91
Width: 600
GlyphClass: 2
Flags: HMW
HStem: 0 52<156.334 381.334 156.334 423.334> 467 52<117.334 323.334 117.334 117.334>
VStem: 76.3337 42<377 467 377 519> 381.334 42<52 146 0 146>
LayerCount: 2
Fore
SplineSet
63.333 0 m 1
 63.333 42 l 1
 323.333 467 l 1
 117.333 467 l 1
 117.333 377 l 1
 76.333 377 l 1
 76.333 519 l 1
 416.333 519 l 1
 416.333 477 l 1
 156.333 52 l 1
 381.333 52 l 1
 381.333 146 l 1
 423.333 146 l 1
 423.333 0 l 1
 63.333 0 l 1
EndSplineSet
EndChar

StartChar: braceleft
Encoding: 123 123 92
Width: 600
GlyphClass: 2
Flags: HMW
HStem: -163 51<362.666 364.666 364.666 388.666> 273 51<80.6663 104.666 80.6663 104.666> 709 51<344.666 388.666 364.666 388.666 364.666 388.666>
VStem: 201.666 72<17 140 454 457 457 580 580 597>
CounterMasks: 1 e0
LayerCount: 2
Fore
SplineSet
388.667 -112 m 1
 388.667 -163 l 1
 364.667 -163 l 2
 299.667 -163 256.667 -151 234.667 -127 c 0
 212.667 -103 201.667 -55 201.667 17 c 2
 201.667 143 l 2
 201.667 192 194.667 226 180.667 245 c 0
 166.667 264 141.667 273 104.667 273 c 2
 80.667 273 l 1
 80.667 324 l 1
 104.667 324 l 2
 141.667 324 166.667 334 180.667 353 c 1
 194.667 371 201.667 405 201.667 454 c 2
 201.667 580 l 2
 201.667 652 212.667 700 234.667 724 c 0
 256.667 748 299.667 760 364.667 760 c 2
 388.667 760 l 1
 388.667 709 l 1
 362.667 709 l 2
 325.667 709 301.667 702 290.667 688 c 0
 279.667 673 273.667 643 273.667 597 c 2
 273.667 457 l 2
 273.667 406 267.667 369 254.667 347 c 0
 240.667 325 218.667 309 184.667 299 c 1
 218.667 288 241.667 271 254.667 250 c 0
 267.667 228 273.667 191 273.667 140 c 2
 273.667 0 l 2
 273.667 -46 279.667 -76 290.667 -90 c 0
 301.667 -105 325.667 -112 362.667 -112 c 2
 388.667 -112 l 1
EndSplineSet
EndChar

StartChar: bar
Encoding: 124 124 93
Width: 600
GlyphClass: 2
Flags: HMW
VStem: 162 63<-236 764 -236 764>
LayerCount: 2
Fore
SplineSet
226 764 m 1
 226 -236 l 1
 162 -236 l 1
 162 764 l 1
 226 764 l 1
EndSplineSet
EndChar

StartChar: braceright
Encoding: 125 125 94
Width: 600
GlyphClass: 2
Flags: HMW
HStem: -163 51<80.6663 104.666 80.6663 107.666> 273 51<346.666 388.666 364.666 388.666> 709 51<80.6663 104.666 104.666 107.666 80.6663 104.666>
VStem: 195.666 72<0 17 17 140 140 143 457 580>
CounterMasks: 1 e0
LayerCount: 2
Fore
SplineSet
80.667 -112 m 1
 107.667 -112 l 2
 144.667 -112 167.667 -105 178.667 -91 c 0
 189.667 -76 195.667 -46 195.667 0 c 2
 195.667 140 l 2
 195.667 191 201.667 228 214.667 250 c 0
 227.667 271 250.667 288 284.667 299 c 1
 250.667 309 227.667 325 214.667 347 c 0
 201.667 369 195.667 406 195.667 457 c 2
 195.667 597 l 2
 195.667 643 189.667 674 178.667 688 c 0
 167.667 702 144.667 709 107.667 709 c 2
 80.667 709 l 1
 80.667 760 l 1
 104.667 760 l 2
 169.667 760 212.667 748 234.667 724 c 0
 256.667 700 267.667 652 267.667 580 c 2
 267.667 454 l 2
 267.667 405 274.667 371 288.667 353 c 0
 302.667 334 327.667 324 364.667 324 c 2
 388.667 324 l 1
 388.667 273 l 1
 364.667 273 l 2
 327.667 273 302.667 264 288.667 245 c 0
 274.667 226 267.667 192 267.667 143 c 2
 267.667 17 l 2
 267.667 -55 256.667 -103 234.667 -127 c 0
 212.667 -151 169.667 -163 104.667 -163 c 2
 80.667 -163 l 1
 80.667 -112 l 1
EndSplineSet
EndChar

StartChar: asciitilde
Encoding: 126 126 95
Width: 600
GlyphClass: 2
Flags: HMW
HStem: 238 83<329 343> 306 83<156 170>
LayerCount: 2
Fore
SplineSet
450 394 m 1x80
 450 322 l 1
 429 293 410 272 391 258 c 0
 372 245 353 238 334 238 c 0x80
 314 238 285 249 249 270 c 1
 246 272 l 2
 244 273 240 275 236 278 c 0
 205 297 180 306 160 306 c 0
 141 306 123 300 105 288 c 0
 86 276 69 258 50 233 c 1
 50 307 l 1
 71 335 90 356 109 369 c 0
 128 383 146 389 166 389 c 0x40
 186 389 215 378 251 357 c 1
 254 355 l 2
 256 354 259 352 263 349 c 0
 293 330 319 321 339 321 c 0
 358 321 376 327 395 339 c 0
 414 351 431 369 450 394 c 1x80
EndSplineSet
EndChar

StartChar: exclamdown
Encoding: 161 161 97
Width: 600
GlyphClass: 2
Flags: HMW
HStem: 0 21G<150.666 150.666 150.666 250.666> 504 20G<176.666 224.666 224.666 224.666> 723 20G<193.666 207.666>
VStem: 176.666 48<401 524 401 524>
LayerCount: 2
Fore
SplineSet
148.667 678 m 0
 148.667 696 153.667 712 163.667 724 c 1
 173.667 737 186.667 743 200.667 743 c 0
 214.667 743 227.667 737 237.667 724 c 0
 247.667 711 252.667 696 252.667 678 c 0
 252.667 660 247.667 645 237.667 632 c 0
 227.667 619 214.667 613 200.667 613 c 0
 186.667 613 173.667 619 163.667 632 c 0
 153.667 645 148.667 660 148.667 678 c 0
150.667 0 m 1
 176.667 401 l 1
 176.667 524 l 1
 224.667 524 l 1
 224.667 401 l 1
 250.667 0 l 1
 150.667 0 l 1
EndSplineSet
EndChar

StartChar: cent
Encoding: 162 162 98
Width: 600
GlyphClass: 2
Flags: HMW
VStem: 67.3337 80<225 294 225 300> 241.334 37<-145 -13 -145 -13 35 484 532 662> 364.334 39<354 487>
LayerCount: 2
Fore
SplineSet
241.333 484 m 1
 209.333 479 186.333 458 170.333 420 c 0
 154.333 383 146.333 329 146.333 260 c 0
 146.333 190 154.333 136 170.333 99 c 0
 186.333 61 209.333 40 241.333 35 c 1
 241.333 484 l 1
415.333 156 m 1
 407.333 106 391.333 66 368.333 38 c 0
 345.333 10 315.333 -7 278.333 -13 c 1
 278.333 -145 l 1
 241.333 -145 l 1
 241.333 -13 l 1
 188.333 -7 145.333 21 113.333 69 c 1
 82.333 118 67.333 182 67.333 260 c 0
 67.333 339 82.333 402 113.333 451 c 0
 145.333 500 188.333 527 241.333 532 c 1
 241.333 662 l 1
 278.333 662 l 1
 278.333 532 l 1
 301.333 530 323.333 525 343.333 517 c 0
 363.333 510 383.333 500 403.333 487 c 1
 403.333 354 l 1
 364.333 354 l 1
 359.333 394 350.333 425 336.333 446 c 0
 322.333 467 303.333 480 278.333 484 c 1
 278.333 35 l 1
 300.333 39 318.333 51 332.333 72 c 0
 346.333 93 356.333 121 361.333 156 c 1
 415.333 156 l 1
EndSplineSet
EndChar

StartChar: sterling
Encoding: 163 163 99
Width: 600
GlyphClass: 2
Flags: HMW
HStem: 0 59<206.666 381.666 206.666 424.666> 342 52<62.6663 132.666 62.6663 132.666 206.666 357.666> 694 48<282.666 308.666 271.666 309.666>
VStem: 132.666 74<59 342 59 342 59 342 394 538> 378.666 38<598 598> 381.666 43<59 170 0 170>
LayerCount: 2
Fore
SplineSet
416.667 598 m 1xf8
 378.667 598 l 1xf8
 376.667 629 367.667 653 353.667 669 c 1
 339.667 686 320.667 694 297.667 694 c 0
 266.667 694 243.667 681 228.667 656 c 0
 214.667 631 206.667 591 206.667 538 c 2
 206.667 394 l 1
 357.667 394 l 1
 357.667 342 l 1
 206.667 342 l 1
 206.667 59 l 1
 381.667 59 l 1
 381.667 170 l 1
 424.667 170 l 1
 424.667 0 l 1xf4
 62.667 0 l 1
 62.667 52 l 1
 132.667 52 l 1
 132.667 342 l 1
 62.667 342 l 1
 62.667 394 l 1
 132.667 394 l 1
 132.667 538 l 2
 132.667 605 147.667 656 175.667 690 c 0
 203.667 725 244.667 742 298.667 742 c 0
 319.667 742 339.667 740 359.667 736 c 0
 379.667 732 398.667 726 416.667 718 c 1
 416.667 598 l 1xf8
EndSplineSet
EndChar

StartChar: currency
Encoding: 164 164 100
Width: 600
GlyphClass: 2
Flags: HMW
HStem: 105 77<242.666 258.666> 444 77<241.666 258.666 241.666 264.666>
VStem: 93.6663 58<302 324> 348.666 58<302 324 302 332>
LayerCount: 2
Fore
SplineSet
341.667 481 m 1
 417.667 582 l 1
 452.667 536 l 1
 375.667 434 l 1
 386.667 415 394.667 395 399.667 375 c 0
 404.667 355 406.667 334 406.667 313 c 0
 406.667 291 404.667 270 399.667 250 c 0
 394.667 231 385.667 212 374.667 194 c 1
 450.667 93 l 1
 415.667 47 l 1
 339.667 147 l 1
 325.667 133 311.667 122 297.667 115 c 0
 282.667 108 267.667 105 250.667 105 c 0
 234.667 105 218.667 108 203.667 115 c 0
 188.667 122 173.667 132 158.667 145 c 1
 83.667 45 l 1
 48.667 91 l 1
 123.667 192 l 1
 113.667 212 106.667 232 101.667 252 c 0
 96.667 272 93.667 292 93.667 313 c 0
 93.667 336 96.667 357 101.667 376 c 0
 106.667 396 114.667 415 125.667 433 c 1
 49.667 534 l 1
 83.667 580 l 1
 159.667 479 l 1
 173.667 493 187.667 504 202.667 511 c 0
 216.667 518 233.667 521 250.667 521 c 0
 266.667 521 281.667 518 296.667 511 c 0
 311.667 505 326.667 495 341.667 481 c 1
348.667 314 m 0
 348.667 350 340.667 381 320.667 406 c 0
 301.667 431 278.667 444 250.667 444 c 0
 222.667 444 199.667 431 180.667 406 c 0
 161.667 381 151.667 350 151.667 314 c 0
 151.667 277 161.667 246 180.667 220 c 0
 199.667 195 222.667 182 250.667 182 c 0
 278.667 182 301.667 195 320.667 220 c 0
 340.667 246 348.667 277 348.667 314 c 0
EndSplineSet
EndChar

StartChar: yen
Encoding: 165 165 101
Width: 600
GlyphClass: 2
Flags: HMW
HStem: 0 52<159.334 229.334 159.334 229.334 303.334 373.334> 231 51<81.3337 229.334 81.3337 229.334 303.334 451.334> 383 51<81.3337 177.334 81.3337 199.334 81.3337 177.334 351.334 451.334> 677 52<21.3337 72.3337 21.3337 224.334 160.334 160.334 160.334 224.334 349.334 410.334 455.334 455.334 455.334 507.334>
VStem: 229.334 74<52 231 52 231 282 314 314 314>
LayerCount: 2
Fore
SplineSet
159.333 0 m 1
 159.333 52 l 1
 229.333 52 l 1
 229.333 231 l 1
 81.333 231 l 1
 81.333 282 l 1
 229.333 282 l 1
 229.333 314 l 1
 199.333 383 l 1
 81.333 383 l 1
 81.333 434 l 1
 177.333 434 l 1
 72.333 677 l 1
 21.333 677 l 1
 21.333 729 l 1
 224.333 729 l 1
 224.333 677 l 1
 160.333 677 l 1
 285.333 382 l 1
 410.333 677 l 1
 349.333 677 l 1
 349.333 729 l 1
 507.333 729 l 1
 507.333 677 l 1
 455.333 677 l 1
 351.333 434 l 1
 451.333 434 l 1
 451.333 383 l 1
 329.333 383 l 1
 303.333 323 l 1
 303.333 282 l 1
 451.333 282 l 1
 451.333 231 l 1
 303.333 231 l 1
 303.333 52 l 1
 373.333 52 l 1
 373.333 0 l 1
 159.333 0 l 1
EndSplineSet
EndChar

StartChar: brokenbar
Encoding: 166 166 102
Width: 600
GlyphClass: 2
Flags: HMW
VStem: 162 63<-171 199 -171 199 329 699>
LayerCount: 2
Fore
SplineSet
226 199 m 1
 226 -171 l 1
 162 -171 l 1
 162 199 l 1
 226 199 l 1
226 699 m 1
 226 329 l 1
 162 329 l 1
 162 699 l 1
 226 699 l 1
EndSplineSet
EndChar

StartChar: section
Encoding: 167 167 103
Width: 600
GlyphClass: 2
Flags: HMW
HStem: -95 50<216 235 207 251> 692 50<237 253 221 262>
VStem: 74 64<346 366> 100 66<588 618 588 622> 309 66<30 61 24 62> 338 64<288 301>
LayerCount: 2
Fore
SplineSet
186 457 m 1xe4
 168 442 155 428 148 414 c 0
 141 401 138 385 138 368 c 0
 138 325 186 271 280 205 c 2
 292 196 l 1
 307 208 319 222 327 238 c 0
 334 253 338 271 338 289 c 0
 338 313 329 337 311 358 c 0
 293 380 251 413 186 457 c 1xe4
362 715 m 1
 362 616 l 1
 326 616 l 1
 325 640 318 658 304 672 c 0
 291 685 273 692 250 692 c 0
 224 692 203 684 188 668 c 0
 174 652 166 631 166 604 c 0
 166 572 198 534 262 490 c 0
 272 482 272 482 277 479 c 0
 327 444 361 414 378 389 c 0
 394 365 402 336 402 304 c 0xd4
 402 273 395 248 381 227 c 0
 367 207 346 189 316 175 c 1
 337 160 351 142 361 121 c 0
 371 101 376 76 376 46 c 0
 376 3 362 -31 336 -57 c 0
 310 -82 273 -95 228 -95 c 0
 204 -95 183 -93 162 -89 c 0
 141 -84 120 -77 100 -68 c 1
 100 34 l 1
 136 34 l 1
 137 8 144 -12 158 -25 c 0
 172 -38 193 -45 221 -45 c 0
 248 -45 270 -37 285 -21 c 0
 301 -5 309 17 309 44 c 0
 309 81 279 120 220 161 c 0
 211 167 212 167 208 170 c 0
 152 210 115 242 99 266 c 0
 82 291 74 319 74 351 c 0xe8
 74 382 82 408 97 429 c 0
 112 451 134 467 163 477 c 1
 141 493 125 511 115 532 c 0
 105 552 100 575 100 601 c 0xd0
 100 643 113 677 139 703 c 0
 165 729 200 742 243 742 c 0
 263 742 283 740 303 735 c 0
 323 731 342 724 362 715 c 1
EndSplineSet
EndChar

StartChar: dieresis
Encoding: 168 168 104
Width: 600
GlyphClass: 2
Flags: HMW
HStem: 652 114<142 154 142 154 294 306>
LayerCount: 2
Fore
SplineSet
148 766 m 0
 160 766 171 760 180 749 c 0
 189 738 194 725 194 709 c 0
 194 692 190 679 181 668 c 0
 172 657 161 652 148 652 c 0
 135 652 124 657 115 668 c 0
 107 679 102 692 102 709 c 0
 102 725 107 738 116 749 c 0
 125 760 135 766 148 766 c 0
300 766 m 0
 313 766 323 760 332 749 c 0
 341 738 346 725 346 709 c 0
 346 692 341 679 333 668 c 0
 324 657 313 652 300 652 c 0
 287 652 276 657 267 668 c 0
 258 679 254 692 254 709 c 0
 254 725 259 738 268 749 c 0
 277 760 288 766 300 766 c 0
EndSplineSet
EndChar

StartChar: copyright
Encoding: 169 169 105
Width: 600
GlyphClass: 2
Flags: HMW
HStem: 0 50<231.334 251.334 231.334 253.334> 147 38<232.334 249.334 232.334 253.334> 540 38<233.334 248.334 227.334 250.334> 675 50<231.334 251.334>
VStem: 67.3337 24<340 383 340 387> 145.334 40<332 392 332 394> 296.334 28<280 280> 297.334 20<437 541> 391.334 24<340 384>
LayerCount: 2
Fore
SplineSet
324.333 280 m 1xfe80
 320.333 237 310.333 204 296.333 181 c 0
 282.333 158 263.333 147 241.333 147 c 0
 212.333 147 189.333 167 171.333 206 c 0
 154.333 245 145.333 297 145.333 362 c 0
 145.333 427 154.333 480 172.333 519 c 0
 189.333 558 212.333 578 241.333 578 c 0
 253.333 578 266.333 575 278.333 569 c 0
 290.333 563 304.333 554 317.333 541 c 1
 317.333 437 l 1
 297.333 437 l 1xfd80
 295.333 472 289.333 499 280.333 515 c 0
 271.333 532 258.333 540 242.333 540 c 0
 223.333 540 210.333 525 200.333 495 c 0
 191.333 466 186.333 421 186.333 362 c 0
 186.333 303 191.333 259 200.333 229 c 0
 210.333 200 223.333 185 241.333 185 c 0
 256.333 185 268.333 193 277.333 208 c 0
 286.333 224 293.333 248 296.333 280 c 1
 324.333 280 l 1xfe80
241.333 725 m 0
 265.333 725 287.333 716 307.333 698 c 0
 328.333 680 347.333 654 364.333 618 c 0
 381.333 583 394.333 544 402.333 501 c 0
 411.333 458 415.333 412 415.333 362 c 0
 415.333 312 411.333 266 402.333 224 c 0
 394.333 181 381.333 142 364.333 107 c 0
 347.333 71 328.333 45 307.333 27 c 0
 287.333 9 265.333 0 241.333 0 c 0
 217.333 0 195.333 9 175.333 27 c 0
 154.333 45 135.333 71 118.333 107 c 0
 101.333 142 88.333 181 80.333 224 c 0
 71.333 266 67.333 312 67.333 362 c 0
 67.333 412 71.333 458 80.333 501 c 0
 88.333 544 101.333 583 118.333 618 c 0
 135.333 654 154.333 680 175.333 698 c 0
 195.333 716 217.333 725 241.333 725 c 0
241.333 675 m 0
 220.333 675 202.333 667 184.333 652 c 0
 166.333 637 149.333 614 135.333 583 c 0
 121.333 553 110.333 519 102.333 482 c 0
 95.333 444 91.333 404 91.333 362 c 0
 91.333 319 95.333 280 102.333 243 c 0
 110.333 206 121.333 173 135.333 142 c 0
 149.333 111 166.333 88 184.333 73 c 0
 202.333 58 220.333 50 241.333 50 c 0
 262.333 50 281.333 58 299.333 73 c 0
 317.333 88 333.333 111 347.333 142 c 0
 361.333 172 373.333 206 380.333 243 c 0
 387.333 279 391.333 319 391.333 362 c 0
 391.333 405 387.333 445 380.333 482 c 0
 373.333 519 361.333 553 347.333 583 c 0
 333.333 614 317.333 637 299.333 652 c 0
 281.333 667 262.333 675 241.333 675 c 0
EndSplineSet
EndChar

StartChar: ordfeminine
Encoding: 170 170 106
Width: 600
GlyphClass: 2
Flags: HMW
HStem: 261 51<96 369 96 369> 360 41<209 211> 369 41<359 390 359 390> 559 37<221 227 227 301> 705 37<209 228>
VStem: 80 64<469 494 469 496> 301 58<369 595 408 595 487 559 559 559 410 618 410 632>
LayerCount: 2
Fore
SplineSet
359 595 m 2xde
 359 410 l 1
 390 410 l 1
 390 369 l 1
 301 369 l 1xbe
 301 408 l 1
 288 392 274 379 258 372 c 0
 242 364 221 360 199 360 c 0
 162 360 134 370 112 392 c 0
 90 413 80 442 80 478 c 0
 80 515 92 544 117 565 c 0
 142 586 176 596 221 596 c 2
 301 596 l 1
 301 618 l 2
 301 646 293 667 279 682 c 0
 264 697 242 705 215 705 c 0
 193 705 174 699 161 688 c 0
 147 677 138 660 135 637 c 1
 106 637 l 1
 106 714 l 1
 126 723 145 730 164 735 c 0
 182 740 200 742 218 742 c 0
 264 742 299 730 323 705 c 0
 347 680 359 643 359 595 c 2xde
301 487 m 2
 301 559 l 1
 227 559 l 2
 200 559 179 553 165 540 c 0
 151 527 144 507 144 482 c 0
 144 456 150 435 164 422 c 1
 177 408 196 401 222 401 c 0xde
 246 401 265 409 279 425 c 0
 293 440 301 461 301 487 c 2
96 312 m 1
 369 312 l 1
 369 261 l 1
 96 261 l 1
 96 312 l 1
EndSplineSet
EndChar

StartChar: guillemotleft
Encoding: 171 171 107
Width: 600
GlyphClass: 2
Flags: HW
LayerCount: 2
Fore
SplineSet
418.667 517 m 1
 418.667 461 l 1
 302.667 293 l 1
 418.667 125 l 1
 418.667 69 l 1
 235.667 273 l 1
 235.667 313 l 1
 418.667 517 l 1
248.667 517 m 1
 248.667 461 l 1
 132.667 293 l 1
 248.667 125 l 1
 248.667 69 l 1
 65.667 273 l 1
 65.667 313 l 1
 248.667 517 l 1
EndSplineSet
EndChar

StartChar: logicalnot
Encoding: 172 172 108
Width: 600
GlyphClass: 2
Flags: HMW
HStem: 342 79<64.6663 375.666 64.6663 420.666>
VStem: 375.666 44<140 342 342 342>
LayerCount: 2
Fore
SplineSet
64.667 421 m 1
 420.667 421 l 1
 420.667 140 l 1
 375.667 140 l 1
 375.667 342 l 1
 64.667 342 l 1
 64.667 421 l 1
EndSplineSet
EndChar

StartChar: sfthyphen
Encoding: 173 173 109
Width: 600
GlyphClass: 2
Flags: HMW
HStem: 230 76<116.666 316.666 116.666 316.666>
LayerCount: 2
Fore
SplineSet
116.667 306 m 1
 316.667 306 l 1
 316.667 230 l 1
 116.667 230 l 1
 116.667 306 l 1
EndSplineSet
EndChar

StartChar: registered
Encoding: 174 174 110
Width: 600
GlyphClass: 2
Flags: HMW
HStem: 0 50<231.334 251.334 231.334 253.334> 172 33<156.334 176.334 211.334 230.334 156.334 176.334 324.334 342.334> 353 33<211.334 232.334 211.334 240.334> 533 33<156.334 176.334 156.334 253.334 211.334 240.334 211.334 211.334> 675 50<231.334 251.334>
VStem: 67.3337 24<340 383 340 387> 176.334 35<205 353 205 386 386 533> 279.334 35<448 472> 391.334 24<340 384>
LayerCount: 2
Fore
SplineSet
211.333 386 m 1
 240.333 386 l 2
 253.333 386 262.333 392 269.333 405 c 0
 275.333 417 279.333 436 279.333 460 c 0
 279.333 484 275.333 502 269.333 515 c 1
 262.333 527 253.333 533 240.333 533 c 2
 211.333 533 l 1
 211.333 386 l 1
268.333 368 m 1
 275.333 364 280.333 357 285.333 349 c 0
 290.333 341 294.333 330 297.333 317 c 2
 324.333 205 l 1
 342.333 205 l 1
 342.333 172 l 1
 297.333 172 l 1
 266.333 296 l 2
 261.333 319 256.333 334 251.333 342 c 0
 246.333 349 240.333 353 232.333 353 c 2
 211.333 353 l 1
 211.333 205 l 1
 230.333 205 l 1
 230.333 172 l 1
 156.333 172 l 1
 156.333 205 l 1
 176.333 205 l 1
 176.333 533 l 1
 156.333 533 l 1
 156.333 566 l 1
 253.333 566 l 2
 273.333 566 289.333 557 299.333 539 c 0
 309.333 520 314.333 493 314.333 458 c 0
 314.333 431 310.333 410 302.333 395 c 0
 295.333 380 283.333 371 268.333 368 c 1
241.333 675 m 0
 220.333 675 202.333 667 184.333 652 c 0
 166.333 637 149.333 614 135.333 583 c 0
 121.333 553 110.333 519 102.333 482 c 0
 95.333 444 91.333 404 91.333 362 c 0
 91.333 319 95.333 280 102.333 243 c 0
 110.333 206 121.333 173 135.333 142 c 0
 149.333 111 166.333 88 184.333 73 c 0
 202.333 58 220.333 50 241.333 50 c 0
 262.333 50 281.333 58 299.333 73 c 0
 317.333 88 333.333 111 347.333 142 c 0
 361.333 172 373.333 206 380.333 243 c 0
 387.333 279 391.333 319 391.333 362 c 0
 391.333 405 387.333 445 380.333 482 c 0
 373.333 519 361.333 553 347.333 583 c 0
 333.333 614 317.333 637 299.333 652 c 0
 281.333 667 262.333 675 241.333 675 c 0
241.333 725 m 0
 265.333 725 287.333 716 307.333 698 c 0
 328.333 680 347.333 654 364.333 618 c 0
 381.333 583 394.333 544 402.333 501 c 0
 411.333 458 415.333 412 415.333 362 c 0
 415.333 312 411.333 266 402.333 224 c 0
 394.333 181 381.333 142 364.333 107 c 0
 347.333 71 328.333 45 307.333 27 c 0
 287.333 9 265.333 0 241.333 0 c 0
 217.333 0 195.333 9 175.333 27 c 0
 154.333 45 135.333 71 118.333 107 c 0
 101.333 142 88.333 181 80.333 224 c 0
 71.333 266 67.333 312 67.333 362 c 0
 67.333 412 71.333 458 80.333 501 c 0
 88.333 544 101.333 583 118.333 618 c 0
 135.333 654 154.333 680 175.333 698 c 0
 195.333 716 217.333 725 241.333 725 c 0
EndSplineSet
EndChar

StartChar: macron
Encoding: 175 175 111
Width: 600
GlyphClass: 2
Flags: HMW
HStem: 673 72<105.334 339.334 105.334 339.334>
LayerCount: 2
Fore
SplineSet
105.333 745 m 1
 339.333 745 l 1
 339.333 673 l 1
 105.333 673 l 1
 105.333 745 l 1
EndSplineSet
EndChar

StartChar: degree
Encoding: 176 176 112
Width: 600
GlyphClass: 2
Flags: HMW
HStem: 432 67<214.666 234.666 214.666 241.666> 675 67<214.666 232.666 207.666 234.666>
VStem: 100.666 54<574 598 574 608> 294.666 54<574 596 564 598>
LayerCount: 2
Fore
SplineSet
224.667 675 m 0
 204.667 675 187.667 666 174.667 649 c 0
 160.667 632 154.667 611 154.667 586 c 0
 154.667 561 160.667 541 174.667 524 c 0
 188.667 507 204.667 499 224.667 499 c 0
 244.667 499 261.667 507 274.667 524 c 0
 288.667 541 294.667 562 294.667 586 c 0
 294.667 610 288.667 631 274.667 649 c 0
 260.667 666 243.667 675 224.667 675 c 0
224.667 742 m 0
 241.667 742 257.667 738 272.667 730 c 0
 287.667 722 301.667 711 312.667 696 c 0
 324.667 681 333.667 665 339.667 646 c 0
 345.667 627 348.667 607 348.667 586 c 0
 348.667 543 336.667 507 312.667 477 c 0
 288.667 447 258.667 432 223.667 432 c 0
 188.667 432 158.667 447 135.667 476 c 0
 112.667 505 100.667 542 100.667 586 c 0
 100.667 630 112.667 667 136.667 697 c 0
 160.667 727 190.667 742 224.667 742 c 0
EndSplineSet
EndChar

StartChar: plusminus
Encoding: 177 177 113
Width: 600
GlyphClass: 2
Flags: HMW
HStem: 0 83<46 458 46 458> 328 83<46 219 46 219 285 458 46 285>
VStem: 219 66<166 328 166 328 411 572>
LayerCount: 2
Fore
SplineSet
46 83 m 1
 458 83 l 1
 458 0 l 1
 46 0 l 1
 46 83 l 1
285 572 m 1
 285 411 l 1
 458 411 l 1
 458 328 l 1
 285 328 l 1
 285 166 l 1
 219 166 l 1
 219 328 l 1
 46 328 l 1
 46 411 l 1
 219 411 l 1
 219 572 l 1
 285 572 l 1
EndSplineSet
EndChar

StartChar: twosuperior
Encoding: 178 178 114
Width: 600
GlyphClass: 2
Flags: HMW
HStem: 326 43<160.666 311.666 160.666 340.666> 706 36<207.666 218.666>
VStem: 278.666 58<607 630> 311.666 29<369 422 326 422>
LayerCount: 2
Fore
SplineSet
136.667 633 m 1xe0
 108.667 633 l 1
 108.667 710 l 1
 125.667 720 143.667 728 161.667 734 c 0
 179.667 739 198.667 742 216.667 742 c 0
 252.667 742 281.667 731 303.667 710 c 0
 325.667 688 336.667 661 336.667 627 c 0xe0
 336.667 587 310.667 539 260.667 482 c 2
 253.667 474 l 1
 160.667 369 l 1
 311.667 369 l 1
 311.667 422 l 1
 340.667 422 l 1
 340.667 326 l 1xd0
 104.667 326 l 1
 104.667 363 l 1
 216.667 487 l 2
 238.667 512 254.667 534 264.667 554 c 0
 274.667 574 278.667 595 278.667 616 c 0
 278.667 644 272.667 666 260.667 682 c 0
 247.667 698 230.667 706 208.667 706 c 0
 187.667 706 171.667 700 159.667 688 c 0
 147.667 675 139.667 657 136.667 633 c 1xe0
EndSplineSet
EndChar

StartChar: threesuperior
Encoding: 179 179 115
Width: 600
GlyphClass: 2
Flags: HMW
HStem: 319 36<202.334 218.334 194.334 233.334> 530 36<183.334 193.334 193.334 203.334 183.334 193.334> 706 36<209.334 218.334>
VStem: 103.334 27<346 429 429 429> 112.334 27<643 717> 270.334 58<630 649> 283.334 61<424 450 416 453>
LayerCount: 2
Fore
SplineSet
112.333 717 m 1xec
 131.333 725 150.333 732 167.333 736 c 0
 185.333 740 201.333 742 216.333 742 c 0
 252.333 742 279.333 733 299.333 716 c 1
 318.333 698 328.333 673 328.333 641 c 0xec
 328.333 618 321.333 598 307.333 582 c 0
 293.333 565 275.333 554 250.333 549 c 1
 281.333 544 304.333 531 320.333 512 c 0
 335.333 493 343.333 467 343.333 434 c 0
 343.333 397 332.333 368 309.333 349 c 1
 287.333 329 253.333 319 211.333 319 c 0
 193.333 319 174.333 321 156.333 326 c 0
 138.333 330 121.333 337 103.333 346 c 1
 103.333 429 l 1
 130.333 429 l 1
 132.333 405 138.333 386 151.333 374 c 0
 164.333 361 182.333 355 206.333 355 c 0
 231.333 355 249.333 362 263.333 376 c 0
 277.333 391 283.333 411 283.333 438 c 0xf2
 283.333 468 277.333 491 263.333 507 c 0
 249.333 522 229.333 530 203.333 530 c 2
 183.333 530 l 1
 183.333 566 l 1
 193.333 566 l 2
 219.333 566 238.333 572 251.333 584 c 0
 264.333 596 270.333 614 270.333 638 c 0
 270.333 660 264.333 677 254.333 688 c 0
 244.333 700 228.333 706 208.333 706 c 0
 186.333 706 170.333 701 159.333 690 c 0
 148.333 680 141.333 664 139.333 643 c 1
 112.333 643 l 1
 112.333 717 l 1xec
EndSplineSet
EndChar

StartChar: acute
Encoding: 180 180 116
Width: 600
GlyphClass: 2
Flags: HW
LayerCount: 2
Fore
SplineSet
225 800 m 1
 302 800 l 1
 169 616 l 1
 124 616 l 1
 225 800 l 1
EndSplineSet
EndChar

StartChar: paragraph
Encoding: 182 182 117
Width: 600
GlyphClass: 2
Flags: HMW
HStem: 677 52<263.334 348.334 263.334 263.334 388.334 431.334 388.334 388.334>
VStem: 224.334 39<-96 317 317 317> 348.334 39<-96 677 -96 677>
LayerCount: 2
Fore
SplineSet
233.333 729 m 2
 431.333 729 l 1
 431.333 677 l 1
 388.333 677 l 1
 388.333 -96 l 1
 348.333 -96 l 1
 348.333 677 l 1
 263.333 677 l 1
 263.333 -96 l 1
 224.333 -96 l 1
 224.333 317 l 1
 171.333 322 131.333 343 102.333 379 c 0
 73.333 415 59.333 463 59.333 523 c 0
 59.333 585 75.333 635 107.333 672 c 1
 139.333 710 180.333 729 233.333 729 c 2
EndSplineSet
EndChar

StartChar: periodcentered
Encoding: 183 183 118
Width: 600
GlyphClass: 2
Flags: HW
LayerCount: 2
Fore
SplineSet
163.667 301 m 1
 153.667 313 148.667 329 148.667 347 c 0
 148.667 365 153.667 381 163.667 393 c 1
 173.667 406 186.667 412 200.667 412 c 0
 214.667 412 227.667 406 237.667 393 c 0
 247.667 380 252.667 365 252.667 347 c 0
 252.667 329 247.667 314 237.667 301 c 0
 227.667 288 214.667 282 200.667 282 c 0
 186.667 282 173.667 288 163.667 301 c 1
EndSplineSet
EndChar

StartChar: cedilla
Encoding: 184 184 119
Width: 600
GlyphClass: 2
Flags: HMW
HStem: -193 59<192.334 197.334 185.334 212.334> -20 20G<204.334 241.334 241.334 241.334>
VStem: 238.334 53<-123 -82>
LayerCount: 2
Fore
SplineSet
241.333 0 m 1
 258.333 -21 271.333 -40 279.333 -59 c 0
 287.333 -77 291.333 -94 291.333 -110 c 0
 291.333 -136 283.333 -157 266.333 -171 c 1
 250.333 -186 227.333 -193 198.333 -193 c 0
 187.333 -193 175.333 -192 164.333 -190 c 0
 153.333 -188 141.333 -185 129.333 -181 c 1
 129.333 -117 l 1
 139.333 -123 150.333 -127 160.333 -130 c 1
 170.333 -132 180.333 -134 190.333 -134 c 0
 204.333 -134 216.333 -129 225.333 -121 c 1
 233.333 -112 238.333 -101 238.333 -86 c 0
 238.333 -77 235.333 -65 229.333 -51 c 0
 223.333 -36 215.333 -20 204.333 0 c 1
 241.333 0 l 1
EndSplineSet
EndChar

StartChar: onesuperior
Encoding: 185 185 120
Width: 600
GlyphClass: 2
Flags: HMW
HStem: 326 41<127.666 194.666 127.666 194.666 249.666 316.666> 714 20G<209.666 249.666 249.666 249.666>
VStem: 194.666 55<367 677 677 677>
LayerCount: 2
Fore
SplineSet
127.667 326 m 1
 127.667 367 l 1
 194.667 367 l 1
 194.667 677 l 1
 116.667 625 l 1
 116.667 671 l 1
 209.667 734 l 1
 249.667 734 l 1
 249.667 367 l 1
 316.667 367 l 1
 316.667 326 l 1
 127.667 326 l 1
EndSplineSet
EndChar

StartChar: ordmasculine
Encoding: 186 186 121
Width: 600
GlyphClass: 2
Flags: HMW
HStem: 261 51<99.6663 367.666 99.6663 367.666> 360 37<219.666 247.666 219.666 256.666> 705 37<219.666 247.666>
VStem: 82.6663 68<526 576 526 580> 316.666 68<526 576>
LayerCount: 2
Fore
SplineSet
233.667 397 m 0
 260.667 397 281.667 410 295.667 436 c 0
 309.667 462 316.667 500 316.667 551 c 0
 316.667 602 309.667 640 295.667 666 c 0
 281.667 692 260.667 705 233.667 705 c 0
 206.667 705 185.667 692 171.667 666 c 1
 157.667 639 150.667 601 150.667 551 c 0
 150.667 500 157.667 462 171.667 436 c 0
 185.667 410 206.667 397 233.667 397 c 0
233.667 360 m 0
 187.667 360 150.667 377 123.667 412 c 0
 95.667 447 82.667 493 82.667 551 c 0
 82.667 608 95.667 655 123.667 690 c 0
 150.667 725 187.667 742 233.667 742 c 0
 279.667 742 316.667 725 343.667 690 c 0
 371.667 655 384.667 608 384.667 551 c 0
 384.667 493 371.667 447 343.667 412 c 0
 316.667 377 279.667 360 233.667 360 c 0
99.667 312 m 1
 367.667 312 l 1
 367.667 261 l 1
 99.667 261 l 1
 99.667 312 l 1
EndSplineSet
EndChar

StartChar: guillemotright
Encoding: 187 187 122
Width: 600
GlyphClass: 2
Flags: HW
LayerCount: 2
Fore
SplineSet
235.667 517 m 1
 418.667 313 l 1
 418.667 273 l 1
 235.667 69 l 1
 235.667 125 l 1
 351.667 293 l 1
 235.667 461 l 1
 235.667 517 l 1
65.667 517 m 1
 248.667 313 l 1
 248.667 273 l 1
 65.667 69 l 1
 65.667 125 l 1
 181.667 293 l 1
 65.667 461 l 1
 65.667 517 l 1
EndSplineSet
EndChar

StartChar: questiondown
Encoding: 191 191 123
Width: 600
GlyphClass: 2
Flags: HMW
HStem: -13 48<243.334 269.334> 723 20G<261.334 276.334>
VStem: 71.3337 82<157 204 157 210> 245.334 48<411 535 375 535>
LayerCount: 2
Fore
SplineSet
321.333 678 m 0
 321.333 660 315.333 645 305.333 632 c 0
 295.333 619 283.333 613 269.333 613 c 0
 255.333 613 242.333 619 232.333 632 c 0
 222.333 645 217.333 660 217.333 678 c 0
 217.333 696 222.333 711 232.333 724 c 0
 242.333 737 255.333 743 269.333 743 c 0
 283.333 743 295.333 737 305.333 724 c 1
 315.333 712 321.333 696 321.333 678 c 0
407.333 32 m 1
 379.333 17 354.333 6 329.333 -2 c 0
 304.333 -9 280.333 -13 258.333 -13 c 0
 200.333 -13 155.333 4 121.333 39 c 0
 87.333 74 71.333 121 71.333 180 c 0
 71.333 241 85.333 290 114.333 329 c 0
 143.333 367 187.333 395 245.333 411 c 1
 245.333 535 l 1
 293.333 535 l 1
 293.333 375 l 1
 247.333 361 212.333 338 189.333 305 c 0
 166.333 272 153.333 230 153.333 179 c 0
 153.333 135 163.333 99 182.333 74 c 0
 201.333 48 227.333 35 260.333 35 c 0
 290.333 35 314.333 46 333.333 67 c 0
 352.333 88 363.333 119 369.333 159 c 1
 407.333 159 l 1
 407.333 32 l 1
EndSplineSet
EndChar

StartChar: Agrave
Encoding: 192 192 124
Width: 600
GlyphClass: 2
Flags: HMW
HStem: 0 52<28.6667 55.6667 104.667 144.667 28.6667 55.6667 328.667 369.667 458.667 492.667> 212 52<153.667 317.667 153.667 330.667 141.667 317.667> 709 20<219.667 285.667 285.667 285.667>
LayerCount: 2
Fore
SplineSet
104.667 52 m 1
 144.667 52 l 1
 144.667 0 l 1
 28.667 0 l 1
 28.667 52 l 1
 55.667 52 l 1
 219.667 729 l 1
 285.667 729 l 1
 458.667 52 l 1
 492.667 52 l 1
 492.667 0 l 1
 328.667 0 l 1
 328.667 52 l 1
 369.667 52 l 1
 330.667 212 l 1
 141.667 212 l 1
 104.667 52 l 1
153.667 264 m 1
 317.667 264 l 1
 232.667 611 l 1
 153.667 264 l 1
341.667 927 m 1
 412.667 798 l 1
 367.667 798 l 1
 264.667 927 l 1
 341.667 927 l 1
EndSplineSet
EndChar

StartChar: Aacute
Encoding: 193 193 125
Width: 600
GlyphClass: 2
Flags: HMW
HStem: 0 52<28.6667 55.6667 104.667 144.667 28.6667 55.6667 328.667 369.667 458.667 492.667> 212 52<153.667 317.667 153.667 330.667 141.667 317.667> 709 20<219.667 285.667 285.667 285.667>
LayerCount: 2
Fore
SplineSet
104.667 52 m 1
 144.667 52 l 1
 144.667 0 l 1
 28.667 0 l 1
 28.667 52 l 1
 55.667 52 l 1
 219.667 729 l 1
 285.667 729 l 1
 458.667 52 l 1
 492.667 52 l 1
 492.667 0 l 1
 328.667 0 l 1
 328.667 52 l 1
 369.667 52 l 1
 330.667 212 l 1
 141.667 212 l 1
 104.667 52 l 1
153.667 264 m 1
 317.667 264 l 1
 232.667 611 l 1
 153.667 264 l 1
336.667 927 m 1
 412.667 927 l 1
 310.667 798 l 1
 264.667 798 l 1
 336.667 927 l 1
EndSplineSet
EndChar

StartChar: Acircumflex
Encoding: 194 194 126
Width: 600
GlyphClass: 2
Flags: HMW
HStem: 0 52<28.6667 55.6667 104.667 144.667 28.6667 55.6667 328.667 369.667 458.667 492.667> 212 52<153.667 317.667 153.667 330.667 141.667 317.667> 709 20<219.667 285.667 285.667 285.667>
LayerCount: 2
Fore
SplineSet
104.667 52 m 1
 144.667 52 l 1
 144.667 0 l 1
 28.667 0 l 1
 28.667 52 l 1
 55.667 52 l 1
 219.667 729 l 1
 285.667 729 l 1
 458.667 52 l 1
 492.667 52 l 1
 492.667 0 l 1
 328.667 0 l 1
 328.667 52 l 1
 369.667 52 l 1
 330.667 212 l 1
 141.667 212 l 1
 104.667 52 l 1
153.667 264 m 1
 317.667 264 l 1
 232.667 611 l 1
 153.667 264 l 1
304.667 927 m 1
 373.667 927 l 1
 463.667 798 l 1
 418.667 798 l 1
 338.667 877 l 1
 259.667 798 l 1
 214.667 798 l 1
 304.667 927 l 1
EndSplineSet
EndChar

StartChar: Atilde
Encoding: 195 195 127
Width: 600
GlyphClass: 2
Flags: HMW
HStem: 0 52<28.6667 55.6667 104.667 144.667 28.6667 55.6667 328.667 369.667 458.667 492.667> 212 52<153.667 317.667 153.667 330.667 141.667 317.667> 709 20<219.667 285.667 285.667 285.667> 814 57<393.667 400.667 393.667 402.667> 864 57<279.667 286.667>
VStem: 210.667 38 430.667 38
LayerCount: 2
Fore
SplineSet
104.667 52 m 1xe0
 144.667 52 l 1
 144.667 0 l 1
 28.667 0 l 1
 28.667 52 l 1
 55.667 52 l 1
 219.667 729 l 1
 285.667 729 l 1
 458.667 52 l 1
 492.667 52 l 1
 492.667 0 l 1
 328.667 0 l 1
 328.667 52 l 1
 369.667 52 l 1
 330.667 212 l 1
 141.667 212 l 1
 104.667 52 l 1xe0
153.667 264 m 1
 317.667 264 l 1
 232.667 611 l 1
 153.667 264 l 1
334.667 837 m 1x16
 314.667 851 l 2
 309.667 855 304.667 858 298.667 861 c 0
 293.667 863 289.667 864 284.667 864 c 0x0e
 274.667 864 265.667 859 258.667 850 c 0
 252.667 841 248.667 829 247.667 814 c 1
 210.667 814 l 1x16
 211.667 847 216.667 873 230.667 892 c 0
 243.667 911 261.667 921 283.667 921 c 0x0e
 293.667 921 302.667 919 310.667 916 c 0
 318.667 913 329.667 907 343.667 897 c 2
 362.667 884 l 2
 368.667 880 374.667 877 380.667 874 c 0
 386.667 872 390.667 871 395.667 871 c 0x16
 405.667 871 414.667 875 420.667 884 c 0
 426.667 893 430.667 905 430.667 921 c 1
 467.667 921 l 1x0e
 466.667 887 460.667 860 446.667 842 c 0
 432.667 823 415.667 814 390.667 814 c 0
 372.667 814 354.667 821 335.667 836 c 1
 334.667 837 l 1x16
EndSplineSet
EndChar

StartChar: Adieresis
Encoding: 196 196 128
Width: 600
GlyphClass: 2
Flags: HMW
HStem: 0 52<28.6667 55.6667 104.667 144.667 28.6667 55.6667 328.667 369.667 458.667 492.667> 212 52<153.667 317.667 153.667 330.667 141.667 317.667> 709 20<219.667 285.667 285.667 285.667> 806 114<256.667 268.667 256.667 269.667 408.667 421.667>
LayerCount: 2
Fore
SplineSet
104.667 52 m 1
 144.667 52 l 1
 144.667 0 l 1
 28.667 0 l 1
 28.667 52 l 1
 55.667 52 l 1
 219.667 729 l 1
 285.667 729 l 1
 458.667 52 l 1
 492.667 52 l 1
 492.667 0 l 1
 328.667 0 l 1
 328.667 52 l 1
 369.667 52 l 1
 330.667 212 l 1
 141.667 212 l 1
 104.667 52 l 1
153.667 264 m 1
 317.667 264 l 1
 232.667 611 l 1
 153.667 264 l 1
262.667 920 m 0
 274.667 920 285.667 914 294.667 903 c 0
 303.667 891 308.667 878 308.667 863 c 0
 308.667 847 303.667 833 295.667 822 c 0
 286.667 811 275.667 806 262.667 806 c 0
 249.667 806 238.667 811 230.667 822 c 0
 221.667 833 217.667 847 217.667 863 c 0
 217.667 878 221.667 891 230.667 903 c 0
 239.667 914 249.667 920 262.667 920 c 0
414.667 920 m 0
 427.667 920 437.667 914 446.667 903 c 0
 455.667 891 460.667 878 460.667 863 c 0
 460.667 847 455.667 833 446.667 822 c 0
 438.667 811 427.667 806 414.667 806 c 0
 401.667 806 391.667 811 382.667 822 c 0
 374.667 833 369.667 847 369.667 863 c 0
 369.667 878 373.667 891 382.667 903 c 0
 391.667 914 402.667 920 414.667 920 c 0
EndSplineSet
EndChar

StartChar: Aring
Encoding: 197 197 129
Width: 600
GlyphClass: 2
Flags: HMW
HStem: 0 52<20 62 20 62 103 156 334 388 462 510> 212 52<157 334 157 347 143 334> 868 60<255 269>
VStem: 173 40<784 804 784 812> 311 40<784 804>
LayerCount: 2
Fore
SplineSet
297 742 m 1
 307 756 311 773 311 794 c 0
 311 814 307 832 297 846 c 1
 288 861 275 868 262 868 c 0
 248 868 237 861 227 847 c 0
 218 833 213 815 213 794 c 0
 213 773 218 756 227 742 c 0
 237 727 248 720 262 720 c 0
 275 720 288 727 297 742 c 1
157 264 m 1
 334 264 l 1
 246 611 l 1
 157 264 l 1
20 0 m 1
 20 52 l 1
 62 52 l 1
 221 676 l 1
 205 688 194 704 185 724 c 0
 177 743 173 767 173 794 c 0
 173 831 182 863 199 889 c 0
 216 915 237 928 262 928 c 0
 287 928 308 915 325 889 c 0
 342 863 351 831 351 794 c 0
 351 768 348 745 339 724 c 0
 330 703 318 687 303 676 c 1
 462 52 l 1
 510 52 l 1
 510 0 l 1
 334 0 l 1
 334 52 l 1
 388 52 l 1
 347 212 l 1
 143 212 l 1
 103 52 l 1
 156 52 l 1
 156 0 l 1
 20 0 l 1
EndSplineSet
EndChar

StartChar: AE
Encoding: 198 198 130
Width: 600
GlyphClass: 2
Flags: HMW
HStem: 0 52<28.6663 59.6663 89.6663 128.666 28.6663 59.6663 206.666 251.666> 0 60<298.666 463.666 298.666 492.666> 212 52<136.666 251.666 136.666 251.666 125.666 251.666> 365 60<298.666 413.666 298.666 413.666> 669 60<298.666 459.666 298.666 298.666> 677 52<147.666 197.666 147.666 488.666 227.666 251.666 227.666 227.666>
VStem: 251.666 47<60 212 212 212 264 365 425 669> 413.666 29<274 365 365 365 425 516 274 516> 459.666 29<567 669 669 669> 463.666 29<60 162 0 162>
LayerCount: 2
Fore
SplineSet
136.667 264 m 1x37
 251.667 264 l 1
 251.667 677 l 1
 227.667 677 l 1
 136.667 264 l 1x37
206.667 0 m 1xb340
 206.667 52 l 1
 251.667 52 l 1
 251.667 212 l 1
 125.667 212 l 1
 89.667 52 l 1
 128.667 52 l 1
 128.667 0 l 1
 28.667 0 l 1
 28.667 52 l 1
 59.667 52 l 1
 197.667 677 l 1
 147.667 677 l 1
 147.667 729 l 1xb740
 488.667 729 l 1
 488.667 567 l 1
 459.667 567 l 1
 459.667 669 l 1x3b80
 298.667 669 l 1
 298.667 425 l 1
 413.667 425 l 1
 413.667 516 l 1
 442.667 516 l 1
 442.667 274 l 1
 413.667 274 l 1
 413.667 365 l 1
 298.667 365 l 1
 298.667 60 l 1
 463.667 60 l 1
 463.667 162 l 1
 492.667 162 l 1
 492.667 0 l 1x7b40
 206.667 0 l 1xb340
EndSplineSet
EndChar

StartChar: Ccedilla
Encoding: 199 199 131
Width: 600
GlyphClass: 2
Flags: HMW
HStem: -193 59<530.667 535.667 523.667 550.667> -20 20<541.667 579.667 579.667 579.667> -14 52<154.667 183.667 150.667 191.667> 690 52<150.667 185.667 141.667 186.667>
VStem: -39.333 90 282.667 52 576.667 53
LayerCount: 2
Fore
SplineSet
347.667 193 m 1x3c
 335.667 125 313.667 73 283.667 38 c 0
 253.667 3 214.667 -14 168.667 -14 c 0
 139.667 -14 113.667 -6 89.667 10 c 1
 65.667 27 44.667 50 25.667 82 c 0
 4.66699 118 -11.333 160 -22.333 206 c 0
 -33.333 253 -39.333 305 -39.333 364 c 0
 -39.333 477 -19.333 568 19.667 638 c 1
 58.667 707 109.667 742 173.667 742 c 0
 197.667 742 222.667 737 249.667 727 c 0
 276.667 716 304.667 700 335.667 679 c 1
 335.667 511 l 1
 282.667 511 l 1
 276.667 572 265.667 618 246.667 646 c 1
 228.667 675 202.667 690 169.667 690 c 0
 130.667 690 100.667 662 80.667 607 c 0
 60.667 552 50.667 471 50.667 364 c 0
 50.667 257 60.667 176 80.667 121 c 0
 100.667 66 130.667 38 169.667 38 c 0
 196.667 38 219.667 51 237.667 77 c 0
 255.667 103 267.667 141 275.667 193 c 1
 347.667 193 l 1x3c
579.667 0 m 1xc2
 596.667 -21 608.667 -40 616.667 -59 c 0
 624.667 -77 628.667 -94 628.667 -110 c 0
 628.667 -136 621.667 -157 604.667 -171 c 1
 588.667 -186 565.667 -193 536.667 -193 c 0
 525.667 -193 513.667 -192 502.667 -190 c 0
 491.667 -188 479.667 -185 467.667 -181 c 1
 467.667 -117 l 1
 477.667 -123 488.667 -127 498.667 -130 c 1
 508.667 -132 518.667 -134 528.667 -134 c 0
 542.667 -134 554.667 -129 563.667 -121 c 1
 571.667 -112 576.667 -101 576.667 -86 c 0
 576.667 -77 573.667 -65 567.667 -51 c 0
 561.667 -36 552.667 -20 541.667 0 c 1
 579.667 0 l 1xc2
EndSplineSet
EndChar

StartChar: Egrave
Encoding: 200 200 132
Width: 600
GlyphClass: 2
Flags: HMW
HStem: 0 52<48.6663 98.6663 48.6663 98.6663 48.6663 452.666> 0 60<177.666 404.666 177.666 452.666> 365 60<177.666 320.666 177.666 320.666> 669 60<177.666 397.666 177.666 177.666> 677 52<48.6663 98.6663 48.6663 445.666>
VStem: 98.6663 79<60 365 425 669> 320.666 48<274 365 365 365 425 516 274 516> 397.666 48<567 669 669 669> 404.666 48<60 162 0 162>
LayerCount: 2
Fore
SplineSet
48.667 0 m 1x6680
 48.667 52 l 1
 98.667 52 l 1
 98.667 677 l 1
 48.667 677 l 1
 48.667 729 l 1x6e80
 445.667 729 l 1
 445.667 567 l 1
 397.667 567 l 1
 397.667 669 l 1x37
 177.667 669 l 1
 177.667 425 l 1
 320.667 425 l 1
 320.667 516 l 1
 368.667 516 l 1
 368.667 274 l 1
 320.667 274 l 1
 320.667 365 l 1
 177.667 365 l 1
 177.667 60 l 1
 404.667 60 l 1
 404.667 162 l 1
 452.667 162 l 1
 452.667 0 l 1xb680
 48.667 0 l 1x6680
316.667 927 m 1x00
 387.667 798 l 1
 342.667 798 l 1
 239.667 927 l 1
 316.667 927 l 1x00
EndSplineSet
EndChar

StartChar: Eacute
Encoding: 201 201 133
Width: 600
GlyphClass: 2
Flags: HMW
HStem: 0 52<48.6663 98.6663 48.6663 98.6663 48.6663 452.666> 0 60<177.666 404.666 177.666 452.666> 365 60<177.666 320.666 177.666 320.666> 669 60<177.666 397.666 177.666 177.666> 677 52<48.6663 98.6663 48.6663 445.666>
VStem: 98.6663 79<60 365 425 669> 320.666 48<274 365 365 365 425 516 274 516> 397.666 48<567 669 669 669> 404.666 48<60 162 0 162>
LayerCount: 2
Fore
SplineSet
48.667 0 m 1x6680
 48.667 52 l 1
 98.667 52 l 1
 98.667 677 l 1
 48.667 677 l 1
 48.667 729 l 1x6e80
 445.667 729 l 1
 445.667 567 l 1
 397.667 567 l 1
 397.667 669 l 1x37
 177.667 669 l 1
 177.667 425 l 1
 320.667 425 l 1
 320.667 516 l 1
 368.667 516 l 1
 368.667 274 l 1
 320.667 274 l 1
 320.667 365 l 1
 177.667 365 l 1
 177.667 60 l 1
 404.667 60 l 1
 404.667 162 l 1
 452.667 162 l 1
 452.667 0 l 1xb680
 48.667 0 l 1x6680
310.667 927 m 1x00
 387.667 927 l 1
 285.667 798 l 1
 239.667 798 l 1
 310.667 927 l 1x00
EndSplineSet
EndChar

StartChar: Ecircumflex
Encoding: 202 202 134
Width: 600
GlyphClass: 2
Flags: HMW
HStem: 0 52<48.6663 98.6663 48.6663 98.6663 48.6663 452.666> 0 60<177.666 404.666 177.666 452.666> 365 60<177.666 320.666 177.666 320.666> 669 60<177.666 397.666 177.666 177.666> 677 52<48.6663 98.6663 48.6663 445.666>
VStem: 98.6663 79<60 365 425 669> 320.666 48<274 365 365 365 425 516 274 516> 397.666 48<567 669 669 669> 404.666 48<60 162 0 162>
LayerCount: 2
Fore
SplineSet
48.667 0 m 1x6680
 48.667 52 l 1
 98.667 52 l 1
 98.667 677 l 1
 48.667 677 l 1
 48.667 729 l 1x6e80
 445.667 729 l 1
 445.667 567 l 1
 397.667 567 l 1
 397.667 669 l 1x37
 177.667 669 l 1
 177.667 425 l 1
 320.667 425 l 1
 320.667 516 l 1
 368.667 516 l 1
 368.667 274 l 1
 320.667 274 l 1
 320.667 365 l 1
 177.667 365 l 1
 177.667 60 l 1
 404.667 60 l 1
 404.667 162 l 1
 452.667 162 l 1
 452.667 0 l 1xb680
 48.667 0 l 1x6680
279.667 927 m 1x00
 348.667 927 l 1
 438.667 798 l 1
 392.667 798 l 1
 313.667 877 l 1
 234.667 798 l 1
 188.667 798 l 1
 279.667 927 l 1x00
EndSplineSet
EndChar

StartChar: Edieresis
Encoding: 203 203 135
Width: 600
GlyphClass: 2
Flags: HMW
HStem: 0 52<48.6663 98.6663 48.6663 98.6663 48.6663 452.666> 0 60<177.666 404.666 177.666 452.666> 365 60<177.666 320.666 177.666 320.666> 669 60<177.666 397.666 177.666 177.666> 677 52<48.6663 98.6663 48.6663 445.666> 806 114<231.666 243.666 231.666 244.666 383.666 396.666>
VStem: 98.6663 79<60 365 425 669> 320.666 48<274 365 365 365 425 516 274 516> 397.666 48<567 669 669 669> 404.666 48<60 162 0 162>
LayerCount: 2
Fore
SplineSet
48.667 0 m 1xa340
 48.667 52 l 1
 98.667 52 l 1
 98.667 677 l 1
 48.667 677 l 1
 48.667 729 l 1xab40
 445.667 729 l 1
 445.667 567 l 1
 397.667 567 l 1
 397.667 669 l 1x3380
 177.667 669 l 1
 177.667 425 l 1
 320.667 425 l 1
 320.667 516 l 1
 368.667 516 l 1
 368.667 274 l 1
 320.667 274 l 1
 320.667 365 l 1
 177.667 365 l 1
 177.667 60 l 1
 404.667 60 l 1
 404.667 162 l 1
 452.667 162 l 1
 452.667 0 l 1x7340
 48.667 0 l 1xa340
237.667 920 m 0x04
 249.667 920 260.667 914 269.667 903 c 0
 278.667 891 283.667 878 283.667 863 c 0
 283.667 847 278.667 833 270.667 822 c 0
 261.667 811 250.667 806 237.667 806 c 0
 224.667 806 213.667 811 205.667 822 c 0
 196.667 833 192.667 847 192.667 863 c 0
 192.667 878 196.667 891 205.667 903 c 0
 214.667 914 224.667 920 237.667 920 c 0x04
389.667 920 m 0
 402.667 920 412.667 914 421.667 903 c 0
 430.667 891 435.667 878 435.667 863 c 0
 435.667 847 430.667 833 421.667 822 c 0
 413.667 811 402.667 806 389.667 806 c 0
 376.667 806 365.667 811 356.667 822 c 0
 348.667 833 344.667 847 344.667 863 c 0
 344.667 878 348.667 891 357.667 903 c 0
 366.667 914 377.667 920 389.667 920 c 0
EndSplineSet
EndChar

StartChar: Igrave
Encoding: 204 204 136
Width: 600
GlyphClass: 2
Flags: HMW
HStem: 0 52<80.6663 194.666 274.666 388.666 80.6663 194.666> 677 52<80.6663 194.666 80.6663 388.666 274.666 274.666 274.666 388.666>
VStem: 194.666 79<52 677>
LayerCount: 2
Fore
SplineSet
274.667 52 m 1
 388.667 52 l 1
 388.667 0 l 1
 80.667 0 l 1
 80.667 52 l 1
 194.667 52 l 1
 194.667 677 l 1
 80.667 677 l 1
 80.667 729 l 1
 388.667 729 l 1
 388.667 677 l 1
 274.667 677 l 1
 274.667 52 l 1
278.667 927 m 1
 349.667 798 l 1
 304.667 798 l 1
 201.667 927 l 1
 278.667 927 l 1
EndSplineSet
EndChar

StartChar: Iacute
Encoding: 205 205 137
Width: 600
GlyphClass: 2
Flags: HMW
HStem: 0 52<80.6663 194.666 274.666 388.666 80.6663 194.666> 677 52<80.6663 194.666 80.6663 388.666 274.666 274.666 274.666 388.666>
VStem: 194.666 79<52 677>
LayerCount: 2
Fore
SplineSet
274.667 52 m 1
 388.667 52 l 1
 388.667 0 l 1
 80.667 0 l 1
 80.667 52 l 1
 194.667 52 l 1
 194.667 677 l 1
 80.667 677 l 1
 80.667 729 l 1
 388.667 729 l 1
 388.667 677 l 1
 274.667 677 l 1
 274.667 52 l 1
272.667 927 m 1
 349.667 927 l 1
 247.667 798 l 1
 201.667 798 l 1
 272.667 927 l 1
EndSplineSet
EndChar

StartChar: Icircumflex
Encoding: 206 206 138
Width: 600
GlyphClass: 2
Flags: HMW
HStem: 0 52<76.667 190.667 270.667 384.667 76.667 190.667> 677 52<76.667 190.667 76.667 384.667 270.667 270.667 270.667 384.667>
VStem: 190.667 79<52 677>
LayerCount: 2
Fore
SplineSet
270.667 52 m 1
 384.667 52 l 1
 384.667 0 l 1
 76.667 0 l 1
 76.667 52 l 1
 190.667 52 l 1
 190.667 677 l 1
 76.667 677 l 1
 76.667 729 l 1
 384.667 729 l 1
 384.667 677 l 1
 270.667 677 l 1
 270.667 52 l 1
237.667 927 m 1
 306.667 927 l 1
 396.667 798 l 1
 350.667 798 l 1
 271.667 877 l 1
 192.667 798 l 1
 146.667 798 l 1
 237.667 927 l 1
EndSplineSet
EndChar

StartChar: Idieresis
Encoding: 207 207 139
Width: 600
GlyphClass: 2
Flags: HMW
HStem: 0 52<78.0003 192 271 386 78.0003 192> 677 52<78.0003 192 78.0003 386 271 271 271 386> 806 114<190 203 190 203 343 355>
VStem: 192 79<52 677>
LayerCount: 2
Fore
SplineSet
271 52 m 1
 386 52 l 1
 386 0 l 1
 78 0 l 1
 78 52 l 1
 192 52 l 1
 192 677 l 1
 78 677 l 1
 78 729 l 1
 386 729 l 1
 386 677 l 1
 271 677 l 1
 271 52 l 1
197 920 m 0
 209 920 220 914 229 903 c 0
 238 891 242 878 242 863 c 0
 242 847 238 833 230 822 c 0
 221 811 210 806 197 806 c 0
 184 806 173 811 165 822 c 0
 156 833 151 847 151 863 c 0
 151 878 156 891 165 903 c 0
 174 914 184 920 197 920 c 0
349 920 m 0
 362 920 372 914 381 903 c 0
 390 891 394 878 394 863 c 0
 394 847 390 833 381 822 c 0
 373 811 362 806 349 806 c 0
 336 806 325 811 316 822 c 0
 308 833 303 847 303 863 c 0
 303 878 308 891 317 903 c 0
 326 914 337 920 349 920 c 0
EndSplineSet
EndChar

StartChar: Eth
Encoding: 208 208 140
Width: 600
GlyphClass: 2
Flags: HMW
HStem: 0 52<49.6663 104.666 49.6663 104.666 162.666 216.666 216.666 220.666> 351 61<46.6663 104.666 46.6663 104.666 162.666 259.666> 677 52<49.6663 104.666 49.6663 220.666 162.666 216.666 162.666 162.666>
VStem: 104.666 58<52 351 412 677> 390.666 66<314 416>
LayerCount: 2
Fore
SplineSet
162.667 52 m 1
 216.667 52 l 2
 272.667 52 315.667 79 345.667 133 c 0
 375.667 187 390.667 264 390.667 365 c 0
 390.667 466 375.667 543 345.667 597 c 0
 315.667 650 272.667 677 216.667 677 c 2
 162.667 677 l 1
 162.667 412 l 1
 259.667 412 l 1
 259.667 351 l 1
 162.667 351 l 1
 162.667 52 l 1
49.667 0 m 1
 49.667 52 l 1
 104.667 52 l 1
 104.667 351 l 1
 46.667 351 l 1
 46.667 412 l 1
 104.667 412 l 1
 104.667 677 l 1
 49.667 677 l 1
 49.667 729 l 1
 220.667 729 l 2
 295.667 729 353.667 697 394.667 633 c 0
 435.667 569 456.667 479 456.667 365 c 0
 456.667 251 435.667 161 394.667 97 c 0
 352.667 32 294.667 0 220.667 0 c 2
 49.667 0 l 1
EndSplineSet
EndChar

StartChar: Ntilde
Encoding: 209 209 141
Width: 600
GlyphClass: 2
Flags: HMW
HStem: 0 52<28 75 28 75 123 193> 677 52<28 75 28 146 353 399 447 447 447 494> 814 57<407 415 407 417> 864 57<293 301>
VStem: 75 48<52 580 52 677> 224 38<814 814> 399 48<174 677 -14 677> 444 38<913 921>
LayerCount: 2
Fore
SplineSet
28 0 m 1xca
 28 52 l 1
 75 52 l 1
 75 677 l 1
 28 677 l 1
 28 729 l 1
 146 729 l 1
 399 174 l 1
 399 677 l 1
 353 677 l 1
 353 729 l 1
 494 729 l 1
 494 677 l 1
 447 677 l 1
 447 -14 l 1
 400 -14 l 1
 123 580 l 1
 123 52 l 1
 193 52 l 1
 193 0 l 1
 28 0 l 1xca
348 837 m 1x25
 329 851 l 2
 324 855 319 858 313 861 c 0
 308 863 304 864 299 864 c 0x15
 289 864 280 859 273 850 c 0
 267 841 263 829 262 814 c 1
 224 814 l 1x25
 225 847 231 873 245 892 c 0
 258 911 276 921 298 921 c 0x15
 308 921 316 919 324 916 c 0
 332 913 344 907 358 897 c 2
 377 884 l 2
 383 880 389 877 395 874 c 0
 401 872 405 871 410 871 c 0x25
 420 871 429 875 435 884 c 0
 441 893 444 905 444 921 c 1
 482 921 l 1x15
 481 887 475 860 461 842 c 0
 447 823 429 814 404 814 c 0
 386 814 369 821 350 836 c 1
 348 837 l 1x25
EndSplineSet
EndChar

StartChar: Ograve
Encoding: 210 210 142
Width: 600
GlyphClass: 2
Flags: HMW
HStem: -14 52<208.333 284.333 208.333 316.333> 690 52<199.333 293.333>
VStem: 50.333 90 352.333 89
LayerCount: 2
Fore
SplineSet
246.333 38 m 0
 323.333 38 352.333 129 352.333 364 c 0
 352.333 556 340.333 690 246.333 690 c 0
 153.333 690 140.333 557 140.333 364 c 0
 140.333 129 169.333 38 246.333 38 c 0
246.333 -14 m 0
 106.333 -14 50.333 141 50.333 364 c 0
 50.333 586 105.333 742 246.333 742 c 0
 387.333 742 441.333 595 441.333 364 c 0
 441.333 142 387.333 -14 246.333 -14 c 0
377.333 927 m 1
 449.333 798 l 1
 403.333 798 l 1
 301.333 927 l 1
 377.333 927 l 1
EndSplineSet
EndChar

StartChar: Oacute
Encoding: 211 211 143
Width: 600
GlyphClass: 2
Flags: HMW
HStem: -14 52<208.333 284.333 208.333 316.333> 690 52<199.333 293.333>
VStem: 50.333 90 352.333 89
LayerCount: 2
Fore
SplineSet
246.333 38 m 0
 323.333 38 352.333 129 352.333 364 c 0
 352.333 556 340.333 690 246.333 690 c 0
 153.333 690 140.333 557 140.333 364 c 0
 140.333 129 169.333 38 246.333 38 c 0
246.333 -14 m 0
 106.333 -14 50.333 141 50.333 364 c 0
 50.333 586 105.333 742 246.333 742 c 0
 387.333 742 441.333 595 441.333 364 c 0
 441.333 142 387.333 -14 246.333 -14 c 0
372.333 927 m 1
 449.333 927 l 1
 346.333 798 l 1
 301.333 798 l 1
 372.333 927 l 1
EndSplineSet
EndChar

StartChar: Ocircumflex
Encoding: 212 212 144
Width: 600
GlyphClass: 2
Flags: HMW
HStem: -14 52<191.333 268.333 191.333 299.333> 690 52<183.333 276.333>
VStem: 33.3333 90 336.333 89
LayerCount: 2
Fore
SplineSet
229.333 38 m 0
 306.333 38 336.333 129 336.333 364 c 0
 336.333 556 323.333 690 229.333 690 c 0
 136.333 690 123.333 557 123.333 364 c 0
 123.333 129 152.333 38 229.333 38 c 0
229.333 -14 m 0
 89.333 -14 33.333 141 33.333 364 c 0
 33.333 586 88.333 742 229.333 742 c 0
 370.333 742 425.333 595 425.333 364 c 0
 425.333 142 370.333 -14 229.333 -14 c 0
324.333 927 m 1
 392.333 927 l 1
 483.333 798 l 1
 437.333 798 l 1
 358.333 877 l 1
 279.333 798 l 1
 233.333 798 l 1
 324.333 927 l 1
EndSplineSet
EndChar

StartChar: Otilde
Encoding: 213 213 145
Width: 600
GlyphClass: 2
Flags: HMW
HStem: -14 52<189.333 266.333 189.333 298.333> 690 52<181.333 275.333> 814 57<411.333 419.333 411.333 420.333> 864 57<297.333 305.333>
VStem: 32.3333 90 228.333 38<814 814> 334.333 89 448.333 38<913 921>
LayerCount: 2
Fore
SplineSet
228.333 38 m 0xca
 305.333 38 334.333 129 334.333 364 c 0
 334.333 556 322.333 690 228.333 690 c 0
 135.333 690 121.333 557 121.333 364 c 0
 121.333 129 151.333 38 228.333 38 c 0xca
227.333 -14 m 0
 87.333 -14 32.333 141 32.333 364 c 0
 32.333 586 86.333 742 227.333 742 c 0
 368.333 742 423.333 595 423.333 364 c 0
 423.333 142 368.333 -14 227.333 -14 c 0
352.333 837 m 1x25
 333.333 851 l 2
 328.333 855 323.333 858 317.333 861 c 0
 312.333 863 307.333 864 302.333 864 c 0x15
 292.333 864 284.333 859 277.333 850 c 0
 271.333 841 266.333 829 265.333 814 c 1
 228.333 814 l 1x25
 229.333 847 235.333 873 249.333 892 c 0
 262.333 911 279.333 921 301.333 921 c 0x15
 311.333 921 320.333 919 328.333 916 c 0
 336.333 913 347.333 907 361.333 897 c 2
 381.333 884 l 2
 387.333 880 392.333 877 398.333 874 c 0
 404.333 872 408.333 871 413.333 871 c 0x25
 423.333 871 432.333 875 438.333 884 c 0
 444.333 893 448.333 905 448.333 921 c 1
 485.333 921 l 1x15
 484.333 887 479.333 860 465.333 842 c 0
 451.333 823 433.333 814 408.333 814 c 0
 390.333 814 372.333 821 353.333 836 c 1
 352.333 837 l 1x25
EndSplineSet
EndChar

StartChar: Odieresis
Encoding: 214 214 146
Width: 600
GlyphClass: 2
Flags: HMW
HStem: -14 52<192.667 268.667 192.667 300.667> 690 52<183.667 277.667> 806 114<276.667 289.667 276.667 289.667 429.667 441.667>
VStem: 34.6667 90 336.667 89
LayerCount: 2
Fore
SplineSet
230.667 38 m 0
 307.667 38 336.667 129 336.667 364 c 0
 336.667 556 324.667 690 230.667 690 c 0
 137.667 690 123.667 557 123.667 364 c 0
 123.667 129 153.667 38 230.667 38 c 0
230.667 -14 m 0
 90.667 -14 34.667 141 34.667 364 c 0
 34.667 586 89.667 742 230.667 742 c 0
 371.667 742 425.667 595 425.667 364 c 0
 425.667 142 371.667 -14 230.667 -14 c 0
283.667 920 m 0
 295.667 920 306.667 914 315.667 903 c 0
 324.667 891 328.667 878 328.667 863 c 0
 328.667 847 323.667 833 315.667 822 c 0
 306.667 811 296.667 806 283.667 806 c 0
 270.667 806 259.667 811 251.667 822 c 0
 242.667 833 237.667 847 237.667 863 c 0
 237.667 878 242.667 891 251.667 903 c 0
 260.667 914 270.667 920 283.667 920 c 0
435.667 920 m 0
 448.667 920 458.667 914 467.667 903 c 0
 476.667 891 480.667 878 480.667 863 c 0
 480.667 847 476.667 833 467.667 822 c 0
 459.667 811 448.667 806 435.667 806 c 0
 422.667 806 411.667 811 402.667 822 c 0
 394.667 833 389.667 847 389.667 863 c 0
 389.667 878 394.667 891 403.667 903 c 0
 412.667 914 423.667 920 435.667 920 c 0
EndSplineSet
EndChar

StartChar: Oslash
Encoding: 216 216 147
Width: 600
GlyphClass: 2
Flags: HMW
HStem: -14 52<242.334 277.334 242.334 285.334> 690 52<230.334 266.334>
VStem: 47.3337 65<344 418 344 420> 395.334 65<310 383>
LayerCount: 2
Fore
SplineSet
360.333 605 m 1
 348.333 634 333.333 655 315.333 669 c 0
 297.333 683 278.333 690 254.333 690 c 0
 207.333 690 172.333 663 148.333 608 c 0
 124.333 553 112.333 472 112.333 364 c 0
 112.333 325 114.333 290 117.333 259 c 0
 120.333 227 125.333 198 131.333 172 c 1
 360.333 605 l 1
146.333 125 m 1
 158.333 96 173.333 74 191.333 60 c 0
 209.333 45 230.333 38 254.333 38 c 0
 301.333 38 335.333 66 359.333 120 c 0
 383.333 175 395.333 256 395.333 364 c 0
 395.333 402 393.333 437 390.333 469 c 0
 386.333 501 382.333 530 376.333 557 c 1
 146.333 125 l 1
411.333 623 m 1
 428.333 588 440.333 549 448.333 506 c 0
 456.333 463 460.333 416 460.333 364 c 0
 460.333 251 442.333 160 403.333 91 c 1
 365.333 21 316.333 -14 254.333 -14 c 0
 227.333 -14 202.333 -7 179.333 7 c 0
 156.333 21 136.333 42 117.333 70 c 1
 65.333 -28 l 1
 43.333 6 l 1
 96.333 107 l 1
 80.333 141 67.333 179 59.333 222 c 0
 51.333 264 47.333 312 47.333 364 c 0
 47.333 476 66.333 568 104.333 637 c 0
 143.333 707 193.333 742 254.333 742 c 0
 281.333 742 305.333 735 328.333 721 c 0
 351.333 708 372.333 687 390.333 660 c 1
 440.333 757 l 1
 463.333 722 l 1
 411.333 623 l 1
EndSplineSet
EndChar

StartChar: Ugrave
Encoding: 217 217 148
Width: 600
GlyphClass: 2
Flags: HMW
HStem: -14 64<232.334 324.334 232.334 331.334> 677 52<27.3337 78.3337 27.3337 207.334 157.334 157.334 157.334 207.334 346.334 396.334 444.334 444.334 444.334 495.334>
VStem: 78.3337 79<290 300 300 677> 396.334 48
LayerCount: 2
Fore
SplineSet
78.333 677 m 1
 27.333 677 l 1
 27.333 729 l 1
 207.333 729 l 1
 207.333 677 l 1
 157.333 677 l 1
 157.333 300 l 2
 157.333 119 187.333 50 277.333 50 c 0
 372.333 50 396.333 134 396.333 300 c 2
 396.333 677 l 1
 346.333 677 l 1
 346.333 729 l 1
 495.333 729 l 1
 495.333 677 l 1
 444.333 677 l 1
 444.333 290 l 2
 444.333 80 399.333 -14 262.333 -14 c 0
 125.333 -14 78.333 80 78.333 290 c 2
 78.333 677 l 1
301.333 927 m 1
 373.333 798 l 1
 327.333 798 l 1
 225.333 927 l 1
 301.333 927 l 1
EndSplineSet
EndChar

StartChar: Uacute
Encoding: 218 218 149
Width: 600
GlyphClass: 2
Flags: HMW
HStem: -14 64<232.334 324.334 232.334 331.334> 677 52<27.3337 78.3337 27.3337 207.334 157.334 157.334 157.334 207.334 346.334 396.334 444.334 444.334 444.334 495.334>
VStem: 78.3337 79<290 300 300 677> 396.334 48
LayerCount: 2
Fore
SplineSet
78.333 677 m 1
 27.333 677 l 1
 27.333 729 l 1
 207.333 729 l 1
 207.333 677 l 1
 157.333 677 l 1
 157.333 300 l 2
 157.333 119 187.333 50 277.333 50 c 0
 372.333 50 396.333 134 396.333 300 c 2
 396.333 677 l 1
 346.333 677 l 1
 346.333 729 l 1
 495.333 729 l 1
 495.333 677 l 1
 444.333 677 l 1
 444.333 290 l 2
 444.333 80 399.333 -14 262.333 -14 c 0
 125.333 -14 78.333 80 78.333 290 c 2
 78.333 677 l 1
296.333 927 m 1
 373.333 927 l 1
 270.333 798 l 1
 225.333 798 l 1
 296.333 927 l 1
EndSplineSet
EndChar

StartChar: Ucircumflex
Encoding: 219 219 150
Width: 600
GlyphClass: 2
Flags: HMW
HStem: -14 64<232.334 324.334 232.334 331.334> 677 52<27.3337 78.3337 27.3337 207.334 157.334 157.334 157.334 207.334 346.334 396.334 444.334 444.334 444.334 495.334>
VStem: 78.3337 79<290 300 300 677> 396.334 48
LayerCount: 2
Fore
SplineSet
78.333 677 m 1
 27.333 677 l 1
 27.333 729 l 1
 207.333 729 l 1
 207.333 677 l 1
 157.333 677 l 1
 157.333 300 l 2
 157.333 119 187.333 50 277.333 50 c 0
 372.333 50 396.333 134 396.333 300 c 2
 396.333 677 l 1
 346.333 677 l 1
 346.333 729 l 1
 495.333 729 l 1
 495.333 677 l 1
 444.333 677 l 1
 444.333 290 l 2
 444.333 80 399.333 -14 262.333 -14 c 0
 125.333 -14 78.333 80 78.333 290 c 2
 78.333 677 l 1
264.333 927 m 1
 333.333 927 l 1
 423.333 798 l 1
 378.333 798 l 1
 299.333 877 l 1
 219.333 798 l 1
 174.333 798 l 1
 264.333 927 l 1
EndSplineSet
EndChar

StartChar: Udieresis
Encoding: 220 220 151
Width: 600
GlyphClass: 2
Flags: HMW
HStem: -14 64<232.334 324.334 232.334 331.334> 677 52<27.3337 78.3337 27.3337 207.334 157.334 157.334 157.334 207.334 346.334 396.334 444.334 444.334 444.334 495.334> 806 114<216.334 229.334 216.334 229.334 369.334 381.334>
VStem: 78.3337 79<290 300 300 677> 396.334 48
LayerCount: 2
Fore
SplineSet
78.333 677 m 1
 27.333 677 l 1
 27.333 729 l 1
 207.333 729 l 1
 207.333 677 l 1
 157.333 677 l 1
 157.333 300 l 2
 157.333 119 187.333 50 277.333 50 c 0
 372.333 50 396.333 134 396.333 300 c 2
 396.333 677 l 1
 346.333 677 l 1
 346.333 729 l 1
 495.333 729 l 1
 495.333 677 l 1
 444.333 677 l 1
 444.333 290 l 2
 444.333 80 399.333 -14 262.333 -14 c 0
 125.333 -14 78.333 80 78.333 290 c 2
 78.333 677 l 1
223.333 920 m 0
 235.333 920 246.333 914 255.333 903 c 0
 264.333 891 268.333 878 268.333 863 c 0
 268.333 847 263.333 833 255.333 822 c 0
 246.333 811 236.333 806 223.333 806 c 0
 210.333 806 199.333 811 191.333 822 c 0
 182.333 833 177.333 847 177.333 863 c 0
 177.333 878 182.333 891 191.333 903 c 0
 200.333 914 210.333 920 223.333 920 c 0
375.333 920 m 0
 388.333 920 398.333 914 407.333 903 c 0
 416.333 891 420.333 878 420.333 863 c 0
 420.333 847 416.333 833 407.333 822 c 0
 399.333 811 388.333 806 375.333 806 c 0
 362.333 806 351.333 811 342.333 822 c 0
 334.333 833 329.333 847 329.333 863 c 0
 329.333 878 334.333 891 343.333 903 c 0
 352.333 914 363.333 920 375.333 920 c 0
EndSplineSet
EndChar

StartChar: Yacute
Encoding: 221 221 152
Width: 600
GlyphClass: 2
Flags: HMW
HStem: 0 52<168.666 219.666 168.666 219.666 298.666 348.666> 677 52<32.6663 63.6663 32.6663 201.666 157.666 157.666 157.666 201.666 362.666 404.666 452.666 452.666 452.666 484.666>
VStem: 219.666 79<52 314 314 314>
LayerCount: 2
Fore
SplineSet
168.667 0 m 1
 168.667 52 l 1
 219.667 52 l 1
 219.667 314 l 1
 63.667 677 l 1
 32.667 677 l 1
 32.667 729 l 1
 201.667 729 l 1
 201.667 677 l 1
 157.667 677 l 1
 279.667 382 l 1
 404.667 677 l 1
 362.667 677 l 1
 362.667 729 l 1
 484.667 729 l 1
 484.667 677 l 1
 452.667 677 l 1
 298.667 323 l 1
 298.667 52 l 1
 348.667 52 l 1
 348.667 0 l 1
 168.667 0 l 1
320.667 927 m 1
 397.667 927 l 1
 294.667 798 l 1
 249.667 798 l 1
 320.667 927 l 1
EndSplineSet
EndChar

StartChar: Thorn
Encoding: 222 222 153
Width: 600
GlyphClass: 2
Flags: HMW
HStem: 0 52<45.3337 111.334 45.3337 111.334 182.334 262.334> 159 53<182.334 273.334 273.334 290.334 182.334 290.334 182.334 273.334> 518 52<182.334 273.334 182.334 290.334> 677 52<45.3337 111.334 45.3337 262.334 182.334 182.334 182.334 262.334>
VStem: 111.334 70<52 159 52 212 212 518 570 677> 379.334 80<340 390>
LayerCount: 2
Fore
SplineSet
182.333 212 m 1
 273.333 212 l 2
 307.333 212 333.333 225 352.333 251 c 0
 370.333 277 379.333 315 379.333 365 c 0
 379.333 415 370.333 453 352.333 479 c 0
 333.333 505 307.333 518 273.333 518 c 2
 182.333 518 l 1
 182.333 212 l 1
45.333 0 m 1
 45.333 52 l 1
 111.333 52 l 1
 111.333 677 l 1
 45.333 677 l 1
 45.333 729 l 1
 262.333 729 l 1
 262.333 677 l 1
 182.333 677 l 1
 182.333 570 l 1
 290.333 570 l 2
 342.333 570 384.333 551 414.333 514 c 0
 445.333 477 459.333 428 459.333 365 c 0
 459.333 302 445.333 252 414.333 215 c 0
 383.333 178 341.333 159 290.333 159 c 2
 182.333 159 l 1
 182.333 52 l 1
 262.333 52 l 1
 262.333 0 l 1
 45.333 0 l 1
EndSplineSet
EndChar

StartChar: germandbls
Encoding: 223 223 154
Width: 600
GlyphClass: 2
Flags: HMW
HStem: -14 48<312.666 333.666 308.666 344.666> 712 48<240.666 270.666>
VStem: 102.666 65<52 579 579 581 0 608> 205.666 38<21 135 135 135> 236.666 60<448 459> 403.666 65<132 158>
LayerCount: 2
Fore
SplineSet
349.667 591 m 1xec
 347.667 630 339.667 659 322.667 680 c 0
 306.667 701 284.667 712 256.667 712 c 0
 225.667 712 202.667 701 188.667 680 c 0
 174.667 659 167.667 626 167.667 581 c 2
 167.667 0 l 1
 40.667 0 l 1
 40.667 52 l 1
 102.667 52 l 1
 102.667 579 l 2
 102.667 636 115.667 681 142.667 712 c 0
 169.667 744 207.667 760 256.667 760 c 0
 306.667 760 343.667 743 370.667 709 c 0
 396.667 675 410.667 624 413.667 555 c 1
 406.667 555 l 2
 372.667 555 345.667 546 326.667 529 c 0
 306.667 511 296.667 487 296.667 457 c 0xec
 296.667 440 299.667 425 305.667 413 c 0
 311.667 400 324.667 386 341.667 371 c 2
 372.667 344 l 2
 409.667 312 433.667 282 447.667 254 c 0
 461.667 227 468.667 194 468.667 157 c 0
 468.667 107 455.667 66 428.667 34 c 0
 401.667 2 365.667 -14 322.667 -14 c 0
 302.667 -14 282.667 -11 262.667 -5 c 0
 243.667 1 224.667 10 205.667 21 c 1
 205.667 135 l 1
 244.667 135 l 1xf4
 245.667 102 251.667 77 264.667 60 c 0
 277.667 43 296.667 34 320.667 34 c 0
 346.667 34 367.667 44 381.667 64 c 1
 396.667 83 403.667 110 403.667 144 c 0
 403.667 171 399.667 195 390.667 214 c 0
 381.667 233 361.667 254 334.667 278 c 2
 304.667 304 l 2
 280.667 325 262.667 346 251.667 367 c 0
 241.667 388 236.667 412 236.667 439 c 0
 236.667 479 247.667 512 266.667 539 c 1
 286.667 565 313.667 583 349.667 591 c 1xec
EndSplineSet
EndChar

StartChar: agrave
Encoding: 224 224 155
Width: 600
GlyphClass: 2
Flags: HMW
HStem: -14 52<215 216> 0 52<402 446 402 446> 273 52<229 237 237 330> 485 48<214 238>
VStem: 51.9997 80<138 176 138 182> 330 72<52 56 56 56 163 273 273 273 52 361 52 380>
LayerCount: 2
Fore
SplineSet
330 163 m 2xbc
 330 273 l 1
 237 273 l 2
 202 273 175 263 158 244 c 0
 140 225 132 195 132 156 c 0
 132 120 140 91 158 70 c 0
 176 49 200 38 230 38 c 0
 260 38 285 50 303 73 c 0
 321 96 330 126 330 163 c 2xbc
402 324 m 2
 402 52 l 1
 446 52 l 1
 446 0 l 1
 330 0 l 1x7c
 330 56 l 1
 314 32 296 14 275 3 c 0
 254 -8 230 -14 202 -14 c 0
 156 -14 119 1 93 32 c 1
 66 62 52 104 52 156 c 0
 52 209 67 251 98 281 c 0
 129 310 172 325 229 325 c 2
 330 325 l 1
 330 361 l 2
 330 400 320 431 301 452 c 0
 282 474 256 485 221 485 c 0
 192 485 170 477 153 460 c 0
 136 444 125 420 121 388 c 1
 84 388 l 1
 84 493 l 1
 109 507 133 517 157 523 c 1
 180 530 203 533 225 533 c 0
 283 533 327 515 357 480 c 0
 387 444 402 392 402 324 c 2
253 799 m 1x00
 354 615 l 1
 309 615 l 1
 176 799 l 1
 253 799 l 1x00
EndSplineSet
EndChar

StartChar: aacute
Encoding: 225 225 156
Width: 600
GlyphClass: 2
Flags: HMW
HStem: -14 52<215 216> 0 52<402 446 402 446> 273 52<229 237 237 330> 485 48<214 238>
VStem: 51.9997 80<138 176 138 182> 330 72<52 56 56 56 163 273 273 273 52 361 52 380>
LayerCount: 2
Fore
SplineSet
330 163 m 2xbc
 330 273 l 1
 237 273 l 2
 202 273 175 263 158 244 c 0
 140 225 132 195 132 156 c 0
 132 120 140 91 158 70 c 0
 176 49 200 38 230 38 c 0
 260 38 285 50 303 73 c 0
 321 96 330 126 330 163 c 2xbc
402 324 m 2
 402 52 l 1
 446 52 l 1
 446 0 l 1
 330 0 l 1x7c
 330 56 l 1
 314 32 296 14 275 3 c 0
 254 -8 230 -14 202 -14 c 0
 156 -14 119 1 93 32 c 1
 66 62 52 104 52 156 c 0
 52 209 67 251 98 281 c 0
 129 310 172 325 229 325 c 2
 330 325 l 1
 330 361 l 2
 330 400 320 431 301 452 c 0
 282 474 256 485 221 485 c 0
 192 485 170 477 153 460 c 0
 136 444 125 420 121 388 c 1
 84 388 l 1
 84 493 l 1
 109 507 133 517 157 523 c 1
 180 530 203 533 225 533 c 0
 283 533 327 515 357 480 c 0
 387 444 402 392 402 324 c 2
277 800 m 1x00
 354 800 l 1
 221 616 l 1
 176 616 l 1
 277 800 l 1x00
EndSplineSet
EndChar

StartChar: acircumflex
Encoding: 226 226 157
Width: 600
GlyphClass: 2
Flags: HMW
HStem: -14 52<215 216> 0 52<402 446 402 446> 273 52<229 237 237 330> 485 48<214 238>
VStem: 51.9997 80<138 176 138 182> 330 72<52 56 56 56 163 273 273 273 52 361 52 380>
LayerCount: 2
Fore
SplineSet
330 163 m 2xbc
 330 273 l 1
 237 273 l 2
 202 273 175 263 158 244 c 0
 140 225 132 195 132 156 c 0
 132 120 140 91 158 70 c 0
 176 49 200 38 230 38 c 0
 260 38 285 50 303 73 c 0
 321 96 330 126 330 163 c 2xbc
402 324 m 2
 402 52 l 1
 446 52 l 1
 446 0 l 1
 330 0 l 1x7c
 330 56 l 1
 314 32 296 14 275 3 c 0
 254 -8 230 -14 202 -14 c 0
 156 -14 119 1 93 32 c 1
 66 62 52 104 52 156 c 0
 52 209 67 251 98 281 c 0
 129 310 172 325 229 325 c 2
 330 325 l 1
 330 361 l 2
 330 400 320 431 301 452 c 0
 282 474 256 485 221 485 c 0
 192 485 170 477 153 460 c 0
 136 444 125 420 121 388 c 1
 84 388 l 1
 84 493 l 1
 109 507 133 517 157 523 c 1
 180 530 203 533 225 533 c 0
 283 533 327 515 357 480 c 0
 387 444 402 392 402 324 c 2
232 800 m 1x00
 298 800 l 1
 390 616 l 1
 344 616 l 1
 265 743 l 1
 186 616 l 1
 140 616 l 1
 232 800 l 1x00
EndSplineSet
EndChar

StartChar: atilde
Encoding: 227 227 158
Width: 600
GlyphClass: 2
Flags: HMW
HStem: -14 52<215 216> 0 52<402 446 402 446> 273 52<229 237 237 330> 485 48<214 238> 639 62<317 325 317 330> 715 62<205 213>
VStem: 51.9997 80<138 176 138 182> 136 38<639 639> 330 72<52 56 56 56 163 273 273 273 52 361 52 380> 356 38<777 777>
LayerCount: 2
Fore
SplineSet
330 163 m 2xb280
 330 273 l 1
 237 273 l 2
 202 273 175 263 158 244 c 0
 140 225 132 195 132 156 c 0
 132 120 140 91 158 70 c 0
 176 49 200 38 230 38 c 0
 260 38 285 50 303 73 c 0
 321 96 330 126 330 163 c 2xb280
402 324 m 2
 402 52 l 1
 446 52 l 1
 446 0 l 1
 330 0 l 1x7c
 330 56 l 1
 314 32 296 14 275 3 c 0
 254 -8 230 -14 202 -14 c 0
 156 -14 119 1 93 32 c 1
 66 62 52 104 52 156 c 0
 52 209 67 251 98 281 c 0
 129 310 172 325 229 325 c 2
 330 325 l 1
 330 361 l 2
 330 400 320 431 301 452 c 0
 282 474 256 485 221 485 c 0
 192 485 170 477 153 460 c 0
 136 444 125 420 121 388 c 1
 84 388 l 1
 84 493 l 1
 109 507 133 517 157 523 c 1
 180 530 203 533 225 533 c 0
 283 533 327 515 357 480 c 0
 387 444 402 392 402 324 c 2
263 669 m 2x0d40
 241 696 l 2
 235 704 229 709 224 711 c 1
 220 714 216 715 211 715 c 0
 200 715 191 708 185 696 c 0
 179 683 175 664 174 639 c 1
 136 639 l 1
 137 683 143 717 157 741 c 0
 170 765 188 777 212 777 c 0
 222 777 231 775 239 770 c 0
 248 765 257 758 267 747 c 2
 289 720 l 2
 295 713 300 708 304 705 c 0
 309 702 313 701 319 701 c 0
 330 701 340 708 346 721 c 0
 352 734 355 752 356 777 c 1
 394 777 l 1
 393 733 387 699 373 675 c 0
 360 651 342 639 318 639 c 0
 308 639 299 641 291 646 c 0
 282 651 273 658 263 669 c 2x0d40
EndSplineSet
EndChar

StartChar: adieresis
Encoding: 228 228 159
Width: 600
GlyphClass: 2
Flags: HMW
HStem: -14 52<215 216> 0 52<402 446 402 446> 273 52<229 237 237 330> 485 48<214 238> 652 114<183 195 183 195 335 347>
VStem: 51.9997 80<138 176 138 182> 330 72<52 56 56 56 163 273 273 273 52 361 52 380>
LayerCount: 2
Fore
SplineSet
330 163 m 2xb6
 330 273 l 1
 237 273 l 2
 202 273 175 263 158 244 c 0
 140 225 132 195 132 156 c 0
 132 120 140 91 158 70 c 0
 176 49 200 38 230 38 c 0
 260 38 285 50 303 73 c 0
 321 96 330 126 330 163 c 2xb6
402 324 m 2
 402 52 l 1
 446 52 l 1
 446 0 l 1
 330 0 l 1x7c
 330 56 l 1
 314 32 296 14 275 3 c 0
 254 -8 230 -14 202 -14 c 0
 156 -14 119 1 93 32 c 1
 66 62 52 104 52 156 c 0
 52 209 67 251 98 281 c 0
 129 310 172 325 229 325 c 2
 330 325 l 1
 330 361 l 2
 330 400 320 431 301 452 c 0
 282 474 256 485 221 485 c 0
 192 485 170 477 153 460 c 0
 136 444 125 420 121 388 c 1
 84 388 l 1
 84 493 l 1
 109 507 133 517 157 523 c 1
 180 530 203 533 225 533 c 0
 283 533 327 515 357 480 c 0
 387 444 402 392 402 324 c 2
189 766 m 0x08
 201 766 212 760 221 749 c 0
 230 738 235 725 235 709 c 0
 235 692 231 679 222 668 c 0
 213 657 202 652 189 652 c 0
 176 652 165 657 156 668 c 0
 148 679 143 692 143 709 c 0
 143 725 148 738 157 749 c 0
 166 760 176 766 189 766 c 0x08
341 766 m 0
 354 766 364 760 373 749 c 0
 382 738 387 725 387 709 c 0
 387 692 382 679 374 668 c 0
 365 657 354 652 341 652 c 0
 328 652 317 657 308 668 c 0
 299 679 295 692 295 709 c 0
 295 725 300 738 309 749 c 0
 318 760 329 766 341 766 c 0
EndSplineSet
EndChar

StartChar: aring
Encoding: 229 229 160
Width: 600
GlyphClass: 2
Flags: HMW
HStem: -14 52<215 216> 0 52<402 446 402 446> 273 52<229 237 237 330> 485 48<214 238> 610 60<257 273 257 280> 818 60<257 273>
VStem: 51.9997 80<138 176 138 182> 158 48<734 754 734 763> 324 48<734 754> 330 72<52 56 56 56 163 273 273 273 52 361 52 380>
LayerCount: 2
Fore
SplineSet
330 163 m 2xb240
 330 273 l 1
 237 273 l 2
 202 273 175 263 158 244 c 0
 140 225 132 195 132 156 c 0
 132 120 140 91 158 70 c 0
 176 49 200 38 230 38 c 0
 260 38 285 50 303 73 c 0
 321 96 330 126 330 163 c 2xb240
402 324 m 2
 402 52 l 1
 446 52 l 1
 446 0 l 1
 330 0 l 1x7c
 330 56 l 1
 314 32 296 14 275 3 c 0
 254 -8 230 -14 202 -14 c 0
 156 -14 119 1 93 32 c 1
 66 62 52 104 52 156 c 0
 52 209 67 251 98 281 c 0
 129 310 172 325 229 325 c 2
 330 325 l 1
 330 361 l 2
 330 400 320 431 301 452 c 0
 282 474 256 485 221 485 c 0
 192 485 170 477 153 460 c 0
 136 444 125 420 121 388 c 1
 84 388 l 1
 84 493 l 1
 109 507 133 517 157 523 c 1
 180 530 203 533 225 533 c 0
 283 533 327 515 357 480 c 0
 387 444 402 392 402 324 c 2
372 744 m 0x0d80
 372 707 362 675 341 649 c 0
 320 623 295 610 265 610 c 0
 235 610 210 623 189 649 c 0
 168 675 158 707 158 744 c 0
 158 782 168 813 189 839 c 0
 210 865 235 878 265 878 c 0
 295 878 320 865 341 839 c 0
 362 813 372 782 372 744 c 0x0d80
324 744 m 0
 324 765 318 782 307 796 c 0
 295 811 282 818 265 818 c 0
 248 818 234 811 223 797 c 0
 212 782 206 765 206 744 c 0
 206 723 212 705 223 691 c 0
 234 677 248 670 265 670 c 0
 282 670 295 677 307 691 c 1
 318 706 324 723 324 744 c 0
EndSplineSet
EndChar

StartChar: ae
Encoding: 230 230 161
Width: 600
GlyphClass: 2
Flags: HMW
HStem: -14 48<338 362 338 363> -14 52<144 153> 250 52<272 416 272 470 272 416> 273 52<154 159 159 218> 485 48<144 161 334 355>
VStem: 40 51<138 176 138 182> 60 24<388 493> 218 54<211 246 246 250 211 273 211 273> 416 54<250 302>
LayerCount: 2
Fore
SplineSet
218 163 m 2x5d80
 218 273 l 1
 159 273 l 2
 136 273 119 263 108 244 c 0
 97 225 91 195 91 156 c 0
 91 120 97 91 108 70 c 0
 119 49 135 38 154 38 c 0
 173 38 189 50 201 73 c 0
 212 96 218 126 218 163 c 2x5d80
245 73 m 1
 231 44 216 22 199 7 c 0
 182 -7 164 -14 143 -14 c 0
 110 -14 85 1 67 30 c 0
 49 60 40 102 40 156 c 0
 40 209 50 251 70 281 c 0
 90 310 118 325 154 325 c 2
 218 325 l 1x5d80
 218 361 l 2
 218 400 212 430 200 452 c 0
 188 474 172 485 150 485 c 0
 131 485 115 477 104 461 c 0
 93 445 87 420 84 388 c 1
 60 388 l 1
 60 493 l 1
 76 507 92 517 107 523 c 1
 122 530 137 533 151 533 c 0
 175 533 194 526 210 512 c 0
 226 498 239 476 248 447 c 1
 260 475 275 497 291 511 c 0
 307 526 325 533 344 533 c 0
 384 533 415 509 437 460 c 0
 459 412 469 342 470 250 c 1
 272 250 l 1
 272 246 l 2
 272 176 279 123 292 88 c 0
 305 52 325 34 352 34 c 0
 372 34 388 45 401 65 c 0
 414 86 424 117 429 157 c 1
 465 157 l 1
 458 100 444 57 425 29 c 0
 405 0 379 -14 347 -14 c 0xab80
 327 -14 308 -7 291 8 c 0
 274 23 258 45 245 73 c 1
416 302 m 1x2980
 415 362 408 408 396 439 c 1
 384 469 367 485 344 485 c 0
 323 485 306 469 294 438 c 0
 282 408 275 362 272 302 c 1
 416 302 l 1x2980
EndSplineSet
EndChar

StartChar: ccedilla
Encoding: 231 231 162
Width: 600
GlyphClass: 2
Flags: HMW
HStem: -193 59<282.334 287.334 275.334 302.334> -20 20<293.334 331.334 331.334 331.334> -14 48<241.334 276.334 241.334 283.334> 485 48<241.334 273.334 230.334 278.334>
VStem: 59.3337 84<222 298 222 302> 327.334 53<-123 -82>
LayerCount: 2
Fore
SplineSet
431.333 156 m 1x38
 421.333 100 401.333 58 372.333 29 c 0
 343.333 0 306.333 -14 260.333 -14 c 0
 199.333 -14 152.333 11 115.333 61 c 0
 78.333 111 59.333 177 59.333 260 c 0
 59.333 343 78.333 409 115.333 459 c 0
 152.333 508 199.333 533 260.333 533 c 0
 286.333 533 313.333 529 339.333 522 c 1
 365.333 514 391.333 502 417.333 487 c 1
 417.333 354 l 1
 375.333 354 l 1
 369.333 400 357.333 433 339.333 454 c 0
 321.333 474 295.333 485 261.333 485 c 0
 222.333 485 193.333 466 173.333 428 c 0
 153.333 391 143.333 335 143.333 260 c 0
 143.333 185 153.333 129 173.333 91 c 0
 192.333 53 222.333 34 261.333 34 c 0
 291.333 34 316.333 44 335.333 64 c 1
 353.333 85 366.333 115 373.333 156 c 1
 431.333 156 l 1x38
331.333 0 m 1xc4
 348.333 -21 360.333 -40 368.333 -59 c 0
 376.333 -77 380.333 -94 380.333 -110 c 0
 380.333 -136 372.333 -157 355.333 -171 c 1
 339.333 -186 316.333 -193 287.333 -193 c 0
 276.333 -193 265.333 -192 254.333 -190 c 0
 243.333 -188 231.333 -185 219.333 -181 c 1
 219.333 -117 l 1
 229.333 -123 240.333 -127 250.333 -130 c 1
 260.333 -132 269.333 -134 279.333 -134 c 0
 293.333 -134 306.333 -129 315.333 -121 c 1
 323.333 -112 327.333 -101 327.333 -86 c 0
 327.333 -77 325.333 -65 319.333 -51 c 0
 313.333 -36 304.333 -20 293.333 0 c 1
 331.333 0 l 1xc4
EndSplineSet
EndChar

StartChar: egrave
Encoding: 232 232 163
Width: 600
GlyphClass: 2
Flags: HMW
HStem: -14 48<241 277 241 279> 250 52<136 361 136 446 136 361> 485 48<233 267>
VStem: 52 84<218 246 246 250 211 301>
LayerCount: 2
Fore
SplineSet
446 250 m 1
 136 250 l 1
 136 246 l 2
 136 176 146 123 167 88 c 0
 189 52 220 34 261 34 c 0
 292 34 319 45 339 65 c 0
 359 86 373 117 381 157 c 1
 439 157 l 1
 428 100 405 57 375 29 c 0
 344 0 304 -14 254 -14 c 0
 193 -14 144 11 107 61 c 0
 70 111 52 177 52 260 c 0
 52 342 70 408 107 458 c 0
 143 508 190 533 249 533 c 0
 311 533 360 509 394 461 c 0
 428 412 444 342 446 250 c 1
361 302 m 1
 359 362 349 408 331 439 c 1
 312 469 284 485 249 485 c 0
 216 485 190 469 171 438 c 0
 152 408 140 362 136 302 c 1
 361 302 l 1
277 799 m 1
 379 615 l 1
 333 615 l 1
 201 799 l 1
 277 799 l 1
EndSplineSet
EndChar

StartChar: eacute
Encoding: 233 233 164
Width: 600
GlyphClass: 2
Flags: HMW
HStem: -14 48<241 277 241 279> 250 52<136 361 136 446 136 361> 485 48<233 267>
VStem: 52 84<218 246 246 250 211 301>
LayerCount: 2
Fore
SplineSet
446 250 m 1
 136 250 l 1
 136 246 l 2
 136 176 146 123 167 88 c 0
 189 52 220 34 261 34 c 0
 292 34 319 45 339 65 c 0
 359 86 373 117 381 157 c 1
 439 157 l 1
 428 100 405 57 375 29 c 0
 344 0 304 -14 254 -14 c 0
 193 -14 144 11 107 61 c 0
 70 111 52 177 52 260 c 0
 52 342 70 408 107 458 c 0
 143 508 190 533 249 533 c 0
 311 533 360 509 394 461 c 0
 428 412 444 342 446 250 c 1
361 302 m 1
 359 362 349 408 331 439 c 1
 312 469 284 485 249 485 c 0
 216 485 190 469 171 438 c 0
 152 408 140 362 136 302 c 1
 361 302 l 1
301 800 m 1
 379 800 l 1
 246 616 l 1
 201 616 l 1
 301 800 l 1
EndSplineSet
EndChar

StartChar: ecircumflex
Encoding: 234 234 165
Width: 600
GlyphClass: 2
Flags: HMW
HStem: -14 48<241 277 241 279> 250 52<136 361 136 446 136 361> 485 48<233 267>
VStem: 52 84<218 246 246 250 211 301>
LayerCount: 2
Fore
SplineSet
446 250 m 1
 136 250 l 1
 136 246 l 2
 136 176 146 123 167 88 c 0
 189 52 220 34 261 34 c 0
 292 34 319 45 339 65 c 0
 359 86 373 117 381 157 c 1
 439 157 l 1
 428 100 405 57 375 29 c 0
 344 0 304 -14 254 -14 c 0
 193 -14 144 11 107 61 c 0
 70 111 52 177 52 260 c 0
 52 342 70 408 107 458 c 0
 143 508 190 533 249 533 c 0
 311 533 360 509 394 461 c 0
 428 412 444 342 446 250 c 1
361 302 m 1
 359 362 349 408 331 439 c 1
 312 469 284 485 249 485 c 0
 216 485 190 469 171 438 c 0
 152 408 140 362 136 302 c 1
 361 302 l 1
257 800 m 1
 323 800 l 1
 415 616 l 1
 369 616 l 1
 290 743 l 1
 211 616 l 1
 165 616 l 1
 257 800 l 1
EndSplineSet
EndChar

StartChar: edieresis
Encoding: 235 235 166
Width: 600
GlyphClass: 2
Flags: HMW
HStem: -14 48<241 277 241 279> 250 52<136 361 136 446 136 361> 485 48<233 267> 652 114<207 220 207 220 360 372>
VStem: 52 84<218 246 246 250 211 301>
LayerCount: 2
Fore
SplineSet
446 250 m 1
 136 250 l 1
 136 246 l 2
 136 176 146 123 167 88 c 0
 189 52 220 34 261 34 c 0
 292 34 319 45 339 65 c 0
 359 86 373 117 381 157 c 1
 439 157 l 1
 428 100 405 57 375 29 c 0
 344 0 304 -14 254 -14 c 0
 193 -14 144 11 107 61 c 0
 70 111 52 177 52 260 c 0
 52 342 70 408 107 458 c 0
 143 508 190 533 249 533 c 0
 311 533 360 509 394 461 c 0
 428 412 444 342 446 250 c 1
361 302 m 1
 359 362 349 408 331 439 c 1
 312 469 284 485 249 485 c 0
 216 485 190 469 171 438 c 0
 152 408 140 362 136 302 c 1
 361 302 l 1
214 766 m 0
 226 766 237 760 246 749 c 0
 255 738 259 725 259 709 c 0
 259 692 256 679 247 668 c 0
 238 657 227 652 214 652 c 0
 201 652 190 657 181 668 c 0
 173 679 168 692 168 709 c 0
 168 725 173 738 182 749 c 0
 191 760 201 766 214 766 c 0
366 766 m 0
 379 766 389 760 398 749 c 0
 407 738 411 725 411 709 c 0
 411 692 407 679 399 668 c 0
 390 657 379 652 366 652 c 0
 353 652 342 657 333 668 c 0
 324 679 320 692 320 709 c 0
 320 725 325 738 334 749 c 0
 343 760 354 766 366 766 c 0
EndSplineSet
EndChar

StartChar: igrave
Encoding: 236 236 167
Width: 600
GlyphClass: 2
Flags: HMW
HStem: 0 52<107 176 248 316 107 176> 467 52<107 176 107 248>
VStem: 176 72<52 467 467 467>
LayerCount: 2
Fore
SplineSet
248 52 m 1
 316 52 l 1
 316 0 l 1
 107 0 l 1
 107 52 l 1
 176 52 l 1
 176 467 l 1
 107 467 l 1
 107 519 l 1
 248 519 l 1
 248 52 l 1
234 799 m 1
 336 615 l 1
 290 615 l 1
 158 799 l 1
 234 799 l 1
EndSplineSet
EndChar

StartChar: iacute
Encoding: 237 237 168
Width: 600
GlyphClass: 2
Flags: HMW
HStem: 0 52<107 176 248 316 107 176> 467 52<107 176 107 248>
VStem: 176 72<52 467 467 467>
LayerCount: 2
Fore
SplineSet
248 52 m 1
 316 52 l 1
 316 0 l 1
 107 0 l 1
 107 52 l 1
 176 52 l 1
 176 467 l 1
 107 467 l 1
 107 519 l 1
 248 519 l 1
 248 52 l 1
258 800 m 1
 336 800 l 1
 203 616 l 1
 158 616 l 1
 258 800 l 1
EndSplineSet
EndChar

StartChar: icircumflex
Encoding: 238 238 169
Width: 600
GlyphClass: 2
Flags: HMW
HStem: 0 52<95.3337 163.334 235.334 303.334 95.3337 163.334> 467 52<95.3337 163.334 95.3337 235.334>
VStem: 163.334 72<52 467 467 467>
LayerCount: 2
Fore
SplineSet
235.333 52 m 1
 303.333 52 l 1
 303.333 0 l 1
 95.333 0 l 1
 95.333 52 l 1
 163.333 52 l 1
 163.333 467 l 1
 95.333 467 l 1
 95.333 519 l 1
 235.333 519 l 1
 235.333 52 l 1
202.333 800 m 1
 267.333 800 l 1
 359.333 616 l 1
 314.333 616 l 1
 235.333 743 l 1
 155.333 616 l 1
 110.333 616 l 1
 202.333 800 l 1
EndSplineSet
EndChar

StartChar: idieresis
Encoding: 239 239 170
Width: 600
GlyphClass: 2
Flags: HMW
HStem: 0 52<96.3337 165.334 237.334 305.334 96.3337 165.334> 467 52<96.3337 165.334 96.3337 237.334> 652 114<153.334 166.334 153.334 166.334 306.334 318.334>
VStem: 165.334 72<52 467 467 467>
LayerCount: 2
Fore
SplineSet
237.333 52 m 1
 305.333 52 l 1
 305.333 0 l 1
 96.333 0 l 1
 96.333 52 l 1
 165.333 52 l 1
 165.333 467 l 1
 96.333 467 l 1
 96.333 519 l 1
 237.333 519 l 1
 237.333 52 l 1
160.333 766 m 0
 172.333 766 183.333 760 192.333 749 c 0
 201.333 738 205.333 725 205.333 709 c 0
 205.333 692 202.333 679 193.333 668 c 0
 184.333 657 173.333 652 160.333 652 c 0
 147.333 652 136.333 657 127.333 668 c 0
 119.333 679 114.333 692 114.333 709 c 0
 114.333 725 119.333 738 128.333 749 c 0
 137.333 760 147.333 766 160.333 766 c 0
312.333 766 m 0
 325.333 766 335.333 760 344.333 749 c 0
 353.333 738 357.333 725 357.333 709 c 0
 357.333 692 353.333 679 345.333 668 c 0
 336.333 657 325.333 652 312.333 652 c 0
 299.333 652 288.333 657 279.333 668 c 0
 270.333 679 266.333 692 266.333 709 c 0
 266.333 725 271.333 738 280.333 749 c 0
 289.333 760 300.333 766 312.333 766 c 0
EndSplineSet
EndChar

StartChar: eth
Encoding: 240 240 171
Width: 600
GlyphClass: 2
Flags: HMW
HStem: -14 48<232.334 269.334 232.334 280.334> 462 48<243.334 253.334 219.334 270.334>
VStem: 49.3337 84<214 284 214 292> 367.334 84<218 268>
LayerCount: 2
Fore
SplineSet
330.333 453 m 1
 318.333 456 306.333 458 296.333 460 c 0
 286.333 461 275.333 462 265.333 462 c 0
 220.333 462 187.333 444 165.333 410 c 0
 143.333 375 133.333 321 133.333 248 c 0
 133.333 180 144.333 127 164.333 90 c 0
 185.333 53 213.333 34 250.333 34 c 0
 288.333 34 316.333 53 336.333 90 c 0
 356.333 127 367.333 181 367.333 250 c 0
 367.333 286 363.333 322 357.333 356 c 1
 351.333 391 342.333 423 330.333 453 c 1
306.333 638 m 1
 354.333 584 390.333 525 414.333 461 c 1
 439.333 398 451.333 330 451.333 260 c 0
 451.333 177 433.333 111 396.333 61 c 0
 359.333 11 311.333 -14 250.333 -14 c 0
 190.333 -14 142.333 10 104.333 60 c 0
 67.333 109 49.333 174 49.333 253 c 0
 49.333 330 67.333 392 104.333 439 c 0
 141.333 486 189.333 510 248.333 510 c 0
 257.333 510 266.333 509 276.333 508 c 0
 286.333 507 298.333 506 312.333 503 c 1
 306.333 520 298.333 538 288.333 555 c 0
 278.333 572 268.333 590 255.333 608 c 1
 129.333 535 l 1
 115.333 573 l 1
 229.333 639 l 1
 213.333 658 195.333 674 175.333 687 c 0
 154.333 700 132.333 711 107.333 718 c 1
 114.333 760 l 1
 145.333 751 174.333 739 201.333 724 c 0
 228.333 709 254.333 690 278.333 668 c 1
 404.333 741 l 1
 418.333 703 l 1
 306.333 638 l 1
EndSplineSet
EndChar

StartChar: ntilde
Encoding: 241 241 172
Width: 600
GlyphClass: 2
Flags: HMW
HStem: 0 52<46.0003 91.0003 46.0003 91.0003 163 205 308 350 422 466> 467 52<42.0003 91.0003 42.0003 163> 468 65<274 281> 639 62<377 385 377 390> 715 62<265 273>
VStem: 91.0003 72<52 289 427 467 467 467> 196 38<639 639> 350 72<52 302 302 330 52 334> 416 38<777 777>
LayerCount: 2
Fore
SplineSet
46 0 m 1xa5
 46 52 l 1
 91 52 l 1
 91 467 l 1
 42 467 l 1
 42 519 l 1
 163 519 l 1xc5
 163 427 l 1
 177 462 193 488 215 506 c 0
 236 524 260 533 288 533 c 0
 334 533 368 517 390 484 c 0
 412 451 422 400 422 330 c 2
 422 52 l 1
 466 52 l 1
 466 0 l 1
 308 0 l 1
 308 52 l 1
 350 52 l 1
 350 302 l 2
 350 365 344 409 331 432 c 1
 319 456 296 468 265 468 c 0
 231 468 206 453 189 422 c 1
 171 392 163 347 163 289 c 2
 163 52 l 1
 205 52 l 1
 205 0 l 1
 46 0 l 1xa5
324 669 m 2x1a80
 301 696 l 2
 295 704 289 709 284 711 c 1
 280 714 276 715 271 715 c 0
 260 715 251 708 245 696 c 0
 239 683 235 664 234 639 c 1
 196 639 l 1
 197 683 203 717 217 741 c 0
 230 765 248 777 272 777 c 0
 282 777 292 775 300 770 c 0
 309 765 317 758 327 747 c 2
 349 720 l 2
 355 713 360 708 364 705 c 0
 369 702 374 701 380 701 c 0
 391 701 400 708 406 721 c 0
 412 734 415 752 416 777 c 1
 454 777 l 1
 453 733 447 699 433 675 c 0
 420 651 402 639 378 639 c 0
 368 639 359 641 351 646 c 0
 342 651 334 658 324 669 c 2x1a80
EndSplineSet
EndChar

StartChar: ograve
Encoding: 242 242 173
Width: 600
GlyphClass: 2
Flags: HMW
HStem: -14 48<229 265 229 276> 485 48<229 265>
VStem: 56 80 358 80
LayerCount: 2
Fore
SplineSet
247 34 m 0
 283 34 311 53 330 91 c 0
 348 129 358 186 358 260 c 0
 358 334 348 390 330 428 c 0
 311 466 283 485 247 485 c 0
 211 485 182 466 164 428 c 0
 145 390 136 334 136 260 c 0
 136 186 145 129 164 91 c 0
 183 53 211 34 247 34 c 0
247 -14 m 0
 189 -14 144 11 109 61 c 0
 74 111 56 177 56 260 c 0
 56 342 74 409 108 458 c 0
 143 508 189 533 247 533 c 0
 305 533 350 508 385 458 c 0
 420 409 438 342 438 260 c 0
 438 177 420 111 385 61 c 0
 350 11 305 -14 247 -14 c 0
275 799 m 1
 377 615 l 1
 331 615 l 1
 199 799 l 1
 275 799 l 1
EndSplineSet
EndChar

StartChar: oacute
Encoding: 243 243 174
Width: 600
GlyphClass: 2
Flags: HMW
HStem: -14 48<229 265 229 276> 485 48<229 265>
VStem: 56 80 358 80
LayerCount: 2
Fore
SplineSet
247 34 m 0
 283 34 311 53 330 91 c 0
 348 129 358 186 358 260 c 0
 358 334 348 390 330 428 c 0
 311 466 283 485 247 485 c 0
 211 485 182 466 164 428 c 0
 145 390 136 334 136 260 c 0
 136 186 145 129 164 91 c 0
 183 53 211 34 247 34 c 0
247 -14 m 0
 189 -14 144 11 109 61 c 0
 74 111 56 177 56 260 c 0
 56 342 74 409 108 458 c 0
 143 508 189 533 247 533 c 0
 305 533 350 508 385 458 c 0
 420 409 438 342 438 260 c 0
 438 177 420 111 385 61 c 0
 350 11 305 -14 247 -14 c 0
299 800 m 1
 377 800 l 1
 244 616 l 1
 199 616 l 1
 299 800 l 1
EndSplineSet
EndChar

StartChar: ocircumflex
Encoding: 244 244 175
Width: 600
GlyphClass: 2
Flags: HMW
HStem: -14 48<229 265 229 276> 485 48<229 265>
VStem: 56 80 358 80
LayerCount: 2
Fore
SplineSet
247 34 m 0
 283 34 311 53 330 91 c 0
 348 129 358 186 358 260 c 0
 358 334 348 390 330 428 c 0
 311 466 283 485 247 485 c 0
 211 485 182 466 164 428 c 0
 145 390 136 334 136 260 c 0
 136 186 145 129 164 91 c 0
 183 53 211 34 247 34 c 0
247 -14 m 0
 189 -14 144 11 109 61 c 0
 74 111 56 177 56 260 c 0
 56 342 74 409 108 458 c 0
 143 508 189 533 247 533 c 0
 305 533 350 508 385 458 c 0
 420 409 438 342 438 260 c 0
 438 177 420 111 385 61 c 0
 350 11 305 -14 247 -14 c 0
255 800 m 1
 321 800 l 1
 413 616 l 1
 367 616 l 1
 288 743 l 1
 209 616 l 1
 163 616 l 1
 255 800 l 1
EndSplineSet
EndChar

StartChar: otilde
Encoding: 245 245 176
Width: 600
GlyphClass: 2
Flags: HMW
HStem: -14 48<229 265 229 276> 485 48<229 265> 639 62<339 348 339 353> 715 62<228 236>
VStem: 56 80 159 38 358 80 379 38
LayerCount: 2
Fore
SplineSet
247 34 m 0xca
 283 34 311 53 330 91 c 0
 348 129 358 186 358 260 c 0
 358 334 348 390 330 428 c 0
 311 466 283 485 247 485 c 0
 211 485 182 466 164 428 c 0
 145 390 136 334 136 260 c 0
 136 186 145 129 164 91 c 0
 183 53 211 34 247 34 c 0xca
247 -14 m 0
 189 -14 144 11 109 61 c 0
 74 111 56 177 56 260 c 0
 56 342 74 409 108 458 c 0
 143 508 189 533 247 533 c 0
 305 533 350 508 385 458 c 0
 420 409 438 342 438 260 c 0
 438 177 420 111 385 61 c 0
 350 11 305 -14 247 -14 c 0
286 669 m 2x35
 264 696 l 2
 258 704 252 709 247 711 c 1
 243 714 238 715 233 715 c 0
 222 715 214 708 208 696 c 0
 202 683 198 664 197 639 c 1
 159 639 l 1
 160 683 166 717 180 741 c 0
 193 765 211 777 235 777 c 0
 245 777 254 775 262 770 c 0
 271 765 279 758 289 747 c 2
 312 720 l 2
 318 713 323 708 327 705 c 0
 332 702 336 701 342 701 c 0
 353 701 363 708 369 721 c 0
 375 734 378 752 379 777 c 1
 417 777 l 1
 416 733 410 699 396 675 c 0
 383 651 365 639 341 639 c 0
 331 639 321 641 313 646 c 0
 304 651 296 658 286 669 c 2x35
EndSplineSet
EndChar

StartChar: odieresis
Encoding: 246 246 177
Width: 600
GlyphClass: 2
Flags: HMW
HStem: -14 48<229 265 229 276> 485 48<229 265> 652 114<205 218 205 218 358 370>
VStem: 56 80 358 80
LayerCount: 2
Fore
SplineSet
247 34 m 0
 283 34 311 53 330 91 c 0
 348 129 358 186 358 260 c 0
 358 334 348 390 330 428 c 0
 311 466 283 485 247 485 c 0
 211 485 182 466 164 428 c 0
 145 390 136 334 136 260 c 0
 136 186 145 129 164 91 c 0
 183 53 211 34 247 34 c 0
247 -14 m 0
 189 -14 144 11 109 61 c 0
 74 111 56 177 56 260 c 0
 56 342 74 409 108 458 c 0
 143 508 189 533 247 533 c 0
 305 533 350 508 385 458 c 0
 420 409 438 342 438 260 c 0
 438 177 420 111 385 61 c 0
 350 11 305 -14 247 -14 c 0
212 766 m 0
 224 766 235 760 244 749 c 0
 253 738 257 725 257 709 c 0
 257 692 254 679 245 668 c 0
 236 657 225 652 212 652 c 0
 199 652 188 657 179 668 c 0
 171 679 166 692 166 709 c 0
 166 725 171 738 180 749 c 0
 189 760 199 766 212 766 c 0
364 766 m 0
 377 766 387 760 396 749 c 0
 405 738 409 725 409 709 c 0
 409 692 405 679 397 668 c 0
 388 657 377 652 364 652 c 0
 351 652 340 657 331 668 c 0
 322 679 318 692 318 709 c 0
 318 725 323 738 332 749 c 0
 341 760 352 766 364 766 c 0
EndSplineSet
EndChar

StartChar: oslash
Encoding: 248 248 178
Width: 600
GlyphClass: 2
Flags: HMW
HStem: -14 48<245.334 274.334 245.334 285.334> 485 48<235.334 264.334>
VStem: 54.3337 84<248 297 248 301> 371.334 84<223 272>
LayerCount: 2
Fore
SplineSet
342.333 429 m 1
 332.333 448 319.333 462 305.333 471 c 0
 291.333 480 274.333 485 255.333 485 c 0
 217.333 485 187.333 466 167.333 428 c 0
 147.333 390 138.333 334 138.333 260 c 0
 138.333 236 138.333 215 140.333 196 c 0
 142.333 177 145.333 159 149.333 143 c 1
 342.333 429 l 1
167.333 93 m 1
 177.333 73 189.333 58 204.333 49 c 1
 218.333 39 236.333 34 255.333 34 c 0
 293.333 34 322.333 53 342.333 92 c 0
 361.333 130 371.333 186 371.333 260 c 0
 371.333 285 370.333 307 368.333 326 c 1
 366.333 346 363.333 364 359.333 381 c 1
 167.333 93 l 1
406.333 450 m 1
 422.333 426 435.333 398 443.333 366 c 0
 452.333 333 455.333 298 455.333 260 c 0
 455.333 177 437.333 111 400.333 61 c 0
 363.333 11 316.333 -14 255.333 -14 c 0
 230.333 -14 208.333 -10 187.333 -1 c 0
 166.333 7 147.333 21 129.333 38 c 1
 73.333 -46 l 1
 43.333 -15 l 1
 102.333 72 l 1
 86.333 97 74.333 125 66.333 156 c 0
 58.333 188 54.333 222 54.333 260 c 0
 54.333 342 72.333 409 108.333 458 c 0
 145.333 508 194.333 533 255.333 533 c 0
 279.333 533 302.333 529 323.333 521 c 0
 344.333 512 362.333 500 379.333 484 c 1
 433.333 565 l 1
 463.333 534 l 1
 406.333 450 l 1
EndSplineSet
EndChar

StartChar: ugrave
Encoding: 249 249 179
Width: 600
GlyphClass: 2
Flags: HMW
HStem: -14 66<228 235> 0 52<418 466> 467 52<42 87 42 159 304 346>
VStem: 87 72<189 217 217 467 467 467> 346 72<52 92 92 92 231 467 467 467>
LayerCount: 2
Fore
SplineSet
304 519 m 1xb8
 418 519 l 1
 418 52 l 1
 466 52 l 1
 466 0 l 1
 346 0 l 1x78
 346 92 l 1
 333 57 316 31 295 13 c 0
 273 -5 249 -14 221 -14 c 0
 175 -14 142 2 120 35 c 0
 98 68 87 119 87 189 c 2
 87 467 l 1
 42 467 l 1
 42 519 l 1
 159 519 l 1
 159 217 l 2
 159 154 165 110 177 87 c 0
 190 63 212 52 244 52 c 0
 278 52 303 67 320 98 c 1
 338 128 346 173 346 231 c 2
 346 467 l 1
 304 467 l 1
 304 519 l 1xb8
294 799 m 1x00
 395 615 l 1
 350 615 l 1
 217 799 l 1
 294 799 l 1x00
EndSplineSet
EndChar

StartChar: uacute
Encoding: 250 250 180
Width: 600
GlyphClass: 2
Flags: HMW
HStem: -14 66<228 235> 0 52<418 466> 467 52<42 87 42 159 304 346>
VStem: 87 72<189 217 217 467 467 467> 346 72<52 92 92 92 231 467 467 467>
LayerCount: 2
Fore
SplineSet
304 519 m 1xb8
 418 519 l 1
 418 52 l 1
 466 52 l 1
 466 0 l 1
 346 0 l 1x78
 346 92 l 1
 333 57 316 31 295 13 c 0
 273 -5 249 -14 221 -14 c 0
 175 -14 142 2 120 35 c 0
 98 68 87 119 87 189 c 2
 87 467 l 1
 42 467 l 1
 42 519 l 1
 159 519 l 1
 159 217 l 2
 159 154 165 110 177 87 c 0
 190 63 212 52 244 52 c 0
 278 52 303 67 320 98 c 1
 338 128 346 173 346 231 c 2
 346 467 l 1
 304 467 l 1
 304 519 l 1xb8
318 800 m 1x00
 395 800 l 1
 262 616 l 1
 217 616 l 1
 318 800 l 1x00
EndSplineSet
EndChar

StartChar: ucircumflex
Encoding: 251 251 181
Width: 600
GlyphClass: 2
Flags: HMW
HStem: -14 66<228 235> 0 52<418 466> 467 52<42 87 42 159 304 346>
VStem: 87 72<189 217 217 467 467 467> 346 72<52 92 92 92 231 467 467 467>
LayerCount: 2
Fore
SplineSet
304 519 m 1xb8
 418 519 l 1
 418 52 l 1
 466 52 l 1
 466 0 l 1
 346 0 l 1x78
 346 92 l 1
 333 57 316 31 295 13 c 0
 273 -5 249 -14 221 -14 c 0
 175 -14 142 2 120 35 c 0
 98 68 87 119 87 189 c 2
 87 467 l 1
 42 467 l 1
 42 519 l 1
 159 519 l 1
 159 217 l 2
 159 154 165 110 177 87 c 0
 190 63 212 52 244 52 c 0
 278 52 303 67 320 98 c 1
 338 128 346 173 346 231 c 2
 346 467 l 1
 304 467 l 1
 304 519 l 1xb8
273 800 m 1x00
 339 800 l 1
 431 616 l 1
 385 616 l 1
 306 743 l 1
 227 616 l 1
 181 616 l 1
 273 800 l 1x00
EndSplineSet
EndChar

StartChar: udieresis
Encoding: 252 252 182
Width: 600
GlyphClass: 2
Flags: HMW
HStem: -14 66<228 235> 0 52<418 466> 467 52<42 87 42 159 304 346> 652 114<224 236 224 236 376 388>
VStem: 87 72<189 217 217 467 467 467> 346 72<52 92 92 92 231 467 467 467>
LayerCount: 2
Fore
SplineSet
304 519 m 1xac
 418 519 l 1
 418 52 l 1
 466 52 l 1
 466 0 l 1
 346 0 l 1x6c
 346 92 l 1
 333 57 316 31 295 13 c 0
 273 -5 249 -14 221 -14 c 0
 175 -14 142 2 120 35 c 0
 98 68 87 119 87 189 c 2
 87 467 l 1
 42 467 l 1
 42 519 l 1
 159 519 l 1
 159 217 l 2
 159 154 165 110 177 87 c 0
 190 63 212 52 244 52 c 0
 278 52 303 67 320 98 c 1
 338 128 346 173 346 231 c 2
 346 467 l 1
 304 467 l 1
 304 519 l 1xac
230 766 m 0x10
 242 766 253 760 262 749 c 0
 271 738 276 725 276 709 c 0
 276 692 272 679 263 668 c 0
 254 657 243 652 230 652 c 0
 217 652 206 657 197 668 c 0
 189 679 184 692 184 709 c 0
 184 725 189 738 198 749 c 0
 207 760 217 766 230 766 c 0x10
382 766 m 0
 395 766 405 760 414 749 c 0
 423 738 428 725 428 709 c 0
 428 692 423 679 415 668 c 0
 406 657 395 652 382 652 c 0
 369 652 358 657 349 668 c 0
 340 679 336 692 336 709 c 0
 336 725 341 738 350 749 c 0
 359 760 370 766 382 766 c 0
EndSplineSet
EndChar

StartChar: yacute
Encoding: 253 253 183
Width: 600
GlyphClass: 2
Flags: HMW
HStem: -222 52<135 149> 467 52<38 77 38 213 155 155 155 213 334 388 436 436 436 474>
LayerCount: 2
Fore
SplineSet
205 -95 m 2
 232 -9 l 1
 77 467 l 1
 38 467 l 1
 38 519 l 1
 213 519 l 1
 213 467 l 1
 155 467 l 1
 272 110 l 1
 388 467 l 1
 334 467 l 1
 334 519 l 1
 474 519 l 1
 474 467 l 1
 436 467 l 1
 245 -117 l 2
 232 -158 218 -185 202 -200 c 0
 186 -215 164 -222 135 -222 c 0
 123 -222 110 -221 97 -218 c 0
 84 -216 72 -212 58 -207 c 1
 58 -108 l 1
 95 -108 l 1
 97 -130 101 -146 108 -156 c 0
 115 -165 128 -170 143 -170 c 0
 157 -170 168 -165 177 -155 c 0
 186 -145 195 -125 205 -95 c 2
311 800 m 1
 389 800 l 1
 256 616 l 1
 210 616 l 1
 311 800 l 1
EndSplineSet
EndChar

StartChar: thorn
Encoding: 254 254 184
Width: 600
GlyphClass: 2
Flags: HMW
HStem: -208 52<42.6663 107.666 174.666 238.666 42.6663 107.666> -14 56<286.666 297.666 263.666 325.666> 477 56<286.666 297.666> 708 52<42.6663 107.666 42.6663 174.666>
VStem: 107.666 68<-156 81 202 234 234 285 438 708 708 708> 385.666 79<224 296>
LayerCount: 2
Fore
SplineSet
174.667 285 m 2
 174.667 234 l 2
 174.667 171 183.667 124 201.667 91 c 0
 219.667 58 246.667 42 280.667 42 c 0
 315.667 42 341.667 60 358.667 97 c 0
 376.667 134 385.667 188 385.667 260 c 0
 385.667 332 376.667 386 358.667 422 c 1
 341.667 459 315.667 477 280.667 477 c 0
 246.667 477 219.667 461 201.667 428 c 0
 183.667 395 174.667 347 174.667 285 c 2
107.667 708 m 1
 42.667 708 l 1
 42.667 760 l 1
 174.667 760 l 1
 174.667 438 l 1
 188.667 471 205.667 495 225.667 510 c 0
 245.667 525 271.667 533 301.667 533 c 0
 349.667 533 388.667 508 418.667 458 c 0
 449.667 407 464.667 341 464.667 260 c 0
 464.667 178 449.667 112 418.667 62 c 1
 388.667 11 349.667 -14 301.667 -14 c 0
 271.667 -14 245.667 -6 225.667 9 c 0
 205.667 24 188.667 49 174.667 81 c 1
 174.667 -156 l 1
 238.667 -156 l 1
 238.667 -208 l 1
 42.667 -208 l 1
 42.667 -156 l 1
 107.667 -156 l 1
 107.667 708 l 1
EndSplineSet
EndChar

StartChar: ydieresis
Encoding: 255 255 185
Width: 600
GlyphClass: 2
Flags: HMW
HStem: -222 52<135 149> 467 52<38 77 38 213 155 155 155 213 334 388 436 436 436 474> 652 114<217 230 217 230 370 382>
LayerCount: 2
Fore
SplineSet
205 -95 m 2
 232 -9 l 1
 77 467 l 1
 38 467 l 1
 38 519 l 1
 213 519 l 1
 213 467 l 1
 155 467 l 1
 272 110 l 1
 388 467 l 1
 334 467 l 1
 334 519 l 1
 474 519 l 1
 474 467 l 1
 436 467 l 1
 245 -117 l 2
 232 -158 218 -185 202 -200 c 0
 186 -215 164 -222 135 -222 c 0
 123 -222 110 -221 97 -218 c 0
 84 -216 72 -212 58 -207 c 1
 58 -108 l 1
 95 -108 l 1
 97 -130 101 -146 108 -156 c 0
 115 -165 128 -170 143 -170 c 0
 157 -170 168 -165 177 -155 c 0
 186 -145 195 -125 205 -95 c 2
224 766 m 0
 236 766 247 760 256 749 c 0
 265 738 269 725 269 709 c 0
 269 692 265 679 256 668 c 0
 247 657 237 652 224 652 c 0
 211 652 200 657 191 668 c 0
 183 679 178 692 178 709 c 0
 178 725 183 738 192 749 c 0
 201 760 211 766 224 766 c 0
376 766 m 0
 389 766 399 760 408 749 c 0
 417 738 421 725 421 709 c 0
 421 692 416 679 408 668 c 0
 399 657 389 652 376 652 c 0
 363 652 352 657 343 668 c 0
 334 679 330 692 330 709 c 0
 330 725 335 738 344 749 c 0
 353 760 364 766 376 766 c 0
EndSplineSet
EndChar

StartChar: Cacute
Encoding: 257 262 186
Width: 600
GlyphClass: 2
Flags: HMW
HStem: -14 52<159 188 155 196> 690 52<155 190 146 191>
VStem: -34 90 287 52
LayerCount: 2
Fore
SplineSet
352 193 m 1
 340 125 318 73 288 38 c 0
 258 3 219 -14 173 -14 c 0
 144 -14 118 -6 94 10 c 1
 70 27 49 50 30 82 c 0
 9 118 -7 160 -18 206 c 0
 -29 253 -34 305 -34 364 c 0
 -34 477 -15 568 24 638 c 1
 63 707 114 742 178 742 c 0
 202 742 227 737 254 727 c 0
 281 716 309 700 340 679 c 1
 340 511 l 1
 287 511 l 1
 281 572 270 618 251 646 c 1
 233 675 207 690 174 690 c 0
 135 690 105 662 85 607 c 0
 65 552 55 471 55 364 c 0
 55 257 65 176 85 121 c 0
 105 66 135 38 174 38 c 0
 201 38 224 51 242 77 c 0
 260 103 272 141 280 193 c 1
 352 193 l 1
541 927 m 1
 618 927 l 1
 516 798 l 1
 470 798 l 1
 541 927 l 1
EndSplineSet
EndChar

StartChar: cacute
Encoding: 258 263 187
Width: 600
GlyphClass: 2
Flags: HMW
HStem: -14 48<241.334 276.334 241.334 283.334> 485 48<241.334 273.334 230.334 278.334>
VStem: 59.3337 84<222 298 222 302>
LayerCount: 2
Fore
SplineSet
431.333 156 m 1
 421.333 100 401.333 58 372.333 29 c 0
 343.333 0 306.333 -14 260.333 -14 c 0
 199.333 -14 152.333 11 115.333 61 c 0
 78.333 111 59.333 177 59.333 260 c 0
 59.333 343 78.333 409 115.333 459 c 0
 152.333 508 199.333 533 260.333 533 c 0
 286.333 533 313.333 529 339.333 522 c 1
 365.333 514 391.333 502 417.333 487 c 1
 417.333 354 l 1
 375.333 354 l 1
 369.333 400 357.333 433 339.333 454 c 0
 321.333 474 295.333 485 261.333 485 c 0
 222.333 485 193.333 466 173.333 428 c 0
 153.333 391 143.333 335 143.333 260 c 0
 143.333 185 153.333 129 173.333 91 c 0
 192.333 53 222.333 34 261.333 34 c 0
 291.333 34 316.333 44 335.333 64 c 1
 353.333 85 366.333 115 373.333 156 c 1
 431.333 156 l 1
309.333 800 m 1
 386.333 800 l 1
 253.333 616 l 1
 208.333 616 l 1
 309.333 800 l 1
EndSplineSet
EndChar

StartChar: Ccaron
Encoding: 259 268 188
Width: 600
GlyphClass: 2
Flags: HMW
HStem: -14 52<142 171 138 180> 690 52<138 173 130 174>
VStem: -51 90 271 52
LayerCount: 2
Fore
SplineSet
335 193 m 1
 323 125 301 73 271 38 c 0
 241 3 203 -14 157 -14 c 0
 128 -14 101 -6 77 10 c 1
 53 27 32 50 13 82 c 0
 -8 118 -24 160 -35 206 c 0
 -46 253 -51 305 -51 364 c 0
 -51 477 -32 568 7 638 c 1
 46 707 97 742 161 742 c 0
 185 742 210 737 237 727 c 0
 264 716 292 700 323 679 c 1
 323 511 l 1
 271 511 l 1
 265 572 253 618 234 646 c 1
 216 675 191 690 158 690 c 0
 119 690 89 662 69 607 c 0
 49 552 39 471 39 364 c 0
 39 257 49 176 69 121 c 0
 89 66 119 38 158 38 c 0
 185 38 207 51 225 77 c 0
 243 103 255 141 263 193 c 1
 335 193 l 1
493 798 m 1
 402 927 l 1
 448 927 l 1
 527 848 l 1
 606 927 l 1
 652 927 l 1
 562 798 l 1
 493 798 l 1
EndSplineSet
EndChar

StartChar: ccaron
Encoding: 260 269 189
Width: 600
GlyphClass: 2
Flags: HMW
HStem: -14 48<241.334 276.334 241.334 283.334> 485 48<241.334 273.334 230.334 278.334>
VStem: 59.3337 84<222 298 222 302>
LayerCount: 2
Fore
SplineSet
431.333 156 m 1
 421.333 100 401.333 58 372.333 29 c 0
 343.333 0 306.333 -14 260.333 -14 c 0
 199.333 -14 152.333 11 115.333 61 c 0
 78.333 111 59.333 177 59.333 260 c 0
 59.333 343 78.333 409 115.333 459 c 0
 152.333 508 199.333 533 260.333 533 c 0
 286.333 533 313.333 529 339.333 522 c 1
 365.333 514 391.333 502 417.333 487 c 1
 417.333 354 l 1
 375.333 354 l 1
 369.333 400 357.333 433 339.333 454 c 0
 321.333 474 295.333 485 261.333 485 c 0
 222.333 485 193.333 466 173.333 428 c 0
 153.333 391 143.333 335 143.333 260 c 0
 143.333 185 153.333 129 173.333 91 c 0
 192.333 53 222.333 34 261.333 34 c 0
 291.333 34 316.333 44 335.333 64 c 1
 353.333 85 366.333 115 373.333 156 c 1
 431.333 156 l 1
264.333 616 m 1
 172.333 800 l 1
 218.333 800 l 1
 297.333 673 l 1
 376.333 800 l 1
 422.333 800 l 1
 330.333 616 l 1
 264.333 616 l 1
EndSplineSet
EndChar

StartChar: dcroat
Encoding: 261 273 190
Width: 600
GlyphClass: 2
Flags: HMW
HStem: -14 56<209.666 220.666> 0 52<399.666 464.666 399.666 464.666> 477 56<209.666 220.666 181.666 243.666> 599 52<212.666 332.666 212.666 332.666 399.666 464.666> 740 20G<268.666 399.666 399.666 399.666>
VStem: 42.6663 79<224 296 224 300> 332.666 68<52 52 52 81 81 81 234 285 285 316 438 599 651 708 708 708>
LayerCount: 2
Fore
SplineSet
399.667 52 m 1x7e
 464.667 52 l 1
 464.667 0 l 1
 332.667 0 l 1x7e
 332.667 81 l 1
 318.667 49 301.667 24 281.667 9 c 0
 261.667 -6 235.667 -14 205.667 -14 c 0xbe
 157.667 -14 118.667 11 88.667 62 c 1
 57.667 112 42.667 178 42.667 260 c 0
 42.667 341 57.667 407 87.667 458 c 1
 118.667 508 157.667 533 205.667 533 c 0
 235.667 533 261.667 525 281.667 510 c 0
 301.667 495 318.667 471 332.667 438 c 1
 332.667 599 l 1
 212.667 599 l 1
 212.667 651 l 1
 332.667 651 l 1
 332.667 708 l 1
 268.667 708 l 1
 268.667 760 l 1
 399.667 760 l 1
 399.667 651 l 1
 464.667 651 l 1
 464.667 599 l 1
 399.667 599 l 1
 399.667 52 l 1x7e
332.667 234 m 2
 332.667 285 l 2
 332.667 347 323.667 395 305.667 428 c 0
 287.667 461 260.667 477 226.667 477 c 0
 191.667 477 165.667 459 147.667 422 c 0
 130.667 386 121.667 332 121.667 260 c 0
 121.667 188 130.667 134 147.667 97 c 0
 165.667 60 191.667 42 226.667 42 c 0xbe
 260.667 42 287.667 58 305.667 91 c 0
 323.667 124 332.667 171 332.667 234 c 2
EndSplineSet
EndChar

StartChar: Gbreve
Encoding: 262 286 191
Width: 600
GlyphClass: 2
Flags: HMW
HStem: -14 52<204.334 234.334 204.334 243.334> 281 52<256.334 324.334 256.334 403.334> 690 52<203.334 240.334> 810 65<394.334 418.334 394.334 423.334>
VStem: 11.3337 90<310 418 310 422> 324.334 79 333.334 55
LayerCount: 2
Fore
SplineSet
403.333 333 m 1xec
 403.333 61 l 1xec
 378.333 36 349.333 17 320.333 5 c 0
 291.333 -8 260.333 -14 226.333 -14 c 0
 161.333 -14 109.333 20 70.333 89 c 0
 31.333 158 11.333 250 11.333 364 c 0
 11.333 479 31.333 571 70.333 639 c 1
 109.333 708 162.333 742 228.333 742 c 0
 252.333 742 278.333 737 304.333 728 c 0
 330.333 718 359.333 704 388.333 684 c 1
 388.333 511 l 1
 333.333 511 l 1xea
 328.333 572 316.333 617 298.333 646 c 0
 280.333 675 255.333 690 224.333 690 c 0
 183.333 690 152.333 663 132.333 609 c 0
 112.333 555 101.333 473 101.333 364 c 0
 101.333 257 112.333 176 133.333 121 c 0
 154.333 66 184.333 38 225.333 38 c 0
 243.333 38 260.333 43 276.333 52 c 0
 293.333 61 309.333 75 324.333 93 c 1
 324.333 281 l 1
 256.333 281 l 1
 256.333 333 l 1
 403.333 333 l 1xec
284.333 928 m 1x10
 321.333 928 l 1
 326.333 910 335.333 897 349.333 888 c 0
 363.333 879 382.333 875 406.333 875 c 0
 430.333 875 449.333 879 463.333 888 c 0
 477.333 897 486.333 910 491.333 928 c 1
 527.333 928 l 1
 521.333 890 509.333 861 488.333 840 c 0
 467.333 820 440.333 810 406.333 810 c 0
 372.333 810 344.333 820 323.333 840 c 0
 302.333 860 290.333 890 284.333 928 c 1x10
EndSplineSet
EndChar

StartChar: gbreve
Encoding: 263 287 192
Width: 600
GlyphClass: 2
Flags: HMW
HStem: -222 48<202.666 232.666 195.666 246.666> -14 56<212.666 223.666> 467 52<405.666 405.666 405.666 454.666> 477 56<212.666 223.666 184.666 246.666> 645 67<269.666 295.666 269.666 301.666>
VStem: 47.6663 78 333.666 72<11 81 81 81 438 467>
LayerCount: 2
Fore
SplineSet
405.667 467 m 1xe6
 405.667 11 l 2
 405.667 -63 389.667 -121 356.667 -161 c 0
 323.667 -202 277.667 -222 216.667 -222 c 0
 189.667 -222 162.667 -219 137.667 -213 c 0
 112.667 -207 88.667 -197 65.667 -185 c 1
 65.667 -76 l 1
 103.667 -76 l 1
 108.667 -110 119.667 -135 136.667 -150 c 0
 154.667 -166 179.667 -174 211.667 -174 c 0
 253.667 -174 285.667 -159 304.667 -129 c 0
 324.667 -99 333.667 -53 333.667 11 c 2
 333.667 81 l 1
 319.667 49 303.667 24 283.667 9 c 0
 263.667 -6 238.667 -14 208.667 -14 c 0
 160.667 -14 122.667 11 92.667 62 c 1
 61.667 112 47.667 178 47.667 260 c 0
 47.667 341 61.667 407 91.667 458 c 1
 122.667 508 160.667 533 208.667 533 c 0xd6
 238.667 533 263.667 525 283.667 510 c 0
 303.667 495 319.667 471 333.667 438 c 1
 333.667 519 l 1
 454.667 519 l 1
 454.667 467 l 1
 405.667 467 l 1xe6
333.667 285 m 2xe6
 333.667 347 325.667 395 307.667 428 c 0
 289.667 461 263.667 477 229.667 477 c 0
 195.667 477 169.667 459 151.667 422 c 0
 134.667 386 125.667 332 125.667 260 c 0
 125.667 188 134.667 134 151.667 97 c 0
 169.667 60 195.667 42 229.667 42 c 0
 263.667 42 286.667 58 305.667 91 c 0
 324.667 124 333.667 171 333.667 234 c 2
 333.667 285 l 2xe6
160.667 785 m 1x08
 197.667 785 l 1
 200.667 759 209.667 741 223.667 729 c 0
 237.667 718 256.667 712 282.667 712 c 0
 308.667 712 327.667 718 341.667 729 c 0
 355.667 741 364.667 759 367.667 785 c 1
 404.667 785 l 1
 402.667 739 390.667 704 369.667 680 c 0
 349.667 657 320.667 645 282.667 645 c 0
 244.667 645 215.667 657 195.667 680 c 0
 174.667 704 162.667 739 160.667 785 c 1x08
EndSplineSet
EndChar

StartChar: Idotaccent
Encoding: 264 304 193
Width: 600
GlyphClass: 2
Flags: HMW
HStem: 0 52<80.6663 194.666 274.666 388.666 80.6663 194.666> 677 52<80.6663 194.666 80.6663 388.666 274.666 274.666 274.666 388.666> 901 20<269.666 281.666>
VStem: 194.666 79<52 677>
LayerCount: 2
Fore
SplineSet
274.667 52 m 1
 388.667 52 l 1
 388.667 0 l 1
 80.667 0 l 1
 80.667 52 l 1
 194.667 52 l 1
 194.667 677 l 1
 80.667 677 l 1
 80.667 729 l 1
 388.667 729 l 1
 388.667 677 l 1
 274.667 677 l 1
 274.667 52 l 1
275.667 921 m 0
 287.667 921 298.667 915 307.667 904 c 0
 316.667 892 321.667 879 321.667 864 c 0
 321.667 848 317.667 834 308.667 823 c 0
 299.667 812 288.667 807 275.667 807 c 0
 262.667 807 251.667 812 242.667 823 c 0
 233.667 834 230.667 848 230.667 864 c 0
 230.667 879 234.667 892 243.667 904 c 0
 252.667 915 263.667 921 275.667 921 c 0
EndSplineSet
EndChar

StartChar: dotlessi
Encoding: 265 305 194
Width: 600
GlyphClass: 2
Flags: HMW
HStem: 0 52<114 182 254 322 114 182> 467 52<114 182 114 254>
VStem: 182 72<52 467 467 467>
LayerCount: 2
Fore
SplineSet
254 52 m 1
 322 52 l 1
 322 0 l 1
 114 0 l 1
 114 52 l 1
 182 52 l 1
 182 467 l 1
 114 467 l 1
 114 519 l 1
 254 519 l 1
 254 52 l 1
EndSplineSet
EndChar

StartChar: Lslash
Encoding: 266 321 195
Width: 600
GlyphClass: 2
Flags: HMW
HStem: 0 52<51.6663 118.666 51.6663 118.666 51.6663 472.666> 0 60<188.666 429.666 188.666 472.666> 677 52<51.6663 118.666 51.6663 255.666 188.666 188.666 188.666 255.666>
VStem: 118.666 71<60 286 286 286 355 356 425 677> 429.666 43<60 182 0 182>
LayerCount: 2
Fore
SplineSet
51.667 0 m 1xb8
 51.667 52 l 1
 118.667 52 l 1xb8
 118.667 286 l 1
 62.667 231 l 1
 38.667 276 l 1
 118.667 355 l 1
 118.667 677 l 1
 51.667 677 l 1
 51.667 729 l 1
 255.667 729 l 1
 255.667 677 l 1
 188.667 677 l 1
 188.667 425 l 1
 296.667 535 l 1
 321.667 490 l 1
 188.667 356 l 1
 188.667 60 l 1
 429.667 60 l 1
 429.667 182 l 1
 472.667 182 l 1
 472.667 0 l 1x78
 51.667 0 l 1xb8
EndSplineSet
EndChar

StartChar: lslash
Encoding: 267 322 196
Width: 600
GlyphClass: 2
Flags: HMW
HStem: 0 52<115.666 183.666 255.666 324.666 115.666 183.666> 708 52<115.666 183.666 115.666 255.666>
VStem: 183.666 72<52 332 332 332 459 708 708 708>
LayerCount: 2
Fore
SplineSet
255.667 52 m 1
 324.667 52 l 1
 324.667 0 l 1
 115.667 0 l 1
 115.667 52 l 1
 183.667 52 l 1
 183.667 332 l 1
 130.667 285 l 1
 106.667 327 l 1
 183.667 396 l 1
 183.667 708 l 1
 115.667 708 l 1
 115.667 760 l 1
 255.667 760 l 1
 255.667 459 l 1
 313.667 507 l 1
 336.667 465 l 1
 255.667 396 l 1
 255.667 52 l 1
EndSplineSet
EndChar

StartChar: OE
Encoding: 268 338 197
Width: 600
GlyphClass: 2
Flags: HMW
HStem: 0 52<184.666 251.666 213.666 251.666 213.666 460.666> 0 60<292.666 435.666 292.666 460.666> 365 60<292.666 392.666 292.666 392.666> 669 60<292.666 432.666 292.666 292.666> 677 52<210.666 213.666 213.666 251.666>
VStem: 44.6663 47<316 416 316 423> 251.666 41<60 365 425 669> 392.666 25<274 365 365 365 425 516 274 516> 432.666 25<567 669 669 669> 435.666 25<60 162>
LayerCount: 2
Fore
SplineSet
251.667 52 m 1xaf
 251.667 677 l 1
 213.667 677 l 2
 173.667 677 143.667 650 122.667 597 c 0
 101.667 543 91.667 466 91.667 366 c 0
 91.667 265 101.667 187 122.667 133 c 0
 143.667 79 173.667 52 213.667 52 c 2
 251.667 52 l 1xaf
460.667 0 m 1x7740
 210.667 0 l 2
 158.667 0 117.667 32 88.667 97 c 0
 58.667 161 44.667 251 44.667 366 c 0
 44.667 480 59.667 569 88.667 633 c 0
 117.667 697 158.667 729 210.667 729 c 2xaf40
 456.667 729 l 1
 456.667 567 l 1
 432.667 567 l 1
 432.667 669 l 1x3780
 292.667 669 l 1
 292.667 425 l 1
 392.667 425 l 1
 392.667 516 l 1
 417.667 516 l 1
 417.667 274 l 1
 392.667 274 l 1
 392.667 365 l 1
 292.667 365 l 1
 292.667 60 l 1
 435.667 60 l 1
 435.667 162 l 1
 460.667 162 l 1
 460.667 0 l 1x7740
EndSplineSet
EndChar

StartChar: oe
Encoding: 269 339 198
Width: 600
GlyphClass: 2
Flags: HMW
HStem: -14 48<150.334 171.334 344.334 366.334> 250 52<282.334 416.334 282.334 467.334 282.334 416.334> 485 48<150.334 171.334 143.334 173.334 340.334 360.334>
VStem: 41.3337 50<223 297 223 301> 231.334 50<223 246 246 250 211 297> 416.334 51<250 302>
LayerCount: 2
Fore
SplineSet
161.333 34 m 0
 184.333 34 201.333 53 213.333 91 c 0
 225.333 129 231.333 186 231.333 260 c 0
 231.333 334 225.333 390 213.333 428 c 0
 201.333 466 184.333 485 161.333 485 c 0
 138.333 485 121.333 466 109.333 428 c 0
 97.333 390 91.333 334 91.333 260 c 0
 91.333 186 97.333 129 109.333 91 c 0
 121.333 53 138.333 34 161.333 34 c 0
467.333 250 m 1
 282.333 250 l 1
 282.333 246 l 2
 282.333 176 288.333 123 300.333 88 c 0
 313.333 52 332.333 34 356.333 34 c 0
 375.333 34 391.333 45 403.333 65 c 0
 415.333 86 423.333 117 428.333 157 c 1
 463.333 157 l 1
 456.333 100 443.333 57 425.333 29 c 0
 406.333 0 382.333 -14 352.333 -14 c 0
 332.333 -14 313.333 -6 297.333 10 c 0
 281.333 26 268.333 49 256.333 81 c 1
 245.333 50 232.333 26 216.333 10 c 0
 200.333 -6 181.333 -14 161.333 -14 c 0
 125.333 -14 96.333 11 74.333 61 c 0
 52.333 111 41.333 177 41.333 260 c 0
 41.333 342 51.333 409 73.333 458 c 0
 95.333 508 125.333 533 161.333 533 c 0
 182.333 533 200.333 525 216.333 509 c 0
 232.333 493 246.333 469 257.333 438 c 1
 269.333 469 282.333 493 297.333 509 c 0
 313.333 525 330.333 533 349.333 533 c 0
 387.333 533 416.333 509 436.333 461 c 0
 456.333 412 466.333 342 467.333 250 c 1
416.333 302 m 1
 415.333 362 409.333 408 398.333 439 c 0
 386.333 469 370.333 485 349.333 485 c 0
 329.333 485 314.333 469 302.333 438 c 0
 290.333 408 284.333 362 282.333 302 c 1
 416.333 302 l 1
EndSplineSet
EndChar

StartChar: Scedilla
Encoding: 270 350 199
Width: 600
GlyphClass: 2
Flags: HMW
HStem: -193 59<273.667 278.667 266.667 293.667> -20 20<284.667 322.667 322.667 322.667> -14 52<232.667 267.667 219.667 284.667> 690 52<223.667 256.667 211.667 268.667>
VStem: 42.6667 76<550 578> 49.6667 45<35 201 201 201> 319.667 53<-123 -82> 386.667 78<164 190> 391.667 44<544 699>
LayerCount: 2
Fore
SplineSet
49.667 35 m 1x35
 49.667 201 l 1
 94.667 201 l 1
 96.667 145 108.667 104 132.667 78 c 0
 156.667 51 193.667 38 243.667 38 c 0
 289.667 38 325.667 50 350.667 73 c 0
 374.667 95 386.667 129 386.667 173 c 0x35
 386.667 208 378.667 235 364.667 254 c 0
 349.667 273 318.667 291 271.667 309 c 2
 194.667 338 l 2
 138.667 359 98.667 385 76.667 417 c 0
 53.667 449 42.667 492 42.667 547 c 0
 42.667 609 60.667 657 95.667 691 c 0
 130.667 725 180.667 742 243.667 742 c 0
 270.667 742 299.667 739 331.667 731 c 1
 364.667 724 399.667 713 435.667 699 c 1
 435.667 544 l 1
 391.667 544 l 1
 386.667 595 372.667 633 350.667 656 c 1
 327.667 678 291.667 690 244.667 690 c 0
 202.667 690 172.667 679 150.667 658 c 0
 129.667 637 118.667 607 118.667 567 c 0x3880
 118.667 532 126.667 505 142.667 485 c 0
 159.667 465 192.667 445 245.667 426 c 2
 317.667 399 l 2
 370.667 379 408.667 354 431.667 323 c 0
 453.667 292 464.667 251 464.667 199 c 0
 464.667 129 446.667 75 410.667 40 c 0
 374.667 4 319.667 -14 248.667 -14 c 0
 216.667 -14 184.667 -10 150.667 -2 c 0
 117.667 6 83.667 19 49.667 35 c 1x35
322.667 0 m 1xc2
 339.667 -21 351.667 -40 359.667 -59 c 0
 367.667 -77 371.667 -94 371.667 -110 c 0
 371.667 -136 364.667 -157 347.667 -171 c 1
 331.667 -186 308.667 -193 279.667 -193 c 0
 268.667 -193 256.667 -192 245.667 -190 c 0
 234.667 -188 222.667 -185 210.667 -181 c 1
 210.667 -117 l 1
 220.667 -123 231.667 -127 241.667 -130 c 1
 251.667 -132 261.667 -134 271.667 -134 c 0
 285.667 -134 297.667 -129 306.667 -121 c 1
 314.667 -112 319.667 -101 319.667 -86 c 0
 319.667 -77 316.667 -65 310.667 -51 c 0
 304.667 -36 295.667 -20 284.667 0 c 1
 322.667 0 l 1xc2
EndSplineSet
EndChar

StartChar: scedilla
Encoding: 271 351 200
Width: 600
GlyphClass: 2
Flags: HMW
HStem: -193 59<259.334 263.334 251.334 279.334> -20 20<270.334 307.334 307.334 307.334> -14 48<216.334 243.334 209.334 256.334> 485 48<220.334 244.334 208.334 251.334>
VStem: 75.3337 42<29 150 150 150> 75.3337 68<394 404> 304.334 53<-123 -82> 326.334 74<120 134> 335.334 42<378 491>
LayerCount: 2
Fore
SplineSet
75.333 29 m 1x39
 75.333 150 l 1
 116.333 150 l 1
 117.333 111 127.333 82 145.333 63 c 0
 163.333 44 191.333 34 227.333 34 c 0
 259.333 34 283.333 42 300.333 57 c 0
 318.333 72 326.333 94 326.333 123 c 0x39
 326.333 146 319.333 164 307.333 178 c 0
 294.333 192 269.333 207 229.333 223 c 2
 177.333 245 l 1
 141.333 259 115.333 277 99.333 299 c 0
 83.333 320 75.333 348 75.333 381 c 0
 75.333 428 90.333 466 117.333 493 c 0
 145.333 520 183.333 533 233.333 533 c 0
 255.333 533 278.333 530 302.333 522 c 1
 327.333 515 351.333 505 377.333 491 c 1
 377.333 378 l 1
 335.333 378 l 1
 334.333 411 325.333 438 307.333 457 c 0
 289.333 475 265.333 485 235.333 485 c 0
 205.333 485 183.333 478 167.333 465 c 1
 152.333 451 143.333 431 143.333 405 c 0x3480
 143.333 383 149.333 365 161.333 352 c 0
 173.333 339 196.333 326 231.333 312 c 2
 288.333 290 l 2
 327.333 275 356.333 256 373.333 233 c 0
 391.333 210 399.333 180 399.333 144 c 0
 399.333 95 385.333 56 355.333 28 c 0
 325.333 0 283.333 -14 230.333 -14 c 0
 203.333 -14 177.333 -11 151.333 -3 c 0
 125.333 4 101.333 14 75.333 29 c 1x39
307.333 0 m 1xc2
 324.333 -21 337.333 -40 345.333 -59 c 0
 353.333 -77 357.333 -94 357.333 -110 c 0
 357.333 -136 349.333 -157 332.333 -171 c 1
 316.333 -186 293.333 -193 264.333 -193 c 0
 253.333 -193 242.333 -192 231.333 -190 c 0
 220.333 -188 207.333 -185 195.333 -181 c 1
 195.333 -117 l 1
 205.333 -123 217.333 -127 227.333 -130 c 1
 237.333 -132 246.333 -134 256.333 -134 c 0
 270.333 -134 282.333 -129 291.333 -121 c 1
 299.333 -112 304.333 -101 304.333 -86 c 0
 304.333 -77 301.333 -65 295.333 -51 c 0
 289.333 -36 281.333 -20 270.333 0 c 1
 307.333 0 l 1xc2
EndSplineSet
EndChar

StartChar: Scaron
Encoding: 272 352 201
Width: 600
GlyphClass: 2
Flags: HMW
HStem: -14 52<232.667 267.667 219.667 284.667> 690 52<223.667 256.667 211.667 268.667>
VStem: 42.6667 76<550 578> 49.6667 45<35 201 201 201> 386.667 78<164 190> 391.667 44<544 699>
LayerCount: 2
Fore
SplineSet
49.667 35 m 1xd8
 49.667 201 l 1
 94.667 201 l 1
 96.667 145 108.667 104 132.667 78 c 0
 156.667 51 193.667 38 243.667 38 c 0
 289.667 38 325.667 50 350.667 73 c 0
 374.667 95 386.667 129 386.667 173 c 0xd8
 386.667 208 378.667 235 364.667 254 c 0
 349.667 273 318.667 291 271.667 309 c 2
 194.667 338 l 2
 138.667 359 98.667 385 76.667 417 c 0
 53.667 449 42.667 492 42.667 547 c 0
 42.667 609 60.667 657 95.667 691 c 0
 130.667 725 180.667 742 243.667 742 c 0
 270.667 742 299.667 739 331.667 731 c 1
 364.667 724 399.667 713 435.667 699 c 1
 435.667 544 l 1
 391.667 544 l 1
 386.667 595 372.667 633 350.667 656 c 1
 327.667 678 291.667 690 244.667 690 c 0
 202.667 690 172.667 679 150.667 658 c 0
 129.667 637 118.667 607 118.667 567 c 0xe4
 118.667 532 126.667 505 142.667 485 c 0
 159.667 465 192.667 445 245.667 426 c 2
 317.667 399 l 2
 370.667 379 408.667 354 431.667 323 c 0
 453.667 292 464.667 251 464.667 199 c 0
 464.667 129 446.667 75 410.667 40 c 0
 374.667 4 319.667 -14 248.667 -14 c 0
 216.667 -14 184.667 -10 150.667 -2 c 0
 117.667 6 83.667 19 49.667 35 c 1xd8
256.667 798 m 1x00
 166.667 927 l 1
 211.667 927 l 1
 291.667 848 l 1
 370.667 927 l 1
 415.667 927 l 1
 325.667 798 l 1
 256.667 798 l 1x00
EndSplineSet
EndChar

StartChar: scaron
Encoding: 273 353 202
Width: 600
GlyphClass: 2
Flags: HMW
HStem: -14 48<215.667 242.667 208.667 255.667> 485 48<219.667 243.667 207.667 250.667>
VStem: 74.6667 42<29 150 150 150> 75.6667 68<394 404> 325.667 74<120 134> 335.667 42<378 491>
LayerCount: 2
Fore
SplineSet
74.667 29 m 1xe8
 74.667 150 l 1
 115.667 150 l 1
 116.667 111 126.667 82 144.667 63 c 0
 162.667 44 190.667 34 226.667 34 c 0
 258.667 34 282.667 42 299.667 57 c 0
 317.667 72 325.667 94 325.667 123 c 0xe8
 325.667 146 319.667 164 307.667 178 c 0
 294.667 192 268.667 207 228.667 223 c 2
 176.667 245 l 1
 140.667 259 115.667 277 99.667 299 c 0
 83.667 320 75.667 348 75.667 381 c 0
 75.667 428 89.667 466 116.667 493 c 0
 144.667 520 182.667 533 232.667 533 c 0
 254.667 533 277.667 530 301.667 522 c 1
 326.667 515 350.667 505 376.667 491 c 1
 376.667 378 l 1
 335.667 378 l 1
 334.667 411 325.667 438 307.667 457 c 0
 289.667 475 265.667 485 235.667 485 c 0
 205.667 485 182.667 478 166.667 465 c 1
 151.667 451 143.667 431 143.667 405 c 0xd4
 143.667 383 148.667 365 160.667 352 c 0
 172.667 339 196.667 326 231.667 312 c 2
 287.667 290 l 2
 326.667 275 355.667 256 372.667 233 c 0
 390.667 210 399.667 180 399.667 144 c 0
 399.667 95 384.667 56 354.667 28 c 0
 324.667 0 282.667 -14 229.667 -14 c 0
 202.667 -14 177.667 -11 151.667 -3 c 0
 125.667 4 100.667 14 74.667 29 c 1xe8
243.667 616 m 1x00
 151.667 800 l 1
 196.667 800 l 1
 275.667 673 l 1
 355.667 800 l 1
 400.667 800 l 1
 308.667 616 l 1
 243.667 616 l 1x00
EndSplineSet
EndChar

StartChar: Ydieresis
Encoding: 274 376 203
Width: 600
GlyphClass: 2
Flags: HMW
HStem: 0 52<168.666 219.666 168.666 219.666 298.666 348.666> 677 52<32.6663 63.6663 32.6663 201.666 157.666 157.666 157.666 201.666 362.666 404.666 452.666 452.666 452.666 484.666> 806 114<240.666 253.666 240.666 253.666 393.666 405.666>
VStem: 219.666 79<52 314 314 314>
LayerCount: 2
Fore
SplineSet
168.667 0 m 1
 168.667 52 l 1
 219.667 52 l 1
 219.667 314 l 1
 63.667 677 l 1
 32.667 677 l 1
 32.667 729 l 1
 201.667 729 l 1
 201.667 677 l 1
 157.667 677 l 1
 279.667 382 l 1
 404.667 677 l 1
 362.667 677 l 1
 362.667 729 l 1
 484.667 729 l 1
 484.667 677 l 1
 452.667 677 l 1
 298.667 323 l 1
 298.667 52 l 1
 348.667 52 l 1
 348.667 0 l 1
 168.667 0 l 1
247.667 920 m 0
 259.667 920 270.667 914 279.667 903 c 0
 288.667 891 292.667 878 292.667 863 c 0
 292.667 847 288.667 833 280.667 822 c 0
 271.667 811 260.667 806 247.667 806 c 0
 234.667 806 223.667 811 215.667 822 c 0
 206.667 833 201.667 847 201.667 863 c 0
 201.667 878 206.667 891 215.667 903 c 0
 224.667 914 234.667 920 247.667 920 c 0
399.667 920 m 0
 412.667 920 422.667 914 431.667 903 c 0
 440.667 891 444.667 878 444.667 863 c 0
 444.667 847 440.667 833 431.667 822 c 0
 423.667 811 412.667 806 399.667 806 c 0
 386.667 806 375.667 811 366.667 822 c 0
 358.667 833 353.667 847 353.667 863 c 0
 353.667 878 358.667 891 367.667 903 c 0
 376.667 914 387.667 920 399.667 920 c 0
EndSplineSet
EndChar

StartChar: Zcaron
Encoding: 275 381 204
Width: 600
GlyphClass: 2
Flags: HMW
HStem: 0 60<146.333 415.333 146.333 463.333> 669 60<104.333 346.333 104.333 104.333>
VStem: 56.3333 48<560 669 560 729> 415.333 48<60 162 0 162>
LayerCount: 2
Fore
SplineSet
43.333 0 m 1
 43.333 35 l 1
 346.333 669 l 1
 104.333 669 l 1
 104.333 560 l 1
 56.333 560 l 1
 56.333 729 l 1
 449.333 729 l 1
 449.333 694 l 1
 146.333 60 l 1
 415.333 60 l 1
 415.333 162 l 1
 463.333 162 l 1
 463.333 0 l 1
 43.333 0 l 1
293.333 798 m 1
 203.333 927 l 1
 248.333 927 l 1
 327.333 848 l 1
 407.333 927 l 1
 452.333 927 l 1
 362.333 798 l 1
 293.333 798 l 1
EndSplineSet
EndChar

StartChar: zcaron
Encoding: 276 382 205
Width: 600
GlyphClass: 2
Flags: HMW
HStem: 0 52<156.334 381.334 156.334 423.334> 467 52<117.334 323.334 117.334 117.334>
VStem: 76.3337 42<377 467 377 519> 381.334 42<52 146 0 146>
LayerCount: 2
Fore
SplineSet
63.333 0 m 1
 63.333 42 l 1
 323.333 467 l 1
 117.333 467 l 1
 117.333 377 l 1
 76.333 377 l 1
 76.333 519 l 1
 416.333 519 l 1
 416.333 477 l 1
 156.333 52 l 1
 381.333 52 l 1
 381.333 146 l 1
 423.333 146 l 1
 423.333 0 l 1
 63.333 0 l 1
250.333 616 m 1
 158.333 800 l 1
 204.333 800 l 1
 283.333 673 l 1
 362.333 800 l 1
 408.333 800 l 1
 316.333 616 l 1
 250.333 616 l 1
EndSplineSet
EndChar

StartChar: florin
Encoding: 277 402 206
Width: 600
GlyphClass: 2
Flags: HMW
HStem: -211 48<118.334 136.334 118.334 142.334> 349 52<137.334 230.334 137.334 234.334 305.334 417.334> 694 48<377.334 396.334>
VStem: 35.3337 36<-189 -81 -81 -81> 443.334 36<612 720>
LayerCount: 2
Fore
SplineSet
248.333 554 m 2
 253.333 615 268.333 661 293.333 694 c 0
 318.333 726 350.333 742 391.333 742 c 0
 404.333 742 418.333 740 432.333 737 c 0
 446.333 733 462.333 727 479.333 720 c 1
 479.333 612 l 1
 443.333 612 l 1
 441.333 640 436.333 660 427.333 674 c 0
 418.333 687 405.333 694 387.333 694 c 0
 367.333 694 353.333 683 342.333 660 c 0
 331.333 637 323.333 598 318.333 543 c 2
 305.333 401 l 1
 417.333 401 l 1
 417.333 349 l 1
 299.333 349 l 1
 266.333 -23 l 2
 261.333 -83 245.333 -130 220.333 -162 c 0
 195.333 -195 163.333 -211 122.333 -211 c 0
 110.333 -211 96.333 -209 82.333 -206 c 0
 68.333 -202 52.333 -196 35.333 -189 c 1
 35.333 -81 l 1
 71.333 -81 l 1
 73.333 -109 78.333 -130 87.333 -143 c 0
 96.333 -156 110.333 -163 127.333 -163 c 0
 147.333 -163 161.333 -152 172.333 -129 c 0
 183.333 -106 191.333 -67 196.333 -12 c 2
 230.333 349 l 1
 137.333 349 l 1
 137.333 401 l 1
 234.333 401 l 1
 248.333 554 l 2
EndSplineSet
EndChar

StartChar: circumflex
Encoding: 278 710 207
Width: 600
GlyphClass: 2
Flags: HW
LayerCount: 2
Fore
SplineSet
192 800 m 1
 258 800 l 1
 350 616 l 1
 304 616 l 1
 225 743 l 1
 146 616 l 1
 100 616 l 1
 192 800 l 1
EndSplineSet
EndChar

StartChar: caron
Encoding: 279 711 208
Width: 600
GlyphClass: 2
Flags: HW
LayerCount: 2
Fore
SplineSet
192 616 m 1
 100 800 l 1
 146 800 l 1
 225 673 l 1
 304 800 l 1
 350 800 l 1
 258 616 l 1
 192 616 l 1
EndSplineSet
EndChar

StartChar: breve
Encoding: 280 728 209
Width: 600
GlyphClass: 2
Flags: HMW
HStem: 645 67<211 237 211 243>
LayerCount: 2
Fore
SplineSet
102 785 m 1
 139 785 l 1
 142 759 151 741 165 729 c 0
 179 718 198 712 224 712 c 0
 250 712 269 718 283 729 c 0
 297 741 306 759 309 785 c 1
 346 785 l 1
 344 739 332 704 311 680 c 0
 291 657 262 645 224 645 c 0
 186 645 157 657 137 680 c 0
 116 704 104 739 102 785 c 1
EndSplineSet
EndChar

StartChar: dotaccent
Encoding: 281 729 210
Width: 600
GlyphClass: 2
Flags: HW
LayerCount: 2
Fore
SplineSet
198.667 766 m 0
 211.667 766 221.667 760 230.667 749 c 0
 240.667 738 244.667 725 244.667 709 c 0
 244.667 692 240.667 679 231.667 668 c 0
 222.667 657 212.667 652 198.667 652 c 0
 184.667 652 174.667 657 165.667 668 c 0
 156.667 679 152.667 692 152.667 709 c 0
 152.667 725 156.667 738 166.667 749 c 0
 175.667 760 185.667 766 198.667 766 c 0
EndSplineSet
EndChar

StartChar: ring
Encoding: 282 730 211
Width: 600
GlyphClass: 2
Flags: HMW
HStem: 610 60<211 227 211 234> 818 60<211 227>
VStem: 112 48<734 754 734 763> 278 48<734 754>
LayerCount: 2
Fore
SplineSet
326 744 m 0
 326 707 316 675 295 649 c 0
 274 623 249 610 219 610 c 0
 189 610 164 623 143 649 c 0
 122 675 112 707 112 744 c 0
 112 782 122 813 143 839 c 0
 164 865 189 878 219 878 c 0
 249 878 274 865 295 839 c 0
 316 813 326 782 326 744 c 0
278 744 m 0
 278 765 272 782 261 796 c 0
 249 811 236 818 219 818 c 0
 202 818 188 811 177 797 c 0
 166 782 160 765 160 744 c 0
 160 723 166 705 177 691 c 0
 188 677 202 670 219 670 c 0
 236 670 249 677 261 691 c 1
 272 706 278 723 278 744 c 0
EndSplineSet
EndChar

StartChar: ogonek
Encoding: 283 731 212
Width: 600
GlyphClass: 2
Flags: HMW
HStem: -192 58<228.666 231.666> -20 20G<185.666 221.666 221.666 221.666>
VStem: 134.666 53<-122 -76>
LayerCount: 2
Fore
SplineSet
185.667 0 m 1
 221.667 0 l 1
 221.667 -1 l 1
 198.667 -41 187.667 -69 187.667 -84 c 0
 187.667 -99 191.667 -111 200.667 -120 c 0
 209.667 -129 221.667 -134 235.667 -134 c 0
 242.667 -134 250.667 -133 257.667 -131 c 0
 265.667 -128 272.667 -125 280.667 -121 c 1
 280.667 -183 l 1
 270.667 -186 262.667 -188 253.667 -190 c 0
 244.667 -191 235.667 -192 227.667 -192 c 0
 197.667 -192 175.667 -185 158.667 -170 c 0
 142.667 -156 134.667 -135 134.667 -109 c 0
 134.667 -93 138.667 -76 146.667 -59 c 0
 154.667 -42 167.667 -22 185.667 0 c 1
EndSplineSet
EndChar

StartChar: tilde
Encoding: 284 732 213
Width: 600
GlyphClass: 2
Flags: HMW
HStem: 639 62<278.334 286.334 278.334 291.334> 715 62<166.334 174.334>
VStem: 97.3337 38<639 639> 317.334 38<777 777>
LayerCount: 2
Fore
SplineSet
224.333 669 m 2
 202.333 696 l 2
 196.333 704 190.333 709 185.333 711 c 1
 181.333 714 177.333 715 172.333 715 c 0
 161.333 715 152.333 708 146.333 696 c 0
 140.333 683 136.333 664 135.333 639 c 1
 97.333 639 l 1
 98.333 683 104.333 717 118.333 741 c 0
 131.333 765 149.333 777 173.333 777 c 0
 183.333 777 192.333 775 200.333 770 c 0
 209.333 765 218.333 758 228.333 747 c 2
 250.333 720 l 2
 256.333 713 261.333 708 265.333 705 c 0
 270.333 702 274.333 701 280.333 701 c 0
 291.333 701 301.333 708 307.333 721 c 0
 313.333 734 316.333 752 317.333 777 c 1
 355.333 777 l 1
 354.333 733 348.333 699 334.333 675 c 0
 321.333 651 303.333 639 279.333 639 c 0
 269.333 639 260.333 641 252.333 646 c 0
 243.333 651 234.333 658 224.333 669 c 2
EndSplineSet
EndChar

StartChar: hungarumlaut
Encoding: 285 733 214
Width: 600
GlyphClass: 2
Flags: HW
LayerCount: 2
Fore
SplineSet
166.667 800 m 1
 232.667 800 l 1
 137.667 616 l 1
 92.667 616 l 1
 166.667 800 l 1
294.667 800 m 1
 364.667 800 l 1
 252.667 616 l 1
 206.667 616 l 1
 294.667 800 l 1
EndSplineSet
EndChar

StartChar: endash
Encoding: 286 8211 215
Width: 600
GlyphClass: 2
Flags: HMW
HStem: 233 65<50 450 50 450>
LayerCount: 2
Fore
SplineSet
50 298 m 1
 450 298 l 1
 450 233 l 1
 50 233 l 1
 50 298 l 1
EndSplineSet
EndChar

StartChar: emdash
Encoding: 287 8212 216
Width: 600
GlyphClass: 2
Flags: HMW
HStem: 233 65<23.3337 503.334 23.3337 503.334>
LayerCount: 2
Fore
SplineSet
23.333 298 m 1
 503.333 298 l 1
 503.333 233 l 1
 23.333 233 l 1
 23.333 298 l 1
EndSplineSet
EndChar

StartChar: quoteleft
Encoding: 288 8216 217
Width: 600
GlyphClass: 2
Flags: HMW
VStem: 139.334 76<495 524>
LayerCount: 2
Fore
SplineSet
271.333 703 m 1
 251.333 682 237.333 658 228.333 630 c 1
 218.333 603 215.333 568 215.333 526 c 2
 215.333 495 l 1
 139.333 495 l 1
 139.333 552 147.333 600 163.333 639 c 0
 179.333 678 206.333 713 241.333 742 c 1
 271.333 703 l 1
EndSplineSet
EndChar

StartChar: quoteright
Encoding: 289 8217 218
Width: 600
GlyphClass: 2
Flags: HMW
HStem: 709 20G<196.666 272.666 272.666 272.666>
VStem: 196.666 76<699 729 729 729>
LayerCount: 2
Fore
SplineSet
138.667 521 m 1
 158.667 542 173.667 566 182.667 594 c 0
 191.667 622 196.667 657 196.667 699 c 2
 196.667 729 l 1
 272.667 729 l 1
 271.667 673 263.667 625 247.667 585 c 1
 230.667 546 204.667 512 169.667 482 c 1
 138.667 521 l 1
EndSplineSet
EndChar

StartChar: quotesinglbase
Encoding: 290 8218 219
Width: 600
GlyphClass: 2
Flags: HW
LayerCount: 2
Fore
SplineSet
134 -97 m 1
 159 -75 176 -48 188 -18 c 1
 199 13 205 49 205 93 c 2
 205 111 l 1
 282 111 l 1
 280 55 269 7 251 -32 c 0
 232 -72 203 -107 165 -136 c 1
 134 -97 l 1
EndSplineSet
EndChar

StartChar: quotedblleft
Encoding: 291 8220 220
Width: 600
GlyphClass: 2
Flags: HMW
VStem: 87.3337 76<495 524> 242.334 76<495 526>
LayerCount: 2
Fore
SplineSet
375.333 703 m 1
 355.333 682 340.333 658 331.333 630 c 0
 322.333 603 318.333 568 318.333 526 c 2
 318.333 495 l 1
 242.333 495 l 1
 243.333 552 251.333 600 267.333 639 c 0
 283.333 678 309.333 713 344.333 742 c 1
 375.333 703 l 1
220.333 703 m 1
 200.333 682 186.333 658 177.333 630 c 1
 167.333 603 163.333 568 163.333 526 c 2
 163.333 495 l 1
 87.333 495 l 1
 87.333 552 96.333 600 112.333 639 c 0
 128.333 678 155.333 713 190.333 742 c 1
 220.333 703 l 1
EndSplineSet
EndChar

StartChar: quotedblright
Encoding: 292 8221 221
Width: 600
GlyphClass: 2
Flags: HMW
HStem: 709 20G<145.334 221.334 221.334 221.334 299.334 375.334 375.334 375.334>
VStem: 145.334 76<699 729 729 729> 299.334 76<698 729 729 729>
LayerCount: 2
Fore
SplineSet
87.333 521 m 1
 107.333 542 122.333 566 131.333 594 c 0
 140.333 622 145.333 657 145.333 699 c 2
 145.333 729 l 1
 221.333 729 l 1
 220.333 673 212.333 625 196.333 585 c 1
 179.333 546 152.333 512 117.333 482 c 1
 87.333 521 l 1
242.333 521 m 1
 262.333 542 276.333 566 285.333 594 c 0
 294.333 621 299.333 656 299.333 698 c 2
 299.333 729 l 1
 375.333 729 l 1
 374.333 672 366.333 624 350.333 585 c 0
 333.333 546 308.333 512 273.333 482 c 1
 242.333 521 l 1
EndSplineSet
EndChar

StartChar: quotedblbase
Encoding: 293 8222 222
Width: 600
GlyphClass: 2
Flags: HMW
VStem: 307.666 77<93 111 111 111>
LayerCount: 2
Fore
SplineSet
82.667 -97 m 1
 107.667 -75 124.667 -48 136.667 -18 c 1
 147.667 13 153.667 49 153.667 93 c 2
 153.667 111 l 1
 230.667 111 l 1
 228.667 55 217.667 7 199.667 -32 c 0
 180.667 -72 151.667 -107 113.667 -136 c 1
 82.667 -97 l 1
236.667 -97 m 1
 261.667 -75 279.667 -48 291.667 -18 c 1
 302.667 13 307.667 49 307.667 93 c 2
 307.667 111 l 1
 384.667 111 l 1
 382.667 55 372.667 7 353.667 -32 c 0
 334.667 -72 305.667 -107 267.667 -136 c 1
 236.667 -97 l 1
EndSplineSet
EndChar

StartChar: dagger
Encoding: 294 8224 223
Width: 600
GlyphClass: 2
Flags: HMW
HStem: 709 20G<207.666 277.666 277.666 277.666>
VStem: 220.666 43<460 460 460 513>
LayerCount: 2
Fore
SplineSet
207.667 729 m 1
 277.667 729 l 1
 264.667 513 l 1
 420.667 527 l 1
 420.667 446 l 1
 264.667 460 l 1
 277.667 -96 l 1
 207.667 -96 l 1
 220.667 460 l 1
 64.667 446 l 1
 64.667 527 l 1
 220.667 513 l 1
 207.667 729 l 1
EndSplineSet
EndChar

StartChar: daggerdbl
Encoding: 295 8225 224
Width: 600
GlyphClass: 2
Flags: HMW
HStem: 709 20G<207.666 277.666 277.666 277.666>
LayerCount: 2
Fore
SplineSet
207.667 729 m 1
 277.667 729 l 1
 264.667 513 l 1
 420.667 527 l 1
 420.667 446 l 1
 264.667 460 l 1
 277.667 316 l 1
 264.667 173 l 1
 420.667 187 l 1
 420.667 106 l 1
 264.667 120 l 1
 277.667 -96 l 1
 207.667 -96 l 1
 220.667 120 l 1
 64.667 106 l 1
 64.667 187 l 1
 220.667 173 l 1
 207.667 316 l 1
 220.667 460 l 1
 64.667 446 l 1
 64.667 527 l 1
 220.667 513 l 1
 207.667 729 l 1
EndSplineSet
EndChar

StartChar: bullet
Encoding: 296 8226 225
Width: 600
GlyphClass: 2
Flags: HW
LayerCount: 2
Fore
SplineSet
106 372 m 0
 106 412 118 447 140 474 c 0
 162 502 190 516 223 516 c 0
 255 516 282 502 304 474 c 0
 326 447 338 412 338 372 c 0
 338 331 326 297 304 269 c 0
 282 240 254 226 222 226 c 0
 190 226 162 240 140 268 c 0
 118 296 106 331 106 372 c 0
EndSplineSet
EndChar

StartChar: ellipsis
Encoding: 297 8230 226
Width: 600
GlyphClass: 2
Flags: HMW
HStem: -14 130<83 91 83 91 243 251 403 411>
VStem: 56 62<42 60> 216 62<42 60> 376 62<42 60>
CounterMasks: 1 70
LayerCount: 2
Fore
SplineSet
376 51 m 0
 376 69 379 84 385 97 c 0
 391 110 398 116 407 116 c 0
 416 116 423 110 429 97 c 0
 435 84 438 69 438 51 c 0
 438 33 435 18 429 5 c 0
 423 -8 416 -14 407 -14 c 0
 398 -14 391 -8 385 5 c 1
 379 17 376 33 376 51 c 0
216 51 m 0
 216 69 219 84 225 97 c 0
 231 110 238 116 247 116 c 0
 256 116 263 110 269 97 c 0
 275 84 278 69 278 51 c 0
 278 33 275 18 269 5 c 0
 263 -8 256 -14 247 -14 c 0
 238 -14 231 -8 225 5 c 1
 219 17 216 33 216 51 c 0
56 51 m 0
 56 69 59 84 65 97 c 0
 71 110 78 116 87 116 c 0
 96 116 103 110 109 97 c 0
 115 84 118 69 118 51 c 0
 118 33 115 18 109 5 c 0
 103 -8 96 -14 87 -14 c 0
 78 -14 71 -8 65 5 c 1
 59 17 56 33 56 51 c 0
EndSplineSet
EndChar

StartChar: guilsinglleft
Encoding: 298 8249 227
Width: 600
GlyphClass: 2
Flags: HW
LayerCount: 2
Fore
SplineSet
306 517 m 1
 306 461 l 1
 190 293 l 1
 306 125 l 1
 306 69 l 1
 122 273 l 1
 122 313 l 1
 306 517 l 1
EndSplineSet
EndChar

StartChar: guilsinglright
Encoding: 299 8250 228
Width: 600
GlyphClass: 2
Flags: HW
LayerCount: 2
Fore
SplineSet
122 517 m 1
 306 313 l 1
 306 273 l 1
 122 69 l 1
 122 125 l 1
 238 293 l 1
 122 461 l 1
 122 517 l 1
EndSplineSet
EndChar

